<svg style="position: absolute; width: 0; height: 0; overflow: hidden;" version="1.1" xmlns="http://www.w3.org/2000/svg" xmlns:xlink="http://www.w3.org/1999/xlink">
<defs>
<symbol id="icon-arrow-left" viewBox="0 0 34 32">
<title>arrow-left</title>
<path class="path1" d="M12.213 28.8l2.6-2.8-7.8-8.2h26.8v-3.8h-26.8l7.8-8.2-2.6-2.8-12.2 13z"></path>
</symbol>
<symbol id="icon-arrow-right" viewBox="0 0 34 32">
<title>arrow-right</title>
<path class="path1" d="M21.6 3.2l-2.6 2.8 7.8 8.2h-26.8v3.8h26.8l-7.8 8.2 2.6 2.8 12.2-13z"></path>
</symbol>
<symbol id="icon-arrow-down" viewBox="0 0 34 32">
<title>arrow-down</title>
<path class="path1" d="M28.949 20.416l-2.634-2.446-7.715 7.338v-25.214h-3.575v25.214l-7.715-7.338-2.634 2.446 12.231 11.478z"></path>
</symbol>
<symbol id="icon-arrow-up" viewBox="0 0 34 32">
<title>arrow-up</title>
<path class="path1" d="M4.864 11.584l2.634 2.446 7.715-7.338v25.214h3.575v-25.214l7.715 7.338 2.634-2.446-12.231-11.478z"></path>
</symbol>
</defs>
</svg>
