<?xml version="1.0" standalone="no"?>
<!DOCTYPE svg PUBLIC "-//W3C//DTD SVG 1.1//EN" "http://www.w3.org/Graphics/SVG/1.1/DTD/svg11.dtd" >
<svg>
<metadata>
Created by FontForge 20090622 at Thu Oct 27 05:56:45 2016
 By deploy user
(C)2008 Schwartzco Inc.
</metadata>
<defs>
<font id="." horiz-adv-x="752" >
  <font-face 
    font-family="."
    font-weight="700"
    font-stretch="normal"
    units-per-em="1000"
    panose-1="2 0 6 3 6 0 0 2 0 4"
    ascent="838"
    descent="-162"
    x-height="528"
    cap-height="700"
    bbox="-196 -237 1262 935"
    underline-thickness="20"
    underline-position="-133"
    unicode-range="U+0020-U+FB04"
  />
<missing-glyph horiz-adv-x="253" 
 />
    <glyph glyph-name="f_f" unicode="ff" horiz-adv-x="675" 
d="M4 528h52v19q0 85 49 121.5t138 36.5q41 0 63 -4.5t39 -10.5v-109h-20q-24 0 -37 -8t-13 -34v-11h93v23q0 89 50 126t145 37q38 0 63 -4.5t44 -10.5v-114h-26q-32 0 -44.5 -8t-12.5 -34v-15h79v-131h-79v-249q0 -8 8 -16.5t16 -8.5h34v-123h-308v123h31v274h-93v-274h30
v-123h-298v123h25q8 0 16 8.5t8 16.5v249h-52v131z" />
    <glyph glyph-name="f_i" unicode="fi" horiz-adv-x="644" 
d="M337 123h31v274h-93v-274h30v-123h-298v123h25q8 0 16 8.5t8 16.5v249h-52v131h52v23q0 89 50 126t145 37q38 0 61 -4.5t42 -10.5v-114h-23q-31 0 -43.5 -8t-12.5 -34v-15h281q31 0 31 -51v-329q0 -8 8 -16.5t16 -8.5h26v-123h-300v123zM477 549q-45 0 -73.5 25.5
t-28.5 67.5q0 43 28.5 69t73.5 26t73 -26t28 -69q0 -42 -28 -67.5t-73 -25.5z" />
    <glyph glyph-name="f_l" unicode="fl" horiz-adv-x="648" 
d="M4 528h52v23q0 89 54 126t152 37q31 0 62 -4t54 -10h177q15 0 23.5 -12t8.5 -32v-508q0 -8 8 -16.5t16 -8.5h30v-123h-304v123h31v460h-37q-31 0 -43.5 -8t-12.5 -32v-15h67v-131h-67v-274h30v-123h-298v123h25q8 0 16 8.5t8 16.5v249h-52v131z" />
    <glyph glyph-name="f_f_i" unicode="ffi" horiz-adv-x="956" 
d="M650 123h30v274h-93v-274h30v-123h-280v123h31v274h-93v-274h30v-123h-298v123h25q8 0 16 8.5t8 16.5v249h-52v131h52v19q0 85 49 121.5t138 36.5q41 0 63 -4.5t39 -10.5v-109h-20q-24 0 -37 -8t-13 -34v-11h93v23q0 89 50 126t145 37q38 0 61 -4.5t42 -10.5v-114h-22
q-32 0 -44.5 -8t-12.5 -34v-15h281q31 0 31 -51v-329q0 -8 8 -16.5t16 -8.5h27v-123h-300v123zM789 549q-45 0 -73.5 25.5t-28.5 67.5q0 43 28.5 69t73.5 26t73.5 -26t28.5 -69q0 -42 -28.5 -67.5t-73.5 -25.5z" />
    <glyph glyph-name="f_f_l" unicode="ffl" horiz-adv-x="960" 
d="M4 528h52v19q0 85 49 121.5t138 36.5q41 0 63 -4.5t39 -10.5v-109h-20q-24 0 -37 -8t-13 -34v-11h93v23q0 89 54 126t152 37q31 0 62 -4t54 -10h177q15 0 23.5 -12t8.5 -32v-508q0 -8 8 -16.5t16 -8.5h30v-123h-303v123h30v460h-36q-32 0 -44.5 -8t-12.5 -32v-15h67v-131
h-67v-274h30v-123h-280v123h31v274h-93v-274h30v-123h-298v123h25q8 0 16 8.5t8 16.5v249h-52v131z" />
    <glyph glyph-name="f_b" unicode="fb" horiz-adv-x="947" 
d="M714 -10q-56 0 -91 18.5t-57 47.5q-12 -23 -26 -39.5t-25 -16.5h-147v583h-37q-31 0 -43.5 -8t-12.5 -32v-15h67v-131h-67v-274h57v-123h-325v123h25q8 0 16 8.5t8 16.5v249h-52v131h52v23q0 89 54 126t152 37q31 0 62 -4t54 -10h177q15 0 23.5 -12t8.5 -32v-191
q29 32 66 52.5t90 20.5q37 0 72.5 -12.5t63 -42t44 -79.5t16.5 -125t-17 -129.5t-47 -90t-71 -52.5t-90 -17zM636 381q-12 0 -24.5 -2.5t-24.5 -5.5v-239q18 -12 49 -12q16 0 30.5 6t26 21t18 42t6.5 69q0 37 -6.5 61t-17.5 37t-25.5 18t-31.5 5z" />
    <glyph glyph-name="f_h" unicode="fh" horiz-adv-x="957" 
d="M691 328q0 29 -14.5 38t-49.5 9q-7 0 -18 -0.5t-22 -2.5v-249h58v-123h-308v123h31v460h-37q-31 0 -43.5 -8t-12.5 -32v-15h67v-131h-67v-274h30v-123h-298v123h25q8 0 16 8.5t8 16.5v249h-52v131h52v23q0 89 54 126t152 37q31 0 62 -4t54 -10h177q15 0 23.5 -12t8.5 -32
v-198q34 35 80 57.5t107 22.5q26 0 50.5 -6t43.5 -20.5t30.5 -39t11.5 -60.5v-264q0 -8 8 -16.5t16 -8.5h16v-123h-259v328z" />
    <glyph glyph-name="f_j" unicode="fj" horiz-adv-x="616" 
d="M391 -170q-36 0 -61.5 4.5t-45.5 9.5v111h26q35 0 46.5 10.5t11.5 37.5v394h-93v-274h52v-123h-320v123h25q8 0 16 8.5t8 16.5v249h-52v131h52v23q0 89 50 126t145 37q38 0 61 -4.5t42 -10.5v-114h-22q-32 0 -44.5 -8t-12.5 -34v-15h281q14 0 22.5 -14.5t8.5 -36.5v-484
q0 -46 -13 -77t-37.5 -50t-61 -27.5t-84.5 -8.5zM477 549q-45 0 -73.5 25.5t-28.5 67.5q0 43 28.5 69t73.5 26t73.5 -26t28.5 -69q0 -42 -28.5 -67.5t-73.5 -25.5z" />
    <glyph glyph-name="f_k" unicode="fk" horiz-adv-x="946" 
d="M676 120l-50 77l-39 -28v-46h44v-123h-294v123h31v460h-37q-31 0 -43.5 -8t-12.5 -32v-15h67v-131h-67v-274h30v-123h-298v123h25q8 0 16 8.5t8 16.5v249h-52v131h52v23q0 89 54 126t152 37q31 0 62 -4t54 -10h177q15 0 23.5 -12t8.5 -32v-352l71 59q18 13 15.5 27
t-21.5 14h-18v124h303v-131h-19q-8 0 -16.5 -4t-15.5 -10l-85 -74l97 -160q5 -10 13 -18t16 -8h13v-123h-264v120z" />
    <glyph glyph-name="f_t" unicode="ft" horiz-adv-x="683" 
d="M4 528h52v23q0 89 50 126t137 37q40 0 61.5 -4.5t38.5 -10.5v-114h-18q-24 0 -37 -8t-13 -34v-15h92v137h218v-137h88v-131h-88v-215q0 -34 14 -46.5t50 -12.5h27v-119q-20 -5 -49 -10t-67 -5q-44 0 -79.5 7t-61 25t-39 48t-13.5 76v252h-92v-274h55v-123h-323v123h25
q8 0 16 8.5t8 16.5v249h-52v131z" />
    <glyph glyph-name="f_f_b" unicode="ffb" horiz-adv-x="1259" 
d="M1027 -10q-57 0 -92 18.5t-57 47.5q-12 -23 -26 -39.5t-25 -16.5h-147v583h-36q-32 0 -44.5 -8t-12.5 -32v-15h67v-131h-67v-274h57v-123h-307v123h31v274h-93v-274h30v-123h-298v123h25q8 0 16 8.5t8 16.5v249h-52v131h52v19q0 85 49 121.5t138 36.5q41 0 63 -4.5
t39 -10.5v-109h-20q-24 0 -37 -8t-13 -34v-11h93v23q0 89 54 126t152 37q31 0 62 -4t54 -10h177q15 0 23.5 -12t8.5 -32v-191q29 32 66 52.5t90 20.5q38 0 73.5 -12.5t62.5 -42t43.5 -79.5t16.5 -125t-17 -129.5t-47 -90t-71 -52.5t-89 -17zM948 381q-12 0 -24.5 -2.5
t-24.5 -5.5v-239q18 -12 49 -12q16 0 30.5 6t26 21t18 42t6.5 69q0 37 -6.5 61t-17.5 37t-25.5 18t-31.5 5z" />
    <glyph glyph-name="f_f_h" unicode="ffh" horiz-adv-x="1269" 
d="M1003 328q0 29 -14.5 38t-49.5 9q-7 0 -18 -0.5t-22 -2.5v-249h58v-123h-307v123h30v460h-36q-32 0 -44.5 -8t-12.5 -32v-15h67v-131h-67v-274h30v-123h-280v123h31v274h-93v-274h30v-123h-298v123h25q8 0 16 8.5t8 16.5v249h-52v131h52v19q0 85 49 121.5t138 36.5
q41 0 63 -4.5t39 -10.5v-109h-20q-24 0 -37 -8t-13 -34v-11h93v23q0 89 54 126t152 37q31 0 62 -4t54 -10h177q15 0 23.5 -12t8.5 -32v-198q34 35 80 57.5t107 22.5q26 0 50.5 -6t43.5 -20.5t30.5 -39t11.5 -60.5v-264q0 -8 8 -16.5t16 -8.5h16v-123h-259v328z" />
    <glyph glyph-name="f_f_j" unicode="ffj" horiz-adv-x="928" 
d="M703 -170q-36 0 -61.5 4.5t-45.5 9.5v111h26q35 0 46.5 10.5t11.5 37.5v394h-93v-274h52v-123h-302v123h31v274h-93v-274h30v-123h-298v123h25q8 0 16 8.5t8 16.5v249h-52v131h52v19q0 85 49 121.5t138 36.5q41 0 63 -4.5t39 -10.5v-109h-20q-24 0 -37 -8t-13 -34v-11h93
v23q0 89 50 126t145 37q38 0 61 -4.5t42 -10.5v-114h-22q-32 0 -44.5 -8t-12.5 -34v-15h281q14 0 22.5 -14.5t8.5 -36.5v-484q0 -46 -13 -77t-37.5 -50t-61 -27.5t-84.5 -8.5zM789 549q-45 0 -73.5 25.5t-28.5 67.5q0 43 28.5 69t73.5 26t73.5 -26t28.5 -69
q0 -42 -28.5 -67.5t-73.5 -25.5z" />
    <glyph glyph-name="f_f_k" unicode="ffk" horiz-adv-x="1258" 
d="M988 120l-50 77l-39 -28v-46h44v-123h-293v123h30v460h-36q-32 0 -44.5 -8t-12.5 -32v-15h67v-131h-67v-274h30v-123h-280v123h31v274h-93v-274h30v-123h-298v123h25q8 0 16 8.5t8 16.5v249h-52v131h52v19q0 85 49 121.5t138 36.5q41 0 63 -4.5t39 -10.5v-109h-20
q-24 0 -37 -8t-13 -34v-11h93v23q0 89 54 126t152 37q31 0 62 -4t54 -10h177q15 0 23.5 -12t8.5 -32v-352l71 59q18 13 15.5 27t-21.5 14h-18v124h303v-131h-19q-17 0 -31 -14l-86 -74l97 -160q5 -10 13 -18t16 -8h13v-123h-264v120z" />
    <glyph glyph-name="f_f_t" unicode="fft" horiz-adv-x="995" 
d="M4 528h52v19q0 85 49 121.5t138 36.5q41 0 63 -4.5t39 -10.5v-109h-20q-24 0 -37 -8t-13 -34v-11h93v23q0 89 50 126t137 37q40 0 61.5 -4.5t38.5 -10.5v-114h-18q-24 0 -37 -8t-13 -34v-15h92v137h219v-137h87v-131h-87v-215q0 -34 13.5 -46.5t49.5 -12.5h27v-119
q-20 -5 -49 -10t-67 -5q-44 0 -79.5 7t-61 25t-39 48t-13.5 76v252h-92v-274h55v-123h-305v123h31v274h-93v-274h30v-123h-298v123h25q8 0 16 8.5t8 16.5v249h-52v131z" />
    <glyph glyph-name="f_igrave" unicode="f&#xec;" horiz-adv-x="644" 
d="M7 123h25q8 0 16 8.5t8 16.5v249h-52v131h52v23q0 89 49 126t141 37q35 0 57 -5t41 -10v-114h-12q-32 0 -44.5 -8t-12.5 -34v-15h281q31 0 31 -51v-329q0 -8 8 -16.5t16 -8.5h27v-123h-301v123h31v274h-93v-274h30v-123h-298v123zM361 644v56h181l10 -143h-123z" />
    <glyph glyph-name="f_iacute" unicode="f&#xed;" horiz-adv-x="644" 
d="M7 123h25q8 0 16 8.5t8 16.5v249h-52v131h52v23q0 89 50 126t145 37q38 0 61 -4.5t42 -10.5v-114h-22q-32 0 -44.5 -8t-12.5 -34v-15h281q31 0 31 -51v-329q0 -8 8 -16.5t16 -8.5h27v-123h-301v123h31v274h-93v-274h30v-123h-298v123zM421 700h200v-56l-101 -87h-122z
" />
    <glyph glyph-name="f_icircumflex" unicode="f&#xee;" horiz-adv-x="644" 
d="M7 123h25q8 0 16 8.5t8 16.5v249h-52v131h52v23q0 89 48 126t127 37q38 0 61 -5t39 -10v-114h-9q-23 0 -35 -8t-12 -34v-15h281q31 0 31 -51v-329q0 -8 8 -16.5t16 -8.5h27v-123h-301v123h31v274h-93v-274h30v-123h-298v123zM345 597l60 103h133l59 -103v-40h-94l-38 47
l-39 -47h-81v40z" />
    <glyph glyph-name="f_idieresis" unicode="f&#xef;" horiz-adv-x="644" 
d="M7 123h25q8 0 16 8.5t8 16.5v249h-52v131h52v23q0 45 12.5 76t35.5 50.5t54.5 28t70.5 8.5q38 0 60.5 -4.5t36.5 -10.5v-114h-6q-23 0 -34 -8t-11 -34v-15h281q31 0 31 -51v-329q0 -8 8 -16.5t16 -8.5h27v-123h-301v123h31v274h-93v-274h30v-123h-298v123zM412 554
q-35 0 -54.5 21.5t-19.5 63.5t19.5 64t54.5 22t54.5 -22t19.5 -64t-19.5 -63.5t-54.5 -21.5zM574 554q-34 0 -54 21.5t-20 63.5t20 64t54 22t54 -22t20 -64t-20 -63.5t-54 -21.5z" />
    <glyph glyph-name="f_iogonek" unicode="f&#x12f;" horiz-adv-x="644" 
d="M337 123h31l-1 274h-92v-274h30v-123h-298v123h25q8 0 16 8.5t8 16.5v249h-52v131h52v23q0 89 50 126t145 37q38 0 61 -4.5t42 -10.5v-114h-23q-31 0 -43.5 -8t-12.5 -34v-15h281q31 0 31 -51v-329q0 -8 8 -16.5t16 -8.5h26v-123h-34q-28 -28 -28 -51q0 -12 8 -19.5
t28 -7.5h16v-77q-13 -6 -32 -10t-47 -4q-52 0 -81.5 21t-29.5 56t29 57.5t68 34.5h-197v123zM477 549q-45 0 -73.5 25.5t-28.5 67.5q0 43 28.5 69t73.5 26t73 -26t28 -69q0 -42 -28 -67.5t-73 -25.5z" />
    <glyph glyph-name="f_imacron" unicode="f&#x12b;" horiz-adv-x="644" 
d="M7 123h25q8 0 16 8.5t8 16.5v249h-52v131h52v23q0 89 48 126t127 37q38 0 61 -5t39 -10v-114h-9q-23 0 -35 -8t-12 -34v-15h281q31 0 31 -51v-329q0 -8 8 -16.5t16 -8.5h27v-123h-301v123h31v274h-93v-274h30v-123h-298v123zM348 693h259v-120h-259v120z" />
    <glyph glyph-name="f_f_igrave" unicode="ff&#xec;" horiz-adv-x="956" 
d="M7 123h25q8 0 16 8.5t8 16.5v249h-52v131h52v19q0 85 49 121.5t138 36.5q41 0 63 -4.5t39 -10.5v-109h-20q-24 0 -37 -8t-13 -33v-12h93v23q0 89 49 126t141 37q35 0 57 -5t41 -10v-114h-12q-32 0 -44.5 -8t-12.5 -34v-15h281q31 0 31 -51v-329q0 -8 8 -16.5t16 -8.5h27
v-123h-300v123h30v274h-93v-274h30v-123h-280v123h31v274h-93v-274h30v-123h-298v123zM674 644v56h180l10 -143h-123z" />
    <glyph glyph-name="f_f_iacute" unicode="ff&#xed;" horiz-adv-x="956" 
d="M7 123h25q8 0 16 8.5t8 16.5v249h-52v131h52v19q0 85 49 121.5t138 36.5q41 0 63 -4.5t39 -10.5v-109h-20q-24 0 -37 -8t-13 -33v-12h93v23q0 89 50 126t145 37q38 0 61 -4.5t42 -10.5v-114h-22q-32 0 -44.5 -8t-12.5 -34v-15h281q31 0 31 -51v-329q0 -8 8 -16.5t16 -8.5
h27v-123h-300v123h30v274h-93v-274h30v-123h-280v123h31v274h-93v-274h30v-123h-298v123zM734 700h199v-56l-100 -87h-123z" />
    <glyph glyph-name="f_f_icircumflex" unicode="ff&#xee;" horiz-adv-x="956" 
d="M7 123h25q8 0 16 8.5t8 16.5v249h-52v131h52v19q0 85 49 121.5t138 36.5q41 0 63 -4.5t39 -10.5v-109h-20q-24 0 -37 -8t-13 -33v-12h93v23q0 89 48 126t127 37q38 0 61 -5t39 -10v-114h-8q-24 0 -36 -8t-12 -34v-15h281q31 0 31 -51v-329q0 -8 8 -16.5t16 -8.5h27v-123
h-300v123h30v274h-93v-274h30v-123h-280v123h31v274h-93v-274h30v-123h-298v123zM658 597l61 103h133l59 -103v-40h-94l-39 47l-38 -47h-82v40z" />
    <glyph glyph-name="f_f_idieresis" unicode="ff&#xef;" horiz-adv-x="956" 
d="M7 123h25q8 0 16 8.5t8 16.5v249h-52v131h52v19q0 85 49 121.5t138 36.5q41 0 63 -4.5t39 -10.5v-109h-20q-24 0 -37 -8t-13 -33v-12h93v23q0 45 12.5 76t35.5 50.5t55 28t70 8.5t60.5 -4.5t37.5 -10.5v-114h-7q-23 0 -34 -8t-11 -34v-15h281q31 0 31 -51v-329
q0 -8 8 -16.5t16 -8.5h27v-123h-300v123h30v274h-93v-274h30v-123h-280v123h31v274h-93v-274h30v-123h-298v123zM724 554q-35 0 -54.5 21.5t-19.5 63.5t19.5 64t54.5 22t54.5 -22t19.5 -64t-19.5 -63.5t-54.5 -21.5zM886 554q-34 0 -54 21.5t-20 63.5t20 64t54 22
q35 0 54.5 -22t19.5 -64t-19.5 -63.5t-54.5 -21.5z" />
    <glyph glyph-name="f_f_iogonek" unicode="ff&#x12f;" horiz-adv-x="956" 
d="M855 -169q-53 0 -82.5 21t-29.5 56t29 57.5t69 34.5h-191v123h30v274h-93v-274h30v-123h-280v123h31v274h-93v-274h30v-123h-298v123h25q8 0 16 8.5t8 16.5v249h-52v131h52v19q0 85 49 121.5t138 36.5q41 0 63 -4.5t39 -10.5v-109h-20q-24 0 -37 -8t-13 -33v-12h93v23
q0 89 50 126t145 37q38 0 61 -4.5t42 -10.5v-114h-22q-32 0 -44.5 -8t-12.5 -34v-15h281q31 0 31 -51v-329q0 -8 8 -16.5t16 -8.5h27v-123h-40q-29 -28 -29 -51q0 -12 8 -19.5t28 -7.5h17v-77q-13 -6 -32 -10t-47 -4zM789 549q-45 0 -73.5 25.5t-28.5 67.5q0 43 28.5 69
t73.5 26t73.5 -26t28.5 -69q0 -42 -28.5 -67.5t-73.5 -25.5z" />
    <glyph glyph-name="f_f_imacron" unicode="ff&#x12b;" horiz-adv-x="956" 
d="M7 123h25q8 0 16 8.5t8 16.5v249h-52v131h52v19q0 85 49 121.5t138 36.5q41 0 63 -4.5t39 -10.5v-109h-20q-24 0 -37 -8t-13 -33v-12h93v23q0 89 48 126t127 37q38 0 61 -5t39 -10v-114h-8q-24 0 -36 -8t-12 -34v-15h281q31 0 31 -51v-329q0 -8 8 -16.5t16 -8.5h27v-123
h-300v123h30v274h-93v-274h30v-123h-280v123h31v274h-93v-274h30v-123h-298v123zM660 693h259v-120h-259v120z" />
    <glyph glyph-name=".notdef" horiz-adv-x="253" 
 />
    <glyph glyph-name=".null" horiz-adv-x="0" 
 />
    <glyph glyph-name="nonmarkingreturn" horiz-adv-x="333" 
 />
    <glyph glyph-name="space" unicode=" " horiz-adv-x="137" 
 />
    <glyph glyph-name="exclam" unicode="!" horiz-adv-x="248" 
d="M12 572v128h221v-128l-59 -353h-104zM123 -7q-43 0 -72.5 27.5t-29.5 68.5q0 21 8 38.5t21.5 31t32.5 21t40 7.5q42 0 71.5 -28t29.5 -70q0 -20 -8 -37.5t-22 -30.5t-32 -20.5t-39 -7.5z" />
    <glyph glyph-name="quotedbl" unicode="&#x22;" horiz-adv-x="422" 
d="M223 600v100h185v-100l-40 -169h-105zM13 600v100h185v-100l-40 -169h-105z" />
    <glyph glyph-name="numbersign" unicode="#" horiz-adv-x="497" 
d="M44 550h85l22 150h118l-22 -150h62l22 150h118l-22 -150h61v-155h-84l-9 -66h61v-155h-84l-25 -174h-118l25 174h-62l-25 -174h-118l25 174h-62v155h85l9 66h-62v155zM215 329h62l9 66h-62z" />
    <glyph glyph-name="dollar" unicode="$" horiz-adv-x="554" 
d="M209 771h152v-77q48 -3 86.5 -9t71.5 -14v-168h-118q-14 27 -36.5 43.5t-65.5 16.5q-84 0 -84 -52q0 -26 27 -37t77 -24q60 -17 102.5 -35t69.5 -43.5t39 -61t12 -85.5q0 -185 -202 -216v-111h-151v106q-56 2 -97 8t-83 14v182h122q13 -32 36 -47.5t73 -15.5
q38 0 59.5 13t21.5 39q0 28 -27 39.5t-83 26.5q-41 9 -77 23t-64 38.5t-44 62t-16 94.5q0 48 14 84t39.5 62t62.5 41.5t83 22.5v80z" />
    <glyph glyph-name="percent" unicode="%" horiz-adv-x="844" 
d="M201 323q-38 0 -72.5 11.5t-61 35.5t-42.5 60.5t-16 85.5t16 85.5t42.5 60.5t61 35.5t72.5 11.5q37 0 71.5 -11.5t61 -35.5t42.5 -60.5t16 -85.5t-16 -85.5t-42.5 -60.5t-61 -35.5t-71.5 -11.5zM608 729h118l-493 -763h-118zM644 -9q-38 0 -72.5 11.5t-60.5 35.5
t-42 60.5t-16 85.5t16 85.5t42 60.5t60.5 35.5t72.5 11.5q37 0 71.5 -11.5t61 -35.5t42.5 -60.5t16 -85.5t-16 -85.5t-42.5 -60.5t-61 -35.5t-71.5 -11.5zM201 417q21 0 32 21.5t11 75.5q0 55 -11 77t-32 22q-22 0 -33 -22t-11 -77q0 -54 11 -75.5t33 -21.5zM644 85
q22 0 32.5 21.5t10.5 75.5t-10.5 76.5t-32.5 22.5t-33 -22.5t-11 -76.5t11 -75.5t33 -21.5z" />
    <glyph glyph-name="ampersand" unicode="&#x26;" horiz-adv-x="742" 
d="M295 -8q-143 0 -214.5 57.5t-71.5 152.5q0 38 11.5 68.5t31.5 54.5t47 42t57 30q-32 49 -32 117q0 44 14.5 80t44 62t72.5 40.5t100 14.5q12 0 26 -1t27 -2.5t23.5 -3.5t16.5 -4h156v-203h-148l-16 65q-5 2 -10.5 3t-16.5 1q-31 0 -44 -13t-13 -39t14 -44.5t39 -43.5
l117 -120q8 26 14.5 54t10.5 60h168v-89q-17 -39 -36 -76t-40 -70l42 -42q12 -11 19 -15.5t18 -4.5h7v-123h-199l-37 37q-40 -22 -88.5 -33.5t-109.5 -11.5zM330 133q34 0 64 12l-145 147q-8 -11 -14 -27t-6 -37q0 -43 26 -69t75 -26z" />
    <glyph glyph-name="quotesingle" unicode="'" horiz-adv-x="225" 
d="M13 600v100h198v-100l-45 -169h-108z" />
    <glyph glyph-name="parenleft" unicode="(" horiz-adv-x="330" 
d="M232 -49q-38 14 -77.5 43.5t-71.5 77.5t-52.5 117t-20.5 161q0 91 20.5 158t52.5 114.5t71.5 76t77.5 42.5h89v-115q-25 -9 -47.5 -27.5t-39 -50.5t-26 -80t-9.5 -118q0 -72 9.5 -122.5t26 -84t39 -53t47.5 -28.5v-111h-89z" />
    <glyph glyph-name="parenright" unicode=")" horiz-adv-x="330" 
d="M8 62q25 9 47.5 28.5t39 53t26.5 84t10 122.5q0 70 -10 118t-26.5 80t-39 50.5t-47.5 27.5v115h89q39 -14 78.5 -43t71.5 -76t52.5 -114.5t20.5 -157.5q0 -93 -20.5 -161.5t-52.5 -116.5t-71.5 -77.5t-78.5 -43.5h-89v111z" />
    <glyph glyph-name="asterisk" unicode="*" horiz-adv-x="394" 
d="M133 382l56 117l-79 -105l-62 -7l-36 64l36 48l135 13l-135 14l-36 48l39 65l60 -9l78 -105l-56 118l23 57h81l22 -57l-55 -118l78 105l62 9l37 -65l-36 -48l-133 -14l133 -13l36 -48l-36 -64l-62 7l-79 105l55 -117l-22 -56h-81z" />
    <glyph glyph-name="plus" unicode="+" horiz-adv-x="516" 
d="M10 422h165v177h168v-177h164v-153h-164v-177h-168v177h-165v153z" />
    <glyph glyph-name="comma" unicode="," horiz-adv-x="223" 
d="M11 -43q29 5 46 15.5t17 26.5q0 14 -11 19.5t-25 16.5q-12 10 -20.5 25t-8.5 41q0 38 27.5 62t69.5 24q43 0 75 -29t32 -89q0 -91 -51 -136t-151 -53v77z" />
    <glyph glyph-name="hyphen" unicode="-" horiz-adv-x="290" 
d="M16 372h257v-142h-257v142z" />
    <glyph glyph-name="period" unicode="." horiz-adv-x="223" 
d="M112 -7q-43 0 -72.5 27.5t-29.5 68.5q0 21 8 38.5t21.5 31t32.5 21t40 7.5t39.5 -7.5t32 -21t21.5 -31t8 -38.5q0 -20 -8 -37.5t-21.5 -30.5t-32 -20.5t-39.5 -7.5z" />
    <glyph glyph-name="slash" unicode="/" horiz-adv-x="363" 
d="M233 741h138l-242 -790h-138z" />
    <glyph glyph-name="zero" unicode="0" horiz-adv-x="688" 
d="M343 -11q-69 0 -129.5 23t-106 69t-71.5 113t-26 156q0 88 27 155.5t72.5 113.5t106 69t127.5 23t128 -23t106.5 -69t72.5 -113.5t27 -155.5q0 -89 -26 -156t-71.5 -113t-106.5 -69t-130 -23zM343 136q48 0 71 49.5t23 160.5q0 110 -23.5 158.5t-70.5 48.5
q-48 0 -70.5 -48t-22.5 -159t22.5 -160.5t70.5 -49.5z" />
    <glyph glyph-name="one" unicode="1" horiz-adv-x="420" 
d="M16 123h57q9 0 18.5 10.5t9.5 18.5v371l-55 -31h-37v132l152 76h174v-548q0 -8 9.5 -18.5t17.5 -10.5h49v-123h-395v123z" />
    <glyph glyph-name="two" unicode="2" horiz-adv-x="558" 
d="M11 85q0 49 12.5 87t35 69t53.5 57t67 50l51 34q23 16 41 32t28.5 33t10.5 38q0 30 -16.5 46.5t-46.5 16.5q-35 0 -59 -18.5t-37 -41.5h-114v184q46 16 105.5 27.5t139.5 11.5q265 0 265 -205q0 -48 -13.5 -83.5t-36 -62.5t-52 -48t-61.5 -39l-52 -30q-27 -14 -49 -28
t-37.5 -29.5t-21.5 -31.5h157l17 56h137v-210h-524v85z" />
    <glyph glyph-name="three" unicode="3" horiz-adv-x="551" 
d="M237 -11q-78 0 -132 10t-96 27v163h118q13 -20 35 -36t60 -16q36 0 58 18.5t22 54.5q0 73 -87 73h-62v134h57q47 0 69.5 18.5t22.5 52.5q0 29 -16.5 46.5t-52.5 17.5q-35 0 -56.5 -13t-35.5 -33h-111v168q46 16 107.5 26.5t127.5 10.5q60 0 108.5 -11t83 -33.5t53 -57.5
t18.5 -83q0 -72 -38 -112t-108 -54v-4q81 -11 120 -50.5t39 -111.5q0 -99 -80 -152t-224 -53z" />
    <glyph glyph-name="four" unicode="4" horiz-adv-x="592" 
d="M230 123h37q8 0 17.5 10.5t9.5 18.5v30h-285v156l296 362h219v-383h59v-135h-59v-30q0 -8 9.5 -18.5t18.5 -10.5h31v-123h-353v123zM152 317h150v187h-4l-146 -183v-4z" />
    <glyph glyph-name="five" unicode="5" horiz-adv-x="548" 
d="M237 -11q-78 0 -132.5 11.5t-95.5 28.5v162h118q13 -23 35.5 -38.5t60.5 -15.5q36 0 59 21t23 66q0 42 -21.5 62.5t-53.5 20.5q-33 0 -50.5 -11t-29.5 -23h-127v427h478v-199h-137l-15 40h-167v-134h3q18 17 51 30t87 13q45 0 84 -13t68 -40.5t46 -69.5t17 -100
q0 -114 -77.5 -176t-223.5 -62z" />
    <glyph glyph-name="six" unicode="6" horiz-adv-x="629" 
d="M329 -11q-71 0 -130 20t-101 62t-65 107.5t-23 156.5q0 179 94.5 277.5t286.5 98.5q63 0 111.5 -6.5t74.5 -14.5v-169h-109q-13 10 -32 19.5t-57 9.5q-60 0 -91 -40t-39 -120q27 26 66.5 41.5t92.5 15.5q45 0 83.5 -13t66.5 -39t44 -65t16 -92q0 -57 -19.5 -103
t-57 -78.5t-91 -50t-121.5 -17.5zM316 312q-20 0 -37.5 -4t-31.5 -9q1 -49 5.5 -82t13 -52.5t22 -27.5t32.5 -8q38 0 53 26.5t15 70.5q0 45 -17 65.5t-55 20.5z" />
    <glyph glyph-name="seven" unicode="7" horiz-adv-x="538" 
d="M82 95l297 435v4h-214l-19 -74h-137v240h520v-177l-214 -523h-233v95z" />
    <glyph glyph-name="eight" unicode="8" horiz-adv-x="631" 
d="M315 -11q-147 0 -226 56.5t-79 153.5q0 67 35 109t105 63v4q-115 37 -115 147q0 44 21 79t58.5 59.5t89 37.5t111.5 13t111 -13t88.5 -37.5t58.5 -59.5t21 -79q0 -111 -113 -147v-4q69 -21 104 -63t35 -109q0 -97 -79 -153.5t-226 -56.5zM315 130q41 0 59 26t18 63
q0 38 -18 64t-59 26q-42 0 -60 -26t-18 -64q0 -37 18 -63t60 -26zM315 426q31 0 46.5 19.5t15.5 51.5t-15.5 52.5t-46.5 20.5q-32 0 -47.5 -20.5t-15.5 -52.5t15.5 -51.5t47.5 -19.5z" />
    <glyph glyph-name="nine" unicode="9" horiz-adv-x="629" 
d="M234 -11q-63 0 -116 7.5t-79 15.5v163h109q14 -12 36.5 -21t62.5 -9q63 0 94 38.5t38 119.5q-27 -23 -67 -38.5t-88 -15.5q-47 0 -86 14t-67.5 41t-44.5 68t-16 95t20.5 99t58 77.5t91 50t119.5 17.5q72 0 131 -19t101 -61t65 -107.5t23 -158.5q0 -186 -93.5 -281
t-291.5 -95zM312 383q20 0 37 4t31 9q-1 51 -5.5 84t-13 52.5t-22 27t-31.5 7.5q-34 0 -51 -26t-17 -72q0 -42 17.5 -64t54.5 -22z" />
    <glyph glyph-name="colon" unicode=":" horiz-adv-x="221" 
d="M110 -7q-42 0 -70.5 27t-28.5 67q0 20 7.5 37.5t21 30.5t31.5 20.5t39 7.5t39 -7.5t31.5 -20.5t21 -30.5t7.5 -37.5t-7.5 -37t-21 -30t-31.5 -20t-39 -7zM110 275q-42 0 -70.5 27t-28.5 67q0 41 28.5 68t70.5 27t70.5 -27t28.5 -68q0 -20 -7.5 -37t-21 -30t-31.5 -20
t-39 -7z" />
    <glyph glyph-name="semicolon" unicode=";" horiz-adv-x="221" 
d="M110 275q-42 0 -70.5 27t-28.5 67q0 41 28.5 68t70.5 27t70.5 -27t28.5 -68q0 -20 -7.5 -37t-21 -30t-31.5 -20t-39 -7zM11 -41q29 5 45.5 15t16.5 25q0 14 -11 19t-24 16q-12 10 -20 24.5t-8 40.5q0 38 26.5 61t67.5 23q43 0 74 -28.5t31 -86.5q0 -90 -50.5 -134
t-147.5 -52v77z" />
    <glyph glyph-name="less" unicode="&#x3c;" horiz-adv-x="448" 
d="M10 268v123l373 189h52v-157l-205 -93v-3l205 -95v-154h-52z" />
    <glyph glyph-name="equal" unicode="=" horiz-adv-x="492" 
d="M16 484h460v-147h-460v147zM16 281h460v-148h-460v148z" />
    <glyph glyph-name="greater" unicode="&#x3e;" horiz-adv-x="448" 
d="M13 235l205 93v3l-205 95v154h51l373 -190v-123l-373 -189h-51v157z" />
    <glyph glyph-name="question" unicode="?" horiz-adv-x="472" 
d="M119 219q-14 64 1.5 106.5t52.5 80.5l21 22q12 12 22 25t16.5 27.5t6.5 29.5q0 25 -12 39t-35 14q-25 0 -39 -15.5t-24 -35.5h-119v164q44 17 91 26t113 9q128 0 188 -51.5t60 -142.5q0 -36 -10 -63.5t-27 -48.5t-39 -37.5t-46 -31.5l-38 -26q-18 -12 -30 -25.5t-18 -29
t-4 -36.5h-131zM191 -7q-43 0 -72.5 27.5t-29.5 68.5q0 21 8 38.5t21.5 31t32.5 21t40 7.5t39.5 -7.5t32 -21t21.5 -31t8 -38.5q0 -20 -8 -37.5t-21.5 -30.5t-32 -20.5t-39.5 -7.5z" />
    <glyph glyph-name="at" unicode="@" horiz-adv-x="867" 
d="M327 70q-56 0 -89 34t-33 99q0 56 19.5 104.5t49.5 83.5q27 29 61.5 45.5t79.5 16.5q35 0 59.5 -12t41.5 -32q14 15 30 26.5t30 11.5h99l-55 -242q-6 -27 -1.5 -41.5t24.5 -14.5t41 11.5t38 34.5t27.5 58.5t10.5 83.5q0 61 -24 108.5t-65.5 80.5t-98.5 50t-123 17
q-63 0 -123 -21.5t-107 -65t-75.5 -110t-28.5 -156.5q0 -80 25.5 -137t69.5 -93t103 -53t127 -17q75 0 133.5 15.5t103.5 44.5h50v-58q-49 -35 -124.5 -55.5t-162.5 -20.5q-78 0 -154 21.5t-135 67t-95.5 116.5t-36.5 169q0 104 39.5 183.5t101.5 133.5t138.5 82t150.5 28
q76 0 148.5 -22t128 -64t89.5 -103.5t34 -140.5q0 -70 -21 -121t-57.5 -84t-85 -49t-102.5 -16q-58 0 -89 17.5t-43 48.5q-20 -24 -51 -43.5t-73 -19.5zM407 169q19 0 36 11l39 168q-5 2 -12 3t-15 1q-20 0 -35 -12t-25.5 -32t-16 -46t-5.5 -54q0 -39 34 -39z" />
    <glyph glyph-name="A" unicode="A" 
d="M8 123h13q12 0 22.5 8.5t15.5 22.5l138 391q3 8 -2.5 17.5t-15.5 9.5h-33v128h377l175 -554q3 -8 12.5 -15.5t17.5 -7.5h16v-123h-356v123h78l-26 91h-197q-14 -46 -7.5 -68.5t43.5 -22.5h26v-123h-297v123zM278 320h131l-59 206h-2z" />
    <glyph glyph-name="B" unicode="B" horiz-adv-x="665" 
d="M9 124h29q9 0 18.5 10.5t9.5 18.5v392q0 8 -9.5 18t-18.5 10h-29v127h339q141 0 214 -44.5t73 -136.5q0 -66 -36.5 -100t-102.5 -50v-4q78 -12 119 -52t41 -112q0 -51 -21 -88.5t-61 -62.5t-96.5 -37.5t-126.5 -12.5h-342v124zM336 129q47 0 66 21t19 65q0 43 -19 62.5
t-66 19.5h-40v-168h40zM296 419h36q42 0 60 19t18 56t-17.5 55.5t-59.5 18.5h-37v-149z" />
    <glyph glyph-name="C" unicode="C" horiz-adv-x="643" 
d="M369 -11q-177 0 -268 90t-91 264q0 89 23.5 158t68 115.5t108 70.5t144.5 24q35 0 65 -3t52 -8h159v-250h-149l-23 101q-11 3 -25 5t-30 2q-32 0 -58 -10.5t-45 -34.5t-29 -63.5t-10 -96.5q0 -107 30 -159t99 -52q42 0 73.5 21t53.5 49h116v-151q-48 -32 -116.5 -52
t-147.5 -20z" />
    <glyph glyph-name="D" unicode="D" horiz-adv-x="732" 
d="M9 123h29q9 0 18.5 10.5t9.5 18.5v392q0 8 -9.5 18t-18.5 10h-29v128h327q199 0 292.5 -84.5t93.5 -260.5q0 -175 -95.5 -265t-297.5 -90h-320v123zM329 129q77 0 115 52.5t38 164.5t-37.5 164.5t-115.5 52.5h-29v-434h29z" />
    <glyph glyph-name="E" unicode="E" horiz-adv-x="626" 
d="M9 123h29q9 0 18.5 10.5t9.5 18.5v392q0 8 -9.5 18t-18.5 10h-29v128h596v-227h-135l-20 89h-150v-134h161v-142h-161v-152h154l19 106h141v-240h-605v123z" />
    <glyph glyph-name="F" unicode="F" horiz-adv-x="608" 
d="M9 123h29q9 0 18.5 10.5t9.5 18.5v392q0 8 -9.5 18t-18.5 10h-29v128h590v-239h-135l-20 101h-144v-157h160v-145h-160v-137h74v-123h-365v123z" />
    <glyph glyph-name="G" unicode="G" horiz-adv-x="697" 
d="M360 -11q-180 0 -265 90.5t-85 263.5q0 180 90.5 274t257.5 94q33 0 64.5 -3t52.5 -8h159v-243h-150l-23 94q-10 2 -25.5 4.5t-32.5 2.5q-33 0 -59 -10.5t-44.5 -34.5t-28.5 -63t-10 -96q0 -107 26 -163t93 -56q29 0 48 4v97h-49v122h314v-125h-15q-9 0 -18.5 -10
t-9.5 -18v-205h-116q-3 6 -7 10t-9 7t-12 3q-24 -14 -64 -22.5t-82 -8.5z" />
    <glyph glyph-name="H" unicode="H" horiz-adv-x="765" 
d="M9 123h29q9 0 18.5 10.5t9.5 18.5v392q0 8 -9.5 18t-18.5 10h-29v128h351v-128h-60v-158h165v158h-60v128h351v-128h-29q-9 0 -18.5 -10t-9.5 -18v-392q0 -8 9.5 -18.5t18.5 -10.5h29v-123h-351v123h60v172h-165v-172h60v-123h-351v123z" />
    <glyph glyph-name="I" unicode="I" horiz-adv-x="375" 
d="M9 123h34q9 0 18.5 10.5t9.5 18.5v392q0 8 -9.5 18t-18.5 10h-34v128h358v-128h-35q-8 0 -17.5 -10t-9.5 -18v-392q0 -8 9.5 -18.5t17.5 -10.5h35v-123h-358v123z" />
    <glyph glyph-name="J" unicode="J" horiz-adv-x="545" 
d="M202 -8q-62 0 -109 9.5t-84 28.5v150h112q10 -17 25.5 -29.5t40.5 -12.5q26 0 39 15.5t13 44.5v346q0 8 -9.5 18t-17.5 10h-40v128h363v-128h-34q-9 0 -18 -10t-9 -18v-326q0 -119 -65 -172.5t-207 -53.5z" />
    <glyph glyph-name="K" unicode="K" horiz-adv-x="738" 
d="M9 123h29q9 0 18.5 10.5t9.5 18.5v392q0 8 -9.5 18t-18.5 10h-29v128h344v-128h-53v-178l130 126q22 20 17 36t-30 16h-16v128h325v-128h-13q-23 0 -52 -32l-134 -135l158 -255l15 -18q7 -9 18 -9h11v-123h-282v108l-99 165l-48 -40v-110h56v-123h-347v123z" />
    <glyph glyph-name="L" unicode="L" horiz-adv-x="608" 
d="M9 123h29q9 0 18.5 10.5t9.5 18.5v392q0 8 -9.5 18t-18.5 10h-29v128h370v-128h-79v-438h138l19 124h143v-258h-591v123z" />
    <glyph glyph-name="M" unicode="M" horiz-adv-x="939" 
d="M9 123h29q9 0 18.5 10.5t9.5 18.5v392q0 8 -9.5 18t-18.5 10h-29v128h378l80 -323h3l81 323h380v-128h-30q-8 0 -17.5 -10t-9.5 -18v-392q0 -8 9.5 -18.5t17.5 -10.5h30v-123h-341v123h56v384h-3l-137 -507h-134l-136 507h-3v-384h60v-123h-284v123z" />
    <glyph glyph-name="N" unicode="N" horiz-adv-x="732" 
d="M9 123h29q9 0 18.5 10.5t9.5 18.5v392q0 8 -9.5 18t-18.5 10h-29v128h281l209 -361h3v233h-61v128h282v-128h-26q-8 0 -17.5 -10t-9.5 -18v-544h-203l-231 397h-3v-274h64v-123h-288v123z" />
    <glyph glyph-name="O" unicode="O" horiz-adv-x="745" 
d="M372 -11q-77 0 -143 24t-115 69.5t-76.5 113t-27.5 154.5t28.5 154.5t77.5 113t115 69.5t141 24t141 -24t115 -69.5t77.5 -113t28.5 -154.5t-27.5 -154.5t-76.5 -113t-115 -69.5t-143 -24zM372 136q54 0 88 52t34 158t-34 156.5t-88 50.5q-55 0 -88.5 -50.5t-33.5 -156.5
t33.5 -158t88.5 -52z" />
    <glyph glyph-name="P" unicode="P" horiz-adv-x="659" 
d="M9 123h29q9 0 18.5 10.5t9.5 18.5v392q0 8 -9.5 18t-18.5 10h-29v128h341q154 0 227 -53.5t73 -171.5q0 -117 -78.5 -171t-231.5 -54h-40v-127h74v-123h-365v123zM294 374h40q46 0 63.5 27t17.5 68q0 42 -17 68t-64 26h-40v-189z" />
    <glyph glyph-name="Q" unicode="Q" horiz-adv-x="745" 
d="M589 -117q-29 42 -83.5 68t-145.5 38q-80 10 -144.5 35t-110.5 68.5t-70.5 107t-24.5 150.5t28.5 154.5t77.5 113t115 69.5t141 24t141 -24t115 -69.5t77.5 -113t28.5 -154.5q0 -110 -49 -174.5t-130 -92.5v-4q83 -10 130 -30t71 -43v-123h-167zM372 136q54 0 88 52
t34 158t-34 156.5t-88 50.5q-55 0 -88.5 -50.5t-33.5 -156.5t33.5 -158t88.5 -52z" />
    <glyph glyph-name="R" unicode="R" horiz-adv-x="708" 
d="M9 123h29q9 0 18.5 10.5t9.5 18.5v392q0 8 -9.5 18t-18.5 10h-29v128h348q154 0 225 -49.5t71 -150.5q0 -63 -32 -101.5t-104 -57.5v-4q27 -6 47.5 -15t36 -25.5t26.5 -41.5t19 -62l11 -45q3 -14 10.5 -19.5t14.5 -5.5h17v-123h-256l-23 190q-5 43 -22.5 60t-55.5 17h-42
v-144h63v-123h-354v123zM294 388h40q50 0 68 22.5t18 64.5t-18 65t-68 23h-40v-175z" />
    <glyph glyph-name="S" unicode="S" horiz-adv-x="562" 
d="M277 -11q-36 0 -64 3t-54 8h-149v221h152l20 -87q21 -7 60 -7q40 0 62.5 14.5t22.5 47.5q0 18 -8.5 29.5t-24 19.5t-37.5 14l-50 14q-38 10 -73 24.5t-62 39t-43 62t-16 94.5q0 60 19.5 102.5t54 69.5t82.5 40t104 13q48 0 77 -3t51 -8h128v-203h-150l-20 75
q-10 3 -22.5 5t-29.5 2q-42 0 -63.5 -14.5t-21.5 -46.5q0 -18 8 -29t21 -18t30 -12l37 -10q63 -17 107 -35.5t72 -44t40.5 -60.5t12.5 -85q0 -114 -66 -174.5t-207 -60.5z" />
    <glyph glyph-name="T" unicode="T" horiz-adv-x="676" 
d="M160 123h33q9 0 18.5 10.5t9.5 18.5v414h-56l-15 -129h-139v263h654v-263h-138l-16 129h-56v-414q0 -8 9.5 -18.5t18.5 -10.5h33v-123h-356v123z" />
    <glyph glyph-name="U" unicode="U" horiz-adv-x="726" 
d="M366 -8q-304 0 -304 263v289q0 8 -9.5 18t-18.5 10h-25v128h356v-128h-69v-329q0 -56 23 -81t73 -25q51 0 74 25t23 81v329h-69v128h297v-128h-25q-8 0 -17.5 -10t-9.5 -18v-289q0 -263 -299 -263z" />
    <glyph glyph-name="V" unicode="V" horiz-adv-x="740" 
d="M54 550q-4 9 -12.5 15.5t-16.5 6.5h-16v128h344v-128h-67l108 -348h3l89 273q12 37 4 56t-43 19h-20v128h304v-128h-12q-11 0 -22 -9.5t-16 -20.5l-198 -542h-235z" />
    <glyph glyph-name="W" unicode="W" horiz-adv-x="1016" 
d="M52 550q-3 8 -12 15t-18 7h-13v128h342v-128h-62l62 -284h2l99 412h166l98 -412h3l51 209q11 38 3 56.5t-42 18.5h-15v128h292v-128h-10q-11 0 -22.5 -9t-15.5 -21l-141 -542h-229l-85 350h-2l-85 -350h-230z" />
    <glyph glyph-name="X" unicode="X" horiz-adv-x="715" 
d="M9 123h19q10 0 20 5.5t16 13.5l142 199l-143 203q-11 16 -20.5 22t-18.5 6h-15v128h349v-121h-52l84 -123l46 67q19 26 10.5 41t-29.5 15h-15v121h305v-128h-19q-10 0 -21 -7t-17 -15l-138 -196l141 -203q21 -28 43 -28h11v-123h-350v117h53l-87 124l-48 -72
q-14 -21 -9 -36.5t31 -15.5h15v-117h-303v123z" />
    <glyph glyph-name="Y" unicode="Y" horiz-adv-x="693" 
d="M169 123h34q9 0 18 10.5t9 18.5v113l-176 286q-5 8 -13 14.5t-16 6.5h-16v128h336v-128h-61l94 -163h3l59 102q17 28 9 44.5t-41 16.5h-16v128h292v-128h-10q-11 0 -21.5 -9t-17.5 -20l-171 -273v-118q0 -8 9.5 -18.5t18.5 -10.5h34v-123h-357v123z" />
    <glyph glyph-name="Z" unicode="Z" horiz-adv-x="592" 
d="M9 153l321 405v4h-148l-19 -84h-135v222h555v-157l-321 -405v-4h160l19 98h142v-232h-574v153z" />
    <glyph glyph-name="bracketleft" unicode="[" horiz-adv-x="289" 
d="M15 741h265v-128h-82v-539h82v-123h-265v790z" />
    <glyph glyph-name="backslash" unicode="\" horiz-adv-x="363" 
d="M-6 741h138l242 -790h-138z" />
    <glyph glyph-name="bracketright" unicode="]" horiz-adv-x="289" 
d="M8 74h83v539h-83v128h266v-790h-266v123z" />
    <glyph glyph-name="asciicircum" unicode="^" horiz-adv-x="403" 
d="M9 524l117 176h150l118 -176v-73h-117l-74 94h-3l-74 -94h-117v73z" />
    <glyph glyph-name="underscore" unicode="_" horiz-adv-x="392" 
d="M-2 -47h396v-115h-396v115z" />
    <glyph glyph-name="grave" unicode="`" horiz-adv-x="400" 
d="M49 644v56h199l24 -143h-123z" />
    <glyph glyph-name="a" unicode="a" horiz-adv-x="573" 
d="M170 -7q-33 0 -63 9t-52.5 28t-35.5 47.5t-13 66.5q0 86 56 125.5t149 39.5q29 0 51.5 -1.5t44.5 -5.5v32q0 28 -16.5 41t-54.5 13q-41 0 -64 -11.5t-39 -24.5h-91v149q42 15 104 26t143 11q125 0 181 -42.5t56 -136.5v-211q0 -8 8 -16.5t16 -8.5h17v-104
q-23 -13 -54.5 -20.5t-70.5 -7.5q-51 0 -79 16.5t-41 46.5q-29 -32 -66.5 -46.5t-85.5 -14.5zM259 116q14 0 25.5 4.5t22.5 12.5v79q-10 2 -21 3t-21 1q-26 0 -40 -11.5t-14 -40.5t14 -38.5t34 -9.5z" />
    <glyph glyph-name="b" unicode="b" horiz-adv-x="605" 
d="M373 -10q-56 0 -91.5 18.5t-57.5 47.5q-11 -23 -25 -39.5t-25 -16.5h-147v547q0 8 -8.5 16.5t-16.5 8.5h-27v128h239q14 0 22.5 -12t8.5 -32v-192q29 32 66 53t91 21q37 0 72.5 -12.5t62.5 -42t43.5 -79.5t16.5 -125t-17 -129.5t-47 -90t-71 -52.5t-89 -17zM295 381
q-12 0 -25 -2.5t-25 -5.5v-238q10 -6 21.5 -9.5t27.5 -3.5t31 6t26 21t18 42t7 69q0 37 -6.5 61t-17.5 37t-25.5 18t-31.5 5z" />
    <glyph glyph-name="c" unicode="c" horiz-adv-x="516" 
d="M305 -9q-151 0 -224.5 70t-73.5 201q0 65 20.5 116.5t59 87t94.5 54t127 18.5q62 0 109.5 -7.5t78.5 -19.5v-159h-116q-11 23 -25 35t-43 12q-41 0 -61.5 -32t-20.5 -107t20 -107t65 -32q32 0 52.5 13t34.5 31h95v-124q-32 -21 -80.5 -35.5t-111.5 -14.5z" />
    <glyph glyph-name="d" unicode="d" horiz-adv-x="639" 
d="M225 -10q-48 0 -88 15t-68.5 47.5t-44.5 84.5t-16 127t18 127t47.5 85t68 47.5t80.5 14.5q50 0 82.5 -19t58.5 -49v102h-51v128h238q15 0 23.5 -12t8.5 -32v-508q0 -7 8 -16t16 -9h24v-123h-228q-11 0 -19 13t-13 35q-23 -26 -59.5 -42t-85.5 -16zM309 124q17 0 30 4
t24 11v237q-11 3 -22.5 5t-24.5 2q-18 0 -34 -5t-27.5 -18.5t-18.5 -38t-7 -62.5q0 -40 6.5 -66t17.5 -41.5t25.5 -21.5t30.5 -6z" />
    <glyph glyph-name="e" unicode="e" horiz-adv-x="564" 
d="M226 217q5 -51 26.5 -73.5t66.5 -22.5q41 0 63.5 12.5t37.5 32.5h115v-127q-36 -20 -92 -34t-147 -14q-77 0 -132 18.5t-90 53.5t-51 85t-16 113t20 114.5t57 87.5t90 55.5t119 19.5q134 0 198.5 -65t64.5 -204q0 -19 -1 -33t-1 -19h-328zM293 413q-29 0 -45 -21t-21 -72
h126q-4 51 -17.5 72t-42.5 21z" />
    <glyph glyph-name="f" unicode="f" horiz-adv-x="363" 
d="M4 528h52v23q0 89 50 126t145 37q38 0 62.5 -4.5t44.5 -10.5v-114h-27q-31 0 -43.5 -8t-12.5 -34v-15h79v-131h-79v-249q0 -8 8 -16.5t16 -8.5h34v-123h-326v123h25q8 0 16 8.5t8 16.5v249h-52v131z" />
    <glyph glyph-name="g" unicode="g" horiz-adv-x="564" 
d="M256 -181q-74 0 -124 8t-81 24t-44 38t-13 51q0 22 9 40t22.5 31.5t30.5 23t34 15.5q-20 11 -33 29.5t-13 45.5q0 35 18 59.5t47 41.5q-78 43 -78 136q0 84 64 130t179 46q26 0 50 -2.5t46 -7.5h186v-131h-20q-5 0 -11 -4.5t-9 -9.5q0 -5 0.5 -10.5t0.5 -10.5
q0 -84 -63.5 -127.5t-179.5 -43.5q-53 0 -95 9v-7q0 -16 6 -25t26 -9h182q87 0 126 -33t39 -106q0 -45 -17 -82t-53.5 -63.5t-93.5 -41t-138 -14.5zM172 1q-1 -5 -1 -8v-6q0 -16 3.5 -26t13 -16t26 -8.5t43.5 -2.5q22 0 42 2t35.5 6.5t24.5 12t9 19.5q0 14 -9.5 20.5
t-33.5 6.5h-153zM276 290q23 0 36 16.5t13 54.5q0 39 -13 54t-36 15t-36.5 -15t-13.5 -54q0 -38 13.5 -54.5t36.5 -16.5z" />
    <glyph glyph-name="h" unicode="h" horiz-adv-x="646" 
d="M379 328q0 29 -14.5 38t-49.5 9q-7 0 -18 -0.5t-22 -2.5v-249h58v-123h-326v123h25q8 0 16 9t8 16v400q0 8 -8 16t-16 8h-28v128h239q15 0 23.5 -12t8.5 -32v-198q34 35 80 57.5t107 22.5q26 0 50.5 -6t43.5 -20.5t30.5 -39t11.5 -60.5v-264q0 -8 8 -16.5t16 -8.5h16
v-123h-259v328z" />
    <glyph glyph-name="i" unicode="i" horiz-adv-x="333" 
d="M7 123h26q8 0 16 8.5t8 16.5v224q0 7 -8 16t-16 9h-29v131h241q31 0 31 -51v-329q0 -8 8.5 -16.5t16.5 -8.5h26v-123h-320v123zM166 549q-45 0 -73 25.5t-28 67.5q0 43 28 69t73 26t73.5 -26t28.5 -69q0 -42 -28.5 -67.5t-73.5 -25.5z" />
    <glyph glyph-name="j" unicode="j" horiz-adv-x="306" 
d="M80 -170q-36 0 -61 4.5t-45 9.5v111h26q34 0 45.5 10.5t11.5 37.5v369q0 7 -8 16t-16 9h-29v131h241q15 0 23 -14.5t8 -36.5v-484q0 -46 -12.5 -77t-37.5 -50t-61.5 -27.5t-84.5 -8.5zM166 549q-45 0 -73 25.5t-28 67.5q0 43 28 69t73 26t73.5 -26t28.5 -69
q0 -42 -28.5 -67.5t-73.5 -25.5z" />
    <glyph glyph-name="k" unicode="k" horiz-adv-x="635" 
d="M364 120l-50 78l-40 -29v-46h44v-123h-312v123h25q8 0 16.5 8.5t8.5 16.5v399q0 8 -8.5 16.5t-16.5 8.5h-27v128h239q14 0 22.5 -12t8.5 -32v-352l71 59q19 16 16 27.5t-21 11.5h-19v126h304v-131h-19q-8 0 -16.5 -4t-15.5 -10l-86 -74l97 -160q6 -10 14 -18t16 -8h12
v-123h-263v120z" />
    <glyph glyph-name="l" unicode="l" horiz-adv-x="340" 
d="M6 123h29q8 0 16 8.5t8 16.5v399q0 8 -8 16.5t-16 8.5h-31v128h242q15 0 23.5 -12t8.5 -32v-508q0 -8 8 -16.5t16 -8.5h30v-123h-326v123z" />
    <glyph glyph-name="m" unicode="m" horiz-adv-x="942" 
d="M7 123h25q8 0 16.5 9t8.5 16v224q0 7 -8.5 16t-16.5 9h-28v131h229q16 0 26 -15.5t14 -61.5q31 35 72.5 61t104.5 26q22 0 43 -4.5t39 -15t30.5 -27.5t18.5 -42q16 18 34 34t39.5 28t47.5 19.5t58 7.5q26 0 50.5 -6t43 -20.5t30 -39t11.5 -60.5v-264q0 -8 8.5 -16.5
t16.5 -8.5h16v-123h-260v329q0 15 -2 24t-7.5 14t-15.5 6.5t-27 1.5q-6 0 -17 -0.5t-22 -2.5v-249h47v-123h-265v329q0 29 -9.5 37.5t-43.5 8.5q-6 0 -17 -0.5t-22 -2.5v-249h47v-123h-315v123z" />
    <glyph glyph-name="n" unicode="n" horiz-adv-x="646" 
d="M7 123h25q8 0 16.5 9t8.5 16v224q0 8 -8.5 16.5t-16.5 8.5h-28v131h229q15 0 25 -14.5t14 -58.5q35 36 81 59.5t109 23.5q26 0 50.5 -6t43.5 -20.5t30.5 -39t11.5 -60.5v-264q0 -8 8.5 -16.5t16.5 -8.5h16v-123h-259v328q0 29 -15 38t-49 9q-7 0 -18 -0.5t-23 -2.5v-249
h59v-123h-327v123z" />
    <glyph glyph-name="o" unicode="o" horiz-adv-x="609" 
d="M304 -9q-65 0 -119.5 18.5t-94 53.5t-61.5 85t-22 113t22 114.5t61.5 87.5t94 55.5t119.5 19.5q64 0 118.5 -19.5t94 -55.5t61.5 -87.5t22 -114.5t-22 -113t-61.5 -85t-94 -53.5t-118.5 -18.5zM304 121q34 0 54.5 33.5t20.5 105.5t-20.5 104t-54.5 32q-35 0 -55.5 -32
t-20.5 -104t20.5 -105.5t55.5 -33.5z" />
    <glyph glyph-name="p" unicode="p" horiz-adv-x="632" 
d="M7 -47h25q8 0 16.5 8t8.5 16v395q0 7 -8.5 16t-16.5 9h-28v131h229q14 0 23.5 -13t14.5 -50q29 32 66.5 52.5t90.5 20.5q38 0 73.5 -12.5t62.5 -42.5t43.5 -79.5t16.5 -123.5t-18.5 -124.5t-50 -82.5t-72.5 -46t-85 -14q-43 0 -72.5 9t-50.5 26v-95h46v-115h-314v115z
M321 381q-11 0 -23 -2t-23 -5v-231q9 -5 20 -7.5t26 -2.5q16 0 30.5 5t26 19t18 39t6.5 65q0 37 -6.5 60t-17.5 36.5t-25.5 18.5t-31.5 5z" />
    <glyph glyph-name="q" unicode="q" horiz-adv-x="605" 
d="M314 -47h46v101q-23 -19 -56.5 -30t-82.5 -11q-41 0 -79 12t-68 41.5t-48 79t-18 123.5q0 73 18 124.5t48 83.5t68.5 46.5t80.5 14.5q51 0 86.5 -20t61.5 -52q11 36 28.5 49t31.5 13h147v-551q0 -8 8.5 -16t16.5 -8h26v-115h-315v115zM309 134q16 0 28 3.5t23 8.5v230
q-11 3 -22 5t-23 2q-18 0 -33.5 -5.5t-27.5 -19t-18.5 -37t-6.5 -59.5q0 -41 6.5 -66.5t17.5 -39t25.5 -18t30.5 -4.5z" />
    <glyph glyph-name="r" unicode="r" horiz-adv-x="454" 
d="M7 123h25q8 0 16.5 8.5t8.5 16.5v224q0 7 -8.5 16t-16.5 9h-28v131h229q15 0 25 -14.5t14 -57.5q25 34 55.5 56t80.5 22q7 0 14 -1t18 -5v-162h-22q-51 0 -86 -5t-57 -11v-227h55v-123h-323v123z" />
    <glyph glyph-name="s" unicode="s" horiz-adv-x="488" 
d="M227 -9q-80 0 -132 9t-87 20v147h115q12 -22 37 -34.5t55 -12.5q26 0 42.5 7.5t16.5 24.5q0 16 -17 23t-68 12q-43 5 -77 16t-57 31t-35.5 50.5t-12.5 75.5q0 91 65.5 134.5t176.5 43.5q73 0 121.5 -7.5t86.5 -19.5v-138h-114q-12 17 -32.5 27t-51.5 10q-33 0 -46 -7
t-13 -21t16 -20t63 -12q49 -6 86 -16t62 -29t37.5 -49t12.5 -76q0 -92 -59 -140.5t-191 -48.5z" />
    <glyph glyph-name="t" unicode="t" horiz-adv-x="372" 
d="M4 528h52v137h219v-137h88v-131h-88v-215q0 -34 13.5 -46.5t49.5 -12.5h27v-119q-20 -5 -49 -10t-67 -5q-44 0 -79.5 7t-60.5 25t-39 48t-14 76v252h-52v131z" />
    <glyph glyph-name="u" unicode="u" horiz-adv-x="645" 
d="M189 -9q-26 0 -51.5 6t-45 20.5t-31.5 39t-12 60.5v255q0 8 -8.5 16.5t-15.5 8.5h-21v131h264v-329q0 -31 16 -40.5t49 -9.5q6 0 16.5 1t22.5 3v244h-53v131h272v-380q0 -7 8 -16t16 -9h23v-123h-224q-15 0 -25 14.5t-15 57.5q-34 -35 -78 -58t-107 -23z" />
    <glyph glyph-name="v" unicode="v" horiz-adv-x="614" 
d="M48 374q-3 8 -12 15.5t-17 7.5h-15v131h307v-131h-49l66 -187h3l53 142q8 20 3 32.5t-27 12.5h-9v131h261v-131h-11q-11 0 -22 -9.5t-16 -21.5l-161 -366h-195z" />
    <glyph glyph-name="w" unicode="w" horiz-adv-x="855" 
d="M44 374q-3 8 -12 15.5t-17 7.5h-11v131h286v-131h-39l43 -158h2l78 289h153l78 -289h2l32 115q12 43 -25 43h-9v131h241v-131h-7q-11 0 -22.5 -9t-15.5 -22l-111 -366h-190l-76 258h-2l-77 -258h-190z" />
    <glyph glyph-name="x" unicode="x" horiz-adv-x="601" 
d="M7 123h6q11 0 21.5 9t18.5 17l92 114l-95 111q-8 9 -16 16t-16 7h-14v131h312v-124h-39l61 -69l26 33q10 12 6.5 24t-19.5 12h-3v124h242v-131h-6q-10 0 -20 -8.5t-18 -17.5l-93 -111l97 -114q8 -9 16.5 -16t16.5 -7h10v-123h-310v117h40l-63 71l-25 -31
q-12 -17 -7 -28.5t20 -11.5h3v-117h-244v123z" />
    <glyph glyph-name="y" unicode="y" horiz-adv-x="615" 
d="M71 -53q37 9 72 24.5t65 39.5l-161 363q-4 8 -12.5 15.5t-16.5 7.5h-14v131h305v-131h-53l70 -175h4l52 130q8 17 2.5 31t-25.5 14h-9v131h252v-131h-15q-8 0 -19 -10t-16 -21l-136 -286q-24 -50 -46.5 -87t-44.5 -65.5t-44 -50t-45 -39.5h-165v109z" />
    <glyph glyph-name="z" unicode="z" horiz-adv-x="521" 
d="M9 139l253 253h-105l-20 -63h-118v199h492v-143l-254 -253h113l16 62h124v-194h-501v139z" />
    <glyph glyph-name="braceleft" unicode="{" horiz-adv-x="341" 
d="M239 -49q-79 0 -118.5 37t-39.5 104v140q0 21 -13 38t-43 17h-17v128h17q30 0 43 17t13 38v133q0 64 39.5 101t120.5 37h92v-128h-41q-8 0 -17.5 -10t-9.5 -18v-121q0 -41 -23.5 -69t-80.5 -42v-3q57 -14 80.5 -42t23.5 -69v-136q0 -8 9.5 -18.5t17.5 -10.5h41v-123h-94z
" />
    <glyph glyph-name="bar" unicode="|" horiz-adv-x="170" 
d="M20 741h130v-790h-130v790z" />
    <glyph glyph-name="braceright" unicode="}" horiz-adv-x="341" 
d="M8 74h41q9 0 18.5 10.5t9.5 18.5v132q0 41 23.5 68.5t79.5 41.5v3q-56 14 -79.5 42t-23.5 69v126q0 8 -9.5 18t-18.5 10h-41v128h95q79 0 118.5 -37t39.5 -104v-134q0 -21 13 -38t43 -17h16v-127h-16q-30 0 -43 -17t-13 -38v-140q0 -64 -40 -101t-121 -37h-92v123z" />
    <glyph glyph-name="asciitilde" unicode="~" horiz-adv-x="366" 
d="M8 302q13 31 38.5 53t63.5 22q18 0 36 -3.5t34 -7.5l30 -7q14 -4 24 -4q14 0 22 7.5t13 18.5h89v-98q-12 -31 -38 -51.5t-64 -20.5q-18 0 -35.5 3.5t-33.5 8t-30 8t-24 3.5q-14 0 -22 -7.5t-13 -18.5h-90v94z" />
    <glyph glyph-name="nonbreakingspace" unicode="&#xa0;" horiz-adv-x="137" 
 />
    <glyph glyph-name="exclamdown" unicode="&#xa1;" horiz-adv-x="248" 
d="M121 449q-42 0 -71 28t-29 70q0 41 29 68.5t71 27.5q44 0 73.5 -27.5t29.5 -68.5q0 -42 -29.5 -70t-73.5 -28zM12 63l58 354h104l59 -354v-127h-221v127z" />
    <glyph glyph-name="cent" unicode="&#xa2;" horiz-adv-x="516" 
d="M214 -1q-105 20 -156 87t-51 176q0 108 53.5 176t153.5 90v81h152v-73q81 -6 130 -25v-159h-115q-11 23 -25.5 35t-43.5 12q-41 0 -61.5 -32t-20.5 -107t20 -107t65 -32q32 0 53 13t35 31h94v-124q-24 -16 -56.5 -28.5t-74.5 -17.5v-97h-152v101z" />
    <glyph glyph-name="sterling" unicode="&#xa3;" horiz-adv-x="546" 
d="M485 0q-112 0 -184.5 11t-121.5 31q-29 -23 -73 -42h-97v123q17 5 32.5 13t27 21t18 30.5t6.5 41.5q0 29 -7 57h-74v121h38q-8 26 -12.5 51t-4.5 49q0 99 71.5 151.5t200.5 52.5q69 0 125 -11t98 -25v-183h-115q-11 24 -30 40t-51 16q-29 0 -48.5 -16.5t-22.5 -51.5
q-1 -12 0 -31t3 -42h133v-121h-127q0 -66 -12 -115q61 -12 128 -12l15 58h137v-217h-53z" />
    <glyph glyph-name="yen" unicode="&#xa5;" horiz-adv-x="642" 
d="M43 399h102l-95 152q-5 8 -13 14.5t-16 6.5h-12v128h316v-128h-49l75 -140h3l44 81q14 29 6.5 44t-34.5 15h-12v128h276v-128h-11q-10 0 -21 -9t-17 -20l-89 -144h102v-87h-161v-41h161v-87h-161v-32q0 -8 9.5 -18.5t18.5 -10.5h34v-123h-357v123h34q9 0 18 10.5t9 18.5
v32h-160v87h160v41h-160v87z" />
    <glyph glyph-name="brokenbar" unicode="&#xa6;" horiz-adv-x="170" 
d="M20 308h131l-1 -357h-130v357zM20 741h130l1 -354h-131v354z" />
    <glyph glyph-name="section" unicode="&#xa7;" horiz-adv-x="570" 
d="M261 -135q-37 0 -66.5 3t-54 8t-44.5 11t-38 12v145h126q10 -25 27.5 -40t51.5 -15q31 0 44.5 11.5t13.5 29.5q0 10 -3.5 17.5t-14 14t-29.5 12.5t-49 14q-54 14 -94.5 29t-67.5 35.5t-40 49.5t-13 70q0 51 24.5 84.5t66.5 53.5q-39 40 -39 118q0 42 16.5 75.5t47 57.5
t74 37t97.5 13q37 0 65.5 -2t51.5 -6t42 -9t37 -12v-138h-125q-10 22 -25.5 33.5t-47.5 11.5q-29 0 -41.5 -10t-12.5 -26q0 -9 3 -16t12 -12.5t24.5 -11t40.5 -11.5q57 -14 102 -28.5t75.5 -34.5t46.5 -50t16 -76q0 -54 -25.5 -87.5t-69.5 -53.5q43 -42 43 -116
q0 -43 -14.5 -78.5t-44.5 -60.5t-77 -38.5t-112 -13.5zM282 333q-29 7 -53.5 14t-45.5 15q-16 -13 -16 -38q0 -11 4 -20t15 -16.5t32 -15t56 -15.5q30 -8 56 -16t48 -16q16 14 16 34q0 13 -4.5 23t-17 18.5t-34.5 16t-56 16.5z" />
    <glyph glyph-name="dieresis" unicode="&#xa8;" horiz-adv-x="400" 
d="M303 553q-41 0 -66.5 23.5t-25.5 63.5q0 39 25.5 62.5t66.5 23.5t66.5 -23.5t25.5 -62.5q0 -40 -25.5 -63.5t-66.5 -23.5zM95 553q-41 0 -66.5 23.5t-25.5 63.5q0 39 25.5 62.5t66.5 23.5t66.5 -23.5t25.5 -62.5q0 -40 -25.5 -63.5t-66.5 -23.5z" />
    <glyph glyph-name="copyright" unicode="&#xa9;" horiz-adv-x="759" 
d="M380 -8q-72 0 -136.5 23.5t-114 69t-78.5 112t-29 153.5t29 153.5t78.5 112t114 69t136.5 23.5t136.5 -23.5t113.5 -69t78 -112t29 -153.5t-29 -153.5t-78 -112t-113.5 -69t-136.5 -23.5zM380 31q65 0 121.5 21t98.5 62t66 100t24 136q0 76 -24 135.5t-66 100.5t-98.5 62
t-121.5 21t-122 -21t-99 -62t-66 -100.5t-24 -135.5q0 -77 24 -136t66 -100t99 -62t122 -21zM388 144q-105 0 -158.5 50.5t-53.5 149.5q0 103 55.5 156t146.5 53q20 0 36.5 -2t30.5 -4h97v-144h-93l-14 50q-5 2 -12 3t-14 1q-33 0 -53 -22.5t-20 -84.5q0 -58 16.5 -83.5
t50.5 -25.5q23 0 38.5 10.5t27.5 26.5h74v-94q-26 -17 -68 -28.5t-87 -11.5z" />
    <glyph glyph-name="ordfeminine" unicode="&#xaa;" horiz-adv-x="486" 
d="M144 255q-27 0 -52 7.5t-44 23t-30 39.5t-11 56q0 72 46.5 104.5t124.5 32.5q24 0 43 -1.5t37 -3.5v28q0 22 -13 32.5t-45 10.5q-34 0 -53 -10t-32 -21h-78v126q36 13 88 21.5t120 8.5q106 0 152.5 -35.5t46.5 -113.5v-174q0 -6 7 -13t14 -7h13v-89q-20 -11 -47 -17.5
t-59 -6.5q-43 0 -67 13.5t-35 38.5q-23 -26 -54 -38t-72 -12zM221 356q21 0 37 13v71q-8 2 -16.5 3t-16.5 1q-43 0 -43 -46q0 -23 11 -32.5t28 -9.5z" />
    <glyph glyph-name="guillemotleft" unicode="&#xab;" horiz-adv-x="507" 
d="M17 221v77l142 182h108v-51l-87 -166v-3l87 -167v-53h-108zM240 221v77l142 182h108v-51l-87 -166v-3l87 -167v-53h-108z" />
    <glyph glyph-name="uni00AD" unicode="&#xad;" horiz-adv-x="290" 
d="M16 372h257v-142h-257v142z" />
    <glyph glyph-name="registered" unicode="&#xae;" horiz-adv-x="386" 
d="M193 350q-36 0 -69 12t-57.5 35t-39.5 56.5t-15 75.5q0 43 15 76t39.5 56t57.5 35t69 12t68.5 -12t57.5 -35t40 -56t15 -76q0 -42 -15 -75.5t-40 -56.5t-57.5 -35t-68.5 -12zM193 383q30 0 55.5 9.5t45 28t30.5 45.5t11 63t-11 63t-30.5 45.5t-45 28t-55.5 9.5
t-55.5 -9.5t-45 -28t-30.5 -45.5t-11 -63t11 -63t30.5 -45.5t45 -28t55.5 -9.5zM106 477h8q7 0 7 8v93q0 7 -7 7h-8v34h87q80 0 80 -50q0 -16 -7.5 -25t-25.5 -14v-1q13 -2 19.5 -9t11.5 -24l4 -13q1 -6 6 -6h5v-33h-69l-6 48q-2 11 -6.5 15t-15.5 4h-6v-34h17v-33h-94v33z
M181 544h9q12 0 16.5 5t4.5 15q0 9 -4.5 14t-16.5 5h-9v-39z" />
    <glyph glyph-name="macron" unicode="&#xaf;" horiz-adv-x="400" 
d="M57 693h286v-120h-286v120z" />
    <glyph glyph-name="degree" unicode="&#xb0;" horiz-adv-x="345" 
d="M172 409q-32 0 -60 10.5t-50 30t-34.5 47t-12.5 61.5q0 33 12.5 60.5t34.5 47t50 30t60 10.5q31 0 59.5 -10.5t50 -30t34 -47t12.5 -60.5q0 -34 -12.5 -61.5t-34 -47t-50 -30t-59.5 -10.5zM172 480q32 0 52.5 21.5t20.5 56.5t-20.5 56t-52.5 21t-52 -21t-20 -56t20 -56.5
t52 -21.5z" />
    <glyph glyph-name="twosuperior" unicode="&#xb2;" horiz-adv-x="341" 
d="M8 355q0 55 24.5 88t63.5 59l54 36q22 15 22 34q0 29 -35 29q-17 0 -29 -8.5t-19 -21.5h-78v115q27 9 63.5 15t90.5 6q76 0 123 -29.5t47 -89.5q0 -27 -7.5 -46t-20.5 -33.5t-29 -25.5t-33 -20q-15 -8 -30.5 -15t-29 -14.5t-23.5 -14.5t-13 -15h78l7 24h93v-125h-319v52z
" />
    <glyph glyph-name="threesuperior" unicode="&#xb3;" horiz-adv-x="342" 
d="M146 295q-50 0 -84 7t-57 15v102h79q7 -11 18.5 -20.5t31.5 -9.5q17 0 28.5 8.5t11.5 26.5q0 33 -47 33h-38v84h38q46 0 46 32q0 16 -10 24t-26 8q-17 0 -29 -7.5t-19 -17.5h-75v105q27 9 67 15.5t81 6.5q75 0 120 -25.5t45 -80.5q0 -41 -22.5 -64t-61.5 -31v-3
q92 -11 92 -90q0 -55 -47.5 -86.5t-141.5 -31.5z" />
    <glyph glyph-name="acute" unicode="&#xb4;" horiz-adv-x="400" 
d="M151 700h199v-56l-100 -87h-123z" />
    <glyph glyph-name="paragraph" unicode="&#xb6;" horiz-adv-x="563" 
d="M223 297q-47 4 -86 16.5t-67.5 36.5t-44.5 60.5t-16 87.5q0 57 19.5 96t53.5 62.5t80.5 33.5t100.5 10h292v-128h-29q-9 0 -18.5 -10t-9.5 -18v-635h-110v667h-55v-667h-110v388z" />
    <glyph glyph-name="periodcentered" unicode="&#xb7;" horiz-adv-x="235" 
d="M118 197q-43 0 -72.5 27.5t-29.5 68.5q0 21 8 38.5t21.5 31t32.5 21t40 7.5t39.5 -7.5t32 -21t21.5 -31t8 -38.5q0 -20 -8 -37.5t-21.5 -30.5t-32 -20.5t-39.5 -7.5z" />
    <glyph glyph-name="cedilla" unicode="&#xb8;" horiz-adv-x="400" 
d="M197 -175q-29 0 -52 5t-39 12v64h48q4 -5 9.5 -8.5t16.5 -3.5q20 0 20 16t-27 16h-25v74h82v-25q42 -2 62 -21t20 -52q0 -36 -30 -56.5t-85 -20.5z" />
    <glyph glyph-name="onesuperior" unicode="&#xb9;" horiz-adv-x="287" 
d="M11 386h39q5 0 10.5 5.5t5.5 9.5v177l-33 -23h-28v97l107 48h118v-299q0 -4 5.5 -9.5t10.5 -5.5h35v-83h-270v83z" />
    <glyph glyph-name="ordmasculine" unicode="&#xba;" horiz-adv-x="512" 
d="M257 254q-54 0 -100 15.5t-79 44.5t-51.5 70.5t-18.5 94.5t18.5 95.5t51.5 72.5t79 46t100 16t99.5 -16t78.5 -46t51.5 -72.5t18.5 -95.5t-18.5 -94.5t-51.5 -70.5t-78.5 -44.5t-99.5 -15.5zM257 364q28 0 44 27.5t16 86.5t-16 85t-44 26t-44.5 -26t-16.5 -85t16.5 -86.5
t44.5 -27.5z" />
    <glyph glyph-name="guillemotright" unicode="&#xbb;" horiz-adv-x="507" 
d="M17 91l87 166v3l-87 167v53h108l142 -181v-77l-142 -182h-108v51zM240 91l87 166v3l-87 167v53h109l141 -181v-77l-141 -182h-109v51z" />
    <glyph glyph-name="onequarter" unicode="&#xbc;" horiz-adv-x="802" 
d="M552 83h28q5 0 10.5 5.5t5.5 10.5v14h-163v94l168 190h155v-203h40v-81h-40v-14q0 -5 5.5 -10.5t9.5 -5.5h25v-83h-244v83zM527 194h77v88h-2l-75 -86v-2zM586 729h118l-494 -763h-118zM11 386h39q5 0 10.5 5.5t5.5 9.5v177l-33 -23h-28v97l107 48h118v-299
q0 -4 5.5 -9.5t10.5 -5.5h35v-83h-270v83z" />
    <glyph glyph-name="onehalf" unicode="&#xbd;" horiz-adv-x="842" 
d="M583 729h118l-494 -763h-118zM11 386h39q5 0 10.5 5.5t5.5 9.5v177l-33 -23h-28v97l107 48h118v-299q0 -4 5.5 -9.5t10.5 -5.5h35v-83h-270v83zM508 52q0 56 24.5 88.5t63.5 58.5l54 36q22 15 22 34q0 29 -35 29q-17 0 -29 -8.5t-19 -20.5h-78v115q27 8 63.5 14.5
t90.5 6.5q76 0 123 -30t47 -89q0 -27 -7.5 -46.5t-20.5 -34t-29 -25t-33 -20.5q-15 -8 -30.5 -15t-29 -14t-23.5 -14.5t-13 -15.5h78l7 25h93v-126h-319v52z" />
    <glyph glyph-name="threequarters" unicode="&#xbe;" horiz-adv-x="809" 
d="M559 83h28q5 0 10.5 5.5t5.5 10.5v14h-163v94l168 190h155v-203h40v-81h-40v-14q0 -5 5.5 -10.5t9.5 -5.5h25v-83h-244v83zM534 194h77v88h-2l-75 -86v-2zM599 729h118l-494 -763h-118zM146 295q-50 0 -84 7t-57 15v102h79q7 -11 18.5 -20.5t31.5 -9.5q17 0 28.5 8.5
t11.5 26.5q0 33 -47 33h-38v84h38q46 0 46 32q0 16 -10 24t-26 8q-17 0 -29 -7.5t-19 -17.5h-75v105q27 9 67 15.5t81 6.5q75 0 120 -25.5t45 -80.5q0 -41 -22.5 -64t-61.5 -31v-3q92 -11 92 -90q0 -55 -47.5 -86.5t-141.5 -31.5z" />
    <glyph glyph-name="questiondown" unicode="&#xbf;" horiz-adv-x="472" 
d="M257 -75q-127 0 -187.5 52t-60.5 142q0 36 10.5 63t27.5 48t39 37.5t46 31.5q21 14 38 26.5t29 26t18 29t4 36.5h131q13 -64 -2 -107t-51 -81l-21 -21q-12 -12 -22 -25t-17 -27.5t-7 -29.5q0 -25 12 -39t35 -14q25 0 39 15t24 35h120v-163q-44 -17 -91.5 -26t-113.5 -9z
M280 449q-21 0 -39.5 7.5t-32 21t-21.5 31t-8 38.5q0 20 8 37.5t21.5 30.5t32 20.5t39.5 7.5q43 0 72.5 -27.5t29.5 -68.5q0 -21 -8 -38.5t-21.5 -31t-32.5 -21t-40 -7.5z" />
    <glyph glyph-name="Agrave" unicode="&#xc0;" 
d="M8 123h13q12 0 22.5 8.5t15.5 22.5l138 391q3 8 -2.5 17.5t-15.5 9.5h-33v128h377l175 -554q3 -8 12.5 -15.5t17.5 -7.5h16v-123h-356v123h78l-26 91h-197q-14 -46 -7.5 -68.5t43.5 -22.5h26v-123h-297v123zM278 320h131l-59 206h-2zM203 815v56h199l24 -143h-123z" />
    <glyph glyph-name="Aacute" unicode="&#xc1;" 
d="M8 123h13q12 0 22.5 8.5t15.5 22.5l138 391q3 8 -2.5 17.5t-15.5 9.5h-33v128h377l175 -554q3 -8 12.5 -15.5t17.5 -7.5h16v-123h-356v123h78l-26 91h-197q-14 -46 -7.5 -68.5t43.5 -22.5h26v-123h-297v123zM278 320h131l-59 206h-2zM305 871h199v-56l-100 -87h-123z" />
    <glyph glyph-name="Acircumflex" unicode="&#xc2;" 
d="M8 123h13q12 0 22.5 8.5t15.5 22.5l138 391q3 8 -2.5 17.5t-15.5 9.5h-33v128h377l175 -554q3 -8 12.5 -15.5t17.5 -7.5h16v-123h-356v123h78l-26 91h-197q-14 -46 -7.5 -68.5t43.5 -22.5h26v-123h-297v123zM278 320h131l-59 206h-2zM203 768l72 103h159l70 -103v-40h-94
l-62 44l-61 -44h-84v40z" />
    <glyph glyph-name="Atilde" unicode="&#xc3;" 
d="M8 123h13q12 0 22.5 8.5t15.5 22.5l138 391q3 8 -2.5 17.5t-15.5 9.5h-33v128h377l175 -554q3 -8 12.5 -15.5t17.5 -7.5h16v-123h-356v123h78l-26 91h-197q-14 -46 -7.5 -68.5t43.5 -22.5h26v-123h-297v123zM278 320h131l-59 206h-2zM186 813q12 26 38.5 43.5t64.5 17.5
q16 0 32 -3t31 -7t28 -7t23 -3q14 0 21.5 6.5t12.5 17.5h85v-86q-12 -26 -38.5 -43.5t-64.5 -17.5q-16 0 -32 3.5t-31 7.5l-28 8q-13 3 -23 3q-14 0 -21.5 -6.5t-11.5 -17.5h-86v84z" />
    <glyph glyph-name="Adieresis" unicode="&#xc4;" 
d="M8 123h13q12 0 22.5 8.5t15.5 22.5l138 391q3 8 -2.5 17.5t-15.5 9.5h-33v128h377l175 -554q3 -8 12.5 -15.5t17.5 -7.5h16v-123h-356v123h78l-26 91h-197q-14 -46 -7.5 -68.5t43.5 -22.5h26v-123h-297v123zM278 320h131l-59 206h-2zM457 724q-41 0 -66.5 23.5
t-25.5 63.5q0 39 25.5 62.5t66.5 23.5t66.5 -23.5t25.5 -62.5q0 -40 -25.5 -63.5t-66.5 -23.5zM249 724q-41 0 -66.5 23.5t-25.5 63.5q0 39 25.5 62.5t66.5 23.5t66.5 -23.5t25.5 -62.5q0 -40 -25.5 -63.5t-66.5 -23.5z" />
    <glyph glyph-name="Aring" unicode="&#xc5;" 
d="M8 123h13q12 0 22.5 8.5t15.5 22.5l138 391q3 8 -2.5 17.5t-15.5 9.5h-33v128h377l175 -554q3 -8 12.5 -15.5t17.5 -7.5h16v-123h-356v123h78l-26 91h-197q-14 -46 -7.5 -68.5t43.5 -22.5h26v-123h-297v123zM278 320h131l-59 206h-2zM354 729q-22 0 -41.5 7t-34.5 20.5
t-24 32.5t-9 43t9 43t24 32.5t34.5 20.5t41.5 7t41.5 -7t34.5 -20.5t24 -32.5t9 -43t-9 -43t-24 -32.5t-34.5 -20.5t-41.5 -7zM354 786q20 0 32.5 12.5t12.5 33.5q0 22 -12.5 34t-32.5 12t-32 -12t-12 -34q0 -21 12 -33.5t32 -12.5z" />
    <glyph glyph-name="AE" unicode="&#xc6;" horiz-adv-x="1004" 
d="M680 286v-152h153l18 106h142v-240h-601v123h54v91h-187q-23 -42 -15 -66.5t46 -24.5h21v-123h-303v123h18q24 0 40 31l206 391q5 8 0 17.5t-16 9.5h-35v128h763v-227h-135l-20 89h-149v-134h160v-142h-160zM314 320h132v242h-6z" />
    <glyph glyph-name="Ccedilla" unicode="&#xc7;" horiz-adv-x="643" 
d="M349 -175q-29 0 -52 5t-39 12v64h48q4 -5 9.5 -8.5t16.5 -3.5q20 0 20 16t-27 16h-25v67q-143 17 -216.5 106t-73.5 244q0 89 23.5 158t68 115.5t108 70.5t144.5 24q35 0 65 -3t52 -8h159v-250h-149l-23 101q-11 3 -25 5t-30 2q-32 0 -58 -10.5t-45 -34.5t-29 -63.5
t-10 -96.5q0 -107 30 -159t99 -52q42 0 73.5 21t53.5 49h116v-151q-46 -30 -111 -50t-140 -22v-14q42 -2 62 -21t20 -52q0 -36 -30 -56.5t-85 -20.5z" />
    <glyph glyph-name="Egrave" unicode="&#xc8;" horiz-adv-x="626" 
d="M9 123h29q9 0 18.5 10.5t9.5 18.5v392q0 8 -9.5 18t-18.5 10h-29v128h596v-227h-135l-20 89h-150v-134h161v-142h-161v-152h154l19 106h141v-240h-605v123zM165 815v56h199l24 -143h-123z" />
    <glyph glyph-name="Eacute" unicode="&#xc9;" horiz-adv-x="626" 
d="M267 871h199v-56l-100 -87h-123zM9 123h29q9 0 18.5 10.5t9.5 18.5v392q0 8 -9.5 18t-18.5 10h-29v128h596v-227h-135l-20 89h-150v-134h161v-142h-161v-152h154l19 106h141v-240h-605v123z" />
    <glyph glyph-name="Ecircumflex" unicode="&#xca;" horiz-adv-x="626" 
d="M165 768l72 103h159l70 -103v-40h-94l-62 44l-61 -44h-84v40zM9 123h29q9 0 18.5 10.5t9.5 18.5v392q0 8 -9.5 18t-18.5 10h-29v128h596v-227h-135l-20 89h-150v-134h161v-142h-161v-152h154l19 106h141v-240h-605v123z" />
    <glyph glyph-name="Edieresis" unicode="&#xcb;" horiz-adv-x="626" 
d="M419 724q-41 0 -66.5 23.5t-25.5 63.5q0 39 25.5 62.5t66.5 23.5t66.5 -23.5t25.5 -62.5q0 -40 -25.5 -63.5t-66.5 -23.5zM211 724q-41 0 -66.5 23.5t-25.5 63.5q0 39 25.5 62.5t66.5 23.5t66.5 -23.5t25.5 -62.5q0 -40 -25.5 -63.5t-66.5 -23.5zM9 123h29q9 0 18.5 10.5
t9.5 18.5v392q0 8 -9.5 18t-18.5 10h-29v128h596v-227h-135l-20 89h-150v-134h161v-142h-161v-152h154l19 106h141v-240h-605v123z" />
    <glyph glyph-name="Igrave" unicode="&#xcc;" horiz-adv-x="375" 
d="M9 123h34q9 0 18.5 10.5t9.5 18.5v392q0 8 -9.5 18t-18.5 10h-34v128h358v-128h-35q-8 0 -17.5 -10t-9.5 -18v-392q0 -8 9.5 -18.5t17.5 -10.5h35v-123h-358v123zM38 815v56h199l24 -143h-123z" />
    <glyph glyph-name="Iacute" unicode="&#xcd;" horiz-adv-x="375" 
d="M9 123h34q9 0 18.5 10.5t9.5 18.5v392q0 8 -9.5 18t-18.5 10h-34v128h358v-128h-35q-8 0 -17.5 -10t-9.5 -18v-392q0 -8 9.5 -18.5t17.5 -10.5h35v-123h-358v123zM140 871h199v-56l-100 -87h-123z" />
    <glyph glyph-name="Icircumflex" unicode="&#xce;" horiz-adv-x="375" 
d="M9 123h34q9 0 18.5 10.5t9.5 18.5v392q0 8 -9.5 18t-18.5 10h-34v128h358v-128h-35q-8 0 -17.5 -10t-9.5 -18v-392q0 -8 9.5 -18.5t17.5 -10.5h35v-123h-358v123zM38 768l72 103h159l70 -103v-40h-94l-62 44l-61 -44h-84v40z" />
    <glyph glyph-name="Idieresis" unicode="&#xcf;" horiz-adv-x="375" 
d="M9 123h34q9 0 18.5 10.5t9.5 18.5v392q0 8 -9.5 18t-18.5 10h-34v128h358v-128h-35q-8 0 -17.5 -10t-9.5 -18v-392q0 -8 9.5 -18.5t17.5 -10.5h35v-123h-358v123zM292 724q-41 0 -66.5 23.5t-25.5 63.5q0 39 25.5 62.5t66.5 23.5t66.5 -23.5t25.5 -62.5
q0 -40 -25.5 -63.5t-66.5 -23.5zM84 724q-41 0 -66.5 23.5t-25.5 63.5q0 39 25.5 62.5t66.5 23.5t66.5 -23.5t25.5 -62.5q0 -40 -25.5 -63.5t-66.5 -23.5z" />
    <glyph glyph-name="Eth" unicode="&#xd0;" horiz-adv-x="732" 
d="M9 410h57v134q0 8 -9.5 18t-18.5 10h-29v128h327q199 0 292.5 -84.5t93.5 -260.5q0 -175 -95.5 -265t-297.5 -90h-320v123h29q9 0 18.5 10.5t9.5 18.5v136h-57v122zM329 129q77 0 115 52.5t38 164.5t-37.5 164.5t-115.5 52.5h-29v-153h95v-122h-95v-159h29z" />
    <glyph glyph-name="Ntilde" unicode="&#xd1;" horiz-adv-x="732" 
d="M9 123h29q9 0 18.5 10.5t9.5 18.5v392q0 8 -9.5 18t-18.5 10h-29v128h281l209 -361h3v233h-61v128h282v-128h-26q-8 0 -17.5 -10t-9.5 -18v-544h-203l-231 397h-3v-274h64v-123h-288v123zM210 813q12 26 38.5 43.5t64.5 17.5q16 0 32 -3t31 -7t28 -7t23 -3q14 0 21.5 6.5
t12.5 17.5h85v-86q-12 -26 -38.5 -43.5t-64.5 -17.5q-16 0 -32 3.5t-31 7.5l-28 7q-13 4 -23 4q-14 0 -21.5 -6.5t-11.5 -17.5h-86v84z" />
    <glyph glyph-name="Ograve" unicode="&#xd2;" horiz-adv-x="745" 
d="M372 -11q-77 0 -143 24t-115 69.5t-76.5 113t-27.5 154.5t28.5 154.5t77.5 113t115 69.5t141 24t141 -24t115 -69.5t77.5 -113t28.5 -154.5t-27.5 -154.5t-76.5 -113t-115 -69.5t-143 -24zM372 136q54 0 88 52t34 158t-34 156.5t-88 50.5q-55 0 -88.5 -50.5t-33.5 -156.5
t33.5 -158t88.5 -52zM220 817v56h199l24 -143h-123z" />
    <glyph glyph-name="Oacute" unicode="&#xd3;" horiz-adv-x="745" 
d="M321 873h199v-56l-100 -87h-123zM372 -11q-77 0 -143 24t-115 69.5t-76.5 113t-27.5 154.5t28.5 154.5t77.5 113t115 69.5t141 24t141 -24t115 -69.5t77.5 -113t28.5 -154.5t-27.5 -154.5t-76.5 -113t-115 -69.5t-143 -24zM372 136q54 0 88 52t34 158t-34 156.5t-88 50.5
q-55 0 -88.5 -50.5t-33.5 -156.5t33.5 -158t88.5 -52z" />
    <glyph glyph-name="Ocircumflex" unicode="&#xd4;" horiz-adv-x="745" 
d="M219 770l72 103h159l70 -103v-40h-94l-62 44l-61 -44h-84v40zM372 -11q-77 0 -143 24t-115 69.5t-76.5 113t-27.5 154.5t28.5 154.5t77.5 113t115 69.5t141 24t141 -24t115 -69.5t77.5 -113t28.5 -154.5t-27.5 -154.5t-76.5 -113t-115 -69.5t-143 -24zM372 136
q54 0 88 52t34 158t-34 156.5t-88 50.5q-55 0 -88.5 -50.5t-33.5 -156.5t33.5 -158t88.5 -52z" />
    <glyph glyph-name="Otilde" unicode="&#xd5;" horiz-adv-x="745" 
d="M372 -11q-77 0 -143 24t-115 69.5t-76.5 113t-27.5 154.5t28.5 154.5t77.5 113t115 69.5t141 24t141 -24t115 -69.5t77.5 -113t28.5 -154.5t-27.5 -154.5t-76.5 -113t-115 -69.5t-143 -24zM372 136q54 0 88 52t34 158t-34 156.5t-88 50.5q-55 0 -88.5 -50.5t-33.5 -156.5
t33.5 -158t88.5 -52zM202 815q12 26 38.5 43.5t64.5 17.5q16 0 32 -3t31 -7t28 -7t23 -3q14 0 21.5 6.5t12.5 17.5h85v-86q-12 -26 -38.5 -43.5t-64.5 -17.5q-16 0 -32 3.5t-31 7.5l-28 7q-13 4 -23 4q-14 0 -21.5 -6.5t-11.5 -17.5h-86v84z" />
    <glyph glyph-name="Odieresis" unicode="&#xd6;" horiz-adv-x="745" 
d="M473 726q-41 0 -66.5 23.5t-25.5 63.5q0 39 25.5 62.5t66.5 23.5t66.5 -23.5t25.5 -62.5q0 -40 -25.5 -63.5t-66.5 -23.5zM265 726q-41 0 -66.5 23.5t-25.5 63.5q0 39 25.5 62.5t66.5 23.5t66.5 -23.5t25.5 -62.5q0 -40 -25.5 -63.5t-66.5 -23.5zM372 -11q-77 0 -143 24
t-115 69.5t-76.5 113t-27.5 154.5t28.5 154.5t77.5 113t115 69.5t141 24t141 -24t115 -69.5t77.5 -113t28.5 -154.5t-27.5 -154.5t-76.5 -113t-115 -69.5t-143 -24zM372 136q54 0 88 52t34 158t-34 156.5t-88 50.5q-55 0 -88.5 -50.5t-33.5 -156.5t33.5 -158t88.5 -52z" />
    <glyph glyph-name="multiply" unicode="&#xd7;" horiz-adv-x="528" 
d="M18 208l137 135l-136 134l109 108l136 -135l138 135l108 -109l-136 -134l136 -133l-107 -109l-138 135l-138 -135z" />
    <glyph glyph-name="Oslash" unicode="&#xd8;" horiz-adv-x="745" 
d="M111 85q-48 46 -74.5 112.5t-26.5 152.5q0 87 28.5 154.5t77.5 113t115 69.5t141 24q114 0 202 -53l51 63h102l-91 -112q46 -46 72 -110.5t26 -148.5q0 -87 -27.5 -154.5t-76.5 -113t-115 -69.5t-143 -24q-112 0 -198 49l-54 -67h-102zM372 136q54 0 89.5 50.5
t35.5 159.5q0 23 -1.5 44t-5.5 38l-203 -251q32 -41 85 -41zM247 346q0 -50 7 -84l202 250q-32 41 -84 41q-55 0 -90 -49t-35 -158z" />
    <glyph glyph-name="Ugrave" unicode="&#xd9;" horiz-adv-x="726" 
d="M366 -8q-304 0 -304 263v289q0 8 -9.5 18t-18.5 10h-25v128h356v-128h-69v-329q0 -56 23 -81t73 -25q51 0 74 25t23 81v329h-69v128h297v-128h-25q-8 0 -17.5 -10t-9.5 -18v-289q0 -263 -299 -263zM241 815v56h199l24 -143h-123z" />
    <glyph glyph-name="Uacute" unicode="&#xda;" horiz-adv-x="726" 
d="M343 871h199v-56l-100 -87h-123zM366 -8q-304 0 -304 263v289q0 8 -9.5 18t-18.5 10h-25v128h356v-128h-69v-329q0 -56 23 -81t73 -25q51 0 74 25t23 81v329h-69v128h297v-128h-25q-8 0 -17.5 -10t-9.5 -18v-289q0 -263 -299 -263z" />
    <glyph glyph-name="Ucircumflex" unicode="&#xdb;" horiz-adv-x="726" 
d="M241 768l72 103h159l70 -103v-40h-94l-62 44l-61 -44h-84v40zM366 -8q-304 0 -304 263v289q0 8 -9.5 18t-18.5 10h-25v128h356v-128h-69v-329q0 -56 23 -81t73 -25q51 0 74 25t23 81v329h-69v128h297v-128h-25q-8 0 -17.5 -10t-9.5 -18v-289q0 -263 -299 -263z" />
    <glyph glyph-name="Udieresis" unicode="&#xdc;" horiz-adv-x="726" 
d="M495 724q-41 0 -66.5 23.5t-25.5 63.5q0 39 25.5 62.5t66.5 23.5t66.5 -23.5t25.5 -62.5q0 -40 -25.5 -63.5t-66.5 -23.5zM287 724q-41 0 -66.5 23.5t-25.5 63.5q0 39 25.5 62.5t66.5 23.5t66.5 -23.5t25.5 -62.5q0 -40 -25.5 -63.5t-66.5 -23.5zM366 -8q-304 0 -304 263
v289q0 8 -9.5 18t-18.5 10h-25v128h356v-128h-69v-329q0 -56 23 -81t73 -25q51 0 74 25t23 81v329h-69v128h297v-128h-25q-8 0 -17.5 -10t-9.5 -18v-289q0 -263 -299 -263z" />
    <glyph glyph-name="Yacute" unicode="&#xdd;" horiz-adv-x="693" 
d="M169 123h34q9 0 18 10.5t9 18.5v113l-176 286q-5 8 -13 14.5t-16 6.5h-16v128h336v-128h-61l94 -163h3l59 102q17 28 9 44.5t-41 16.5h-16v128h292v-128h-10q-11 0 -21.5 -9t-17.5 -20l-171 -273v-118q0 -8 9.5 -18.5t18.5 -10.5h34v-123h-357v123zM319 871h199v-56
l-100 -87h-123z" />
    <glyph glyph-name="Thorn" unicode="&#xde;" horiz-adv-x="659" 
d="M9 123h29q9 0 18.5 10.5t9.5 18.5v392q0 8 -9.5 18t-18.5 10h-29v128h351v-128h-60v-36h86q63 0 112.5 -8.5t83 -29.5t51 -56t17.5 -87q0 -54 -19.5 -91t-55 -59.5t-86 -32.5t-113.5 -10h-76v-39h63v-123h-354v123zM300 420v-149h43q39 0 55.5 20t16.5 56q0 33 -16.5 53
t-55.5 20h-43z" />
    <glyph glyph-name="germandbls" unicode="&#xdf;" horiz-adv-x="700" 
d="M478 -8q-51 0 -97.5 7.5t-76.5 19.5v131h105q6 -17 18.5 -26.5t31.5 -9.5q39 0 39 31q0 19 -19.5 28.5t-60.5 24.5q-55 20 -82 50t-27 84q0 39 18 66t44 56q21 24 31 40t10 36t-14.5 33t-43.5 13q-22 0 -37 -7t-24.5 -18.5t-13.5 -27t-4 -32.5v-491h-268v123h25
q8 0 16 8.5t8 16.5v249h-52v131h52q1 37 21.5 70.5t58.5 58.5t93.5 39.5t128.5 14.5q130 0 202.5 -37.5t72.5 -115.5q0 -41 -23 -66.5t-54 -48.5q-31 -22 -44 -34t-13 -23q0 -14 11.5 -21.5t43.5 -20.5t58 -27t44 -33.5t27.5 -47t9.5 -66.5q0 -82 -56 -130t-159 -48z" />
    <glyph glyph-name="agrave" unicode="&#xe0;" horiz-adv-x="573" 
d="M170 -7q-33 0 -63 9t-52.5 28t-35.5 47.5t-13 66.5q0 86 56 125.5t149 39.5q29 0 51.5 -1.5t44.5 -5.5v32q0 28 -16.5 41t-54.5 13q-41 0 -64 -11.5t-39 -24.5h-91v149q42 15 104 26t143 11q125 0 181 -42.5t56 -136.5v-211q0 -8 8 -16.5t16 -8.5h17v-104
q-23 -13 -54.5 -20.5t-70.5 -7.5q-51 0 -79 16.5t-41 46.5q-29 -32 -66.5 -46.5t-85.5 -14.5zM259 116q14 0 25.5 4.5t22.5 12.5v79q-10 2 -21 3t-21 1q-26 0 -40 -11.5t-14 -40.5t14 -38.5t34 -9.5zM124 644v56h199l24 -143h-123z" />
    <glyph glyph-name="aacute" unicode="&#xe1;" horiz-adv-x="573" 
d="M170 -7q-33 0 -63 9t-52.5 28t-35.5 47.5t-13 66.5q0 86 56 125.5t149 39.5q29 0 51.5 -1.5t44.5 -5.5v32q0 28 -16.5 41t-54.5 13q-41 0 -64 -11.5t-39 -24.5h-91v149q42 15 104 26t143 11q125 0 181 -42.5t56 -136.5v-211q0 -8 8 -16.5t16 -8.5h17v-104
q-23 -13 -54.5 -20.5t-70.5 -7.5q-51 0 -79 16.5t-41 46.5q-29 -32 -66.5 -46.5t-85.5 -14.5zM259 116q14 0 25.5 4.5t22.5 12.5v79q-10 2 -21 3t-21 1q-26 0 -40 -11.5t-14 -40.5t14 -38.5t34 -9.5zM226 700h199v-56l-100 -87h-123z" />
    <glyph glyph-name="acircumflex" unicode="&#xe2;" horiz-adv-x="573" 
d="M170 -7q-33 0 -63 9t-52.5 28t-35.5 47.5t-13 66.5q0 86 56 125.5t149 39.5q29 0 51.5 -1.5t44.5 -5.5v32q0 28 -16.5 41t-54.5 13q-41 0 -64 -11.5t-39 -24.5h-91v149q42 15 104 26t143 11q125 0 181 -42.5t56 -136.5v-211q0 -8 8 -16.5t16 -8.5h17v-104
q-23 -13 -54.5 -20.5t-70.5 -7.5q-51 0 -79 16.5t-41 46.5q-29 -32 -66.5 -46.5t-85.5 -14.5zM259 116q14 0 25.5 4.5t22.5 12.5v79q-10 2 -21 3t-21 1q-26 0 -40 -11.5t-14 -40.5t14 -38.5t34 -9.5zM124 597l72 103h159l70 -103v-40h-94l-62 44l-61 -44h-84v40z" />
    <glyph glyph-name="atilde" unicode="&#xe3;" horiz-adv-x="573" 
d="M170 -7q-33 0 -63 9t-52.5 28t-35.5 47.5t-13 66.5q0 86 56 125.5t149 39.5q29 0 51.5 -1.5t44.5 -5.5v32q0 28 -16.5 41t-54.5 13q-41 0 -64 -11.5t-39 -24.5h-91v149q42 15 104 26t143 11q125 0 181 -42.5t56 -136.5v-211q0 -8 8 -16.5t16 -8.5h17v-104
q-23 -13 -54.5 -20.5t-70.5 -7.5q-51 0 -79 16.5t-41 46.5q-29 -32 -66.5 -46.5t-85.5 -14.5zM259 116q14 0 25.5 4.5t22.5 12.5v79q-10 2 -21 3t-21 1q-26 0 -40 -11.5t-14 -40.5t14 -38.5t34 -9.5zM107 642q12 26 38.5 43.5t64.5 17.5q16 0 32 -3t31 -7t28 -7t23 -3
q14 0 21.5 6.5t12.5 17.5h85v-86q-12 -26 -38.5 -43.5t-64.5 -17.5q-16 0 -32 3.5t-31 7.5l-28 7q-13 4 -23 4q-14 0 -21.5 -6.5t-11.5 -17.5h-86v84z" />
    <glyph glyph-name="adieresis" unicode="&#xe4;" horiz-adv-x="573" 
d="M170 -7q-33 0 -63 9t-52.5 28t-35.5 47.5t-13 66.5q0 86 56 125.5t149 39.5q29 0 51.5 -1.5t44.5 -5.5v32q0 28 -16.5 41t-54.5 13q-41 0 -64 -11.5t-39 -24.5h-91v149q42 15 104 26t143 11q125 0 181 -42.5t56 -136.5v-211q0 -8 8 -16.5t16 -8.5h17v-104
q-23 -13 -54.5 -20.5t-70.5 -7.5q-51 0 -79 16.5t-41 46.5q-29 -32 -66.5 -46.5t-85.5 -14.5zM259 116q14 0 25.5 4.5t22.5 12.5v79q-10 2 -21 3t-21 1q-26 0 -40 -11.5t-14 -40.5t14 -38.5t34 -9.5zM378 553q-41 0 -66.5 23.5t-25.5 63.5q0 39 25.5 62.5t66.5 23.5
t66.5 -23.5t25.5 -62.5q0 -40 -25.5 -63.5t-66.5 -23.5zM170 553q-41 0 -66.5 23.5t-25.5 63.5q0 39 25.5 62.5t66.5 23.5t66.5 -23.5t25.5 -62.5q0 -40 -25.5 -63.5t-66.5 -23.5z" />
    <glyph glyph-name="aring" unicode="&#xe5;" horiz-adv-x="573" 
d="M170 -7q-33 0 -63 9t-52.5 28t-35.5 47.5t-13 66.5q0 86 56 125.5t149 39.5q29 0 51.5 -1.5t44.5 -5.5v32q0 28 -16.5 41t-54.5 13q-41 0 -64 -11.5t-39 -24.5h-91v149q42 15 104 26t143 11q125 0 181 -42.5t56 -136.5v-211q0 -8 8 -16.5t16 -8.5h17v-104
q-23 -13 -54.5 -20.5t-70.5 -7.5q-51 0 -79 16.5t-41 46.5q-29 -32 -66.5 -46.5t-85.5 -14.5zM259 116q14 0 25.5 4.5t22.5 12.5v79q-10 2 -21 3t-21 1q-26 0 -40 -11.5t-14 -40.5t14 -38.5t34 -9.5zM275 558q-22 0 -41.5 7t-34.5 20.5t-24 32.5t-9 43t9 43t24 32.5
t34.5 20.5t41.5 7t41.5 -7t34.5 -20.5t24 -32.5t9 -43t-9 -43t-24 -32.5t-34.5 -20.5t-41.5 -7zM275 615q20 0 32.5 12.5t12.5 33.5q0 22 -12.5 34t-32.5 12t-32 -12t-12 -34q0 -21 12 -33.5t32 -12.5z" />
    <glyph glyph-name="ae" unicode="&#xe6;" horiz-adv-x="859" 
d="M170 -7q-33 0 -63 9t-52.5 28t-35.5 47.5t-13 66.5q0 86 56 127.5t149 41.5q29 0 52 -1.5t46 -5.5v30q0 28 -17.5 40t-55.5 12q-41 0 -64 -11.5t-39 -24.5h-91v149q42 15 100 26t130 11q113 0 168 -43q29 21 66 32t85 11q133 0 197 -65t64 -204q0 -19 -1 -31.5t-1 -20.5
h-323q5 -51 25 -73.5t65 -22.5q40 0 62 13t37 32h115v-127q-36 -20 -90 -34t-138 -14q-88 0 -146 21.5t-93 63.5q-21 -25 -43 -41t-45.5 -25.5t-49.5 -13t-56 -3.5zM325 144q-10 29 -15 67q-23 5 -45 5q-26 0 -40 -11.5t-14 -40.5t14 -38.5t34 -9.5q16 0 32.5 5.5t33.5 22.5
zM591 413q-28 0 -43.5 -21t-20.5 -72h122q-3 51 -16 72t-42 21z" />
    <glyph glyph-name="ccedilla" unicode="&#xe7;" horiz-adv-x="516" 
d="M287 -175q-29 0 -52 5t-39 12v64h48q4 -5 9.5 -8.5t16.5 -3.5q20 0 20 16t-27 16h-25v69q-117 15 -174 83.5t-57 183.5q0 65 20.5 116.5t59 87t94.5 54t127 18.5q62 0 109.5 -7.5t78.5 -19.5v-159h-116q-11 23 -25 35t-43 12q-41 0 -61.5 -32t-20.5 -107t20 -107t65 -32
q32 0 52.5 13t34.5 31h95v-124q-31 -20 -75 -34t-102 -16v-16q42 -2 62 -21t20 -52q0 -36 -30 -56.5t-85 -20.5z" />
    <glyph glyph-name="egrave" unicode="&#xe8;" horiz-adv-x="564" 
d="M226 217q5 -51 26.5 -73.5t66.5 -22.5q41 0 63.5 12.5t37.5 32.5h115v-127q-36 -20 -92 -34t-147 -14q-77 0 -132 18.5t-90 53.5t-51 85t-16 113t20 114.5t57 87.5t90 55.5t119 19.5q134 0 198.5 -65t64.5 -204q0 -19 -1 -33t-1 -19h-328zM293 413q-29 0 -45 -21t-21 -72
h126q-4 51 -17.5 72t-42.5 21zM141 644v56h199l24 -143h-123z" />
    <glyph glyph-name="eacute" unicode="&#xe9;" horiz-adv-x="564" 
d="M244 700h199v-56l-100 -87h-123zM226 217q5 -51 26.5 -73.5t66.5 -22.5q41 0 63.5 12.5t37.5 32.5h115v-127q-36 -20 -92 -34t-147 -14q-77 0 -132 18.5t-90 53.5t-51 85t-16 113t20 114.5t57 87.5t90 55.5t119 19.5q134 0 198.5 -65t64.5 -204q0 -19 -1 -33t-1 -19h-328
zM293 413q-29 0 -45 -21t-21 -72h126q-4 51 -17.5 72t-42.5 21z" />
    <glyph glyph-name="ecircumflex" unicode="&#xea;" horiz-adv-x="564" 
d="M141 597l72 103h159l70 -103v-40h-94l-62 44l-61 -44h-84v40zM226 217q5 -51 26.5 -73.5t66.5 -22.5q41 0 63.5 12.5t37.5 32.5h115v-127q-36 -20 -92 -34t-147 -14q-77 0 -132 18.5t-90 53.5t-51 85t-16 113t20 114.5t57 87.5t90 55.5t119 19.5q134 0 198.5 -65
t64.5 -204q0 -19 -1 -33t-1 -19h-328zM293 413q-29 0 -45 -21t-21 -72h126q-4 51 -17.5 72t-42.5 21z" />
    <glyph glyph-name="edieresis" unicode="&#xeb;" horiz-adv-x="564" 
d="M395 553q-41 0 -66.5 23.5t-25.5 63.5q0 39 25.5 62.5t66.5 23.5t66.5 -23.5t25.5 -62.5q0 -40 -25.5 -63.5t-66.5 -23.5zM187 553q-41 0 -66.5 23.5t-25.5 63.5q0 39 25.5 62.5t66.5 23.5t66.5 -23.5t25.5 -62.5q0 -40 -25.5 -63.5t-66.5 -23.5zM226 217
q5 -51 26.5 -73.5t66.5 -22.5q41 0 63.5 12.5t37.5 32.5h115v-127q-36 -20 -92 -34t-147 -14q-77 0 -132 18.5t-90 53.5t-51 85t-16 113t20 114.5t57 87.5t90 55.5t119 19.5q134 0 198.5 -65t64.5 -204q0 -19 -1 -33t-1 -19h-328zM293 413q-29 0 -45 -21t-21 -72h126
q-4 51 -17.5 72t-42.5 21z" />
    <glyph glyph-name="igrave" unicode="&#xec;" horiz-adv-x="333" 
d="M7 123h26q8 0 16 8.5t8 16.5v224q0 7 -8 16t-16 9h-29v131h241q31 0 31 -51v-329q0 -8 8.5 -16.5t16.5 -8.5h26v-123h-320v123zM8 644v56h199l24 -143h-123z" />
    <glyph glyph-name="iacute" unicode="&#xed;" horiz-adv-x="333" 
d="M110 700h199v-56l-100 -87h-123zM7 123h26q8 0 16 8.5t8 16.5v224q0 7 -8 16t-16 9h-29v131h241q31 0 31 -51v-329q0 -8 8.5 -16.5t16.5 -8.5h26v-123h-320v123z" />
    <glyph glyph-name="icircumflex" unicode="&#xee;" horiz-adv-x="333" 
d="M8 597l72 103h159l70 -103v-40h-94l-62 44l-61 -44h-84v40zM7 123h26q8 0 16 8.5t8 16.5v224q0 7 -8 16t-16 9h-29v131h241q31 0 31 -51v-329q0 -8 8.5 -16.5t16.5 -8.5h26v-123h-320v123z" />
    <glyph glyph-name="idieresis" unicode="&#xef;" horiz-adv-x="333" 
d="M261 553q-41 0 -66.5 23.5t-25.5 63.5q0 39 25.5 62.5t66.5 23.5t66.5 -23.5t25.5 -62.5q0 -40 -25.5 -63.5t-66.5 -23.5zM53 553q-41 0 -66.5 23.5t-25.5 63.5q0 39 25.5 62.5t66.5 23.5t66.5 -23.5t25.5 -62.5q0 -40 -25.5 -63.5t-66.5 -23.5zM7 123h26q8 0 16 8.5
t8 16.5v224q0 7 -8 16t-16 9h-29v131h241q31 0 31 -51v-329q0 -8 8.5 -16.5t16.5 -8.5h26v-123h-320v123z" />
    <glyph glyph-name="eth" unicode="&#xf0;" horiz-adv-x="609" 
d="M155 535l43 34q-14 5 -29.5 8t-32.5 7v116h101q25 -5 48.5 -11t46.5 -14l31 25h100v-31l-44 -35q85 -52 133 -137t48 -202q0 -80 -22 -137.5t-62 -94.5t-95 -54.5t-121 -17.5q-63 0 -117 17.5t-93 50.5t-61 81.5t-22 110.5t20.5 107t52.5 74t71 42.5t77 13.5
q53 0 82.5 -17t46.5 -42q-12 34 -30 58t-41 41l-31 -24h-100v31zM304 117q34 0 54.5 29t20.5 99q0 71 -20.5 102t-54.5 31q-35 0 -55.5 -31t-20.5 -102q0 -70 20.5 -99t55.5 -29z" />
    <glyph glyph-name="ntilde" unicode="&#xf1;" horiz-adv-x="646" 
d="M7 123h25q8 0 16.5 9t8.5 16v224q0 8 -8.5 16.5t-16.5 8.5h-28v131h229q15 0 25 -14.5t14 -58.5q35 36 81 59.5t109 23.5q26 0 50.5 -6t43.5 -20.5t30.5 -39t11.5 -60.5v-264q0 -8 8.5 -16.5t16.5 -8.5h16v-123h-259v328q0 29 -15 38t-49 9q-7 0 -18 -0.5t-23 -2.5v-249
h59v-123h-327v123zM158 642q12 26 38.5 43.5t64.5 17.5q16 0 32 -3t31 -7t28 -7t23 -3q14 0 21.5 6.5t12.5 17.5h85v-86q-12 -26 -38.5 -43.5t-64.5 -17.5q-16 0 -32 3.5t-31 7.5l-28 7q-13 4 -23 4q-14 0 -21.5 -6.5t-11.5 -17.5h-86v84z" />
    <glyph glyph-name="ograve" unicode="&#xf2;" horiz-adv-x="609" 
d="M304 -9q-65 0 -119.5 18.5t-94 53.5t-61.5 85t-22 113t22 114.5t61.5 87.5t94 55.5t119.5 19.5q64 0 118.5 -19.5t94 -55.5t61.5 -87.5t22 -114.5t-22 -113t-61.5 -85t-94 -53.5t-118.5 -18.5zM304 121q34 0 54.5 33.5t20.5 105.5t-20.5 104t-54.5 32q-35 0 -55.5 -32
t-20.5 -104t20.5 -105.5t55.5 -33.5zM152 644v56h199l24 -143h-123z" />
    <glyph glyph-name="oacute" unicode="&#xf3;" horiz-adv-x="609" 
d="M254 700h199v-56l-100 -87h-123zM304 -9q-65 0 -119.5 18.5t-94 53.5t-61.5 85t-22 113t22 114.5t61.5 87.5t94 55.5t119.5 19.5q64 0 118.5 -19.5t94 -55.5t61.5 -87.5t22 -114.5t-22 -113t-61.5 -85t-94 -53.5t-118.5 -18.5zM304 121q34 0 54.5 33.5t20.5 105.5
t-20.5 104t-54.5 32q-35 0 -55.5 -32t-20.5 -104t20.5 -105.5t55.5 -33.5z" />
    <glyph glyph-name="ocircumflex" unicode="&#xf4;" horiz-adv-x="609" 
d="M152 597l72 103h159l70 -103v-40h-94l-62 44l-61 -44h-84v40zM304 -9q-65 0 -119.5 18.5t-94 53.5t-61.5 85t-22 113t22 114.5t61.5 87.5t94 55.5t119.5 19.5q64 0 118.5 -19.5t94 -55.5t61.5 -87.5t22 -114.5t-22 -113t-61.5 -85t-94 -53.5t-118.5 -18.5zM304 121
q34 0 54.5 33.5t20.5 105.5t-20.5 104t-54.5 32q-35 0 -55.5 -32t-20.5 -104t20.5 -105.5t55.5 -33.5z" />
    <glyph glyph-name="otilde" unicode="&#xf5;" horiz-adv-x="609" 
d="M304 -9q-65 0 -119.5 18.5t-94 53.5t-61.5 85t-22 113t22 114.5t61.5 87.5t94 55.5t119.5 19.5q64 0 118.5 -19.5t94 -55.5t61.5 -87.5t22 -114.5t-22 -113t-61.5 -85t-94 -53.5t-118.5 -18.5zM304 121q34 0 54.5 33.5t20.5 105.5t-20.5 104t-54.5 32q-35 0 -55.5 -32
t-20.5 -104t20.5 -105.5t55.5 -33.5zM135 642q12 26 38.5 43.5t64.5 17.5q16 0 32 -3t31 -7t28 -7t23 -3q14 0 21.5 6.5t12.5 17.5h85v-86q-12 -26 -38.5 -43.5t-64.5 -17.5q-16 0 -32 3.5t-31 7.5l-28 7q-13 4 -23 4q-14 0 -21.5 -6.5t-11.5 -17.5h-86v84z" />
    <glyph glyph-name="odieresis" unicode="&#xf6;" horiz-adv-x="609" 
d="M406 553q-41 0 -66.5 23.5t-25.5 63.5q0 39 25.5 62.5t66.5 23.5t66.5 -23.5t25.5 -62.5q0 -40 -25.5 -63.5t-66.5 -23.5zM198 553q-41 0 -66.5 23.5t-25.5 63.5q0 39 25.5 62.5t66.5 23.5t66.5 -23.5t25.5 -62.5q0 -40 -25.5 -63.5t-66.5 -23.5zM304 -9
q-65 0 -119.5 18.5t-94 53.5t-61.5 85t-22 113t22 114.5t61.5 87.5t94 55.5t119.5 19.5q64 0 118.5 -19.5t94 -55.5t61.5 -87.5t22 -114.5t-22 -113t-61.5 -85t-94 -53.5t-118.5 -18.5zM304 121q34 0 54.5 33.5t20.5 105.5t-20.5 104t-54.5 32q-35 0 -55.5 -32t-20.5 -104
t20.5 -105.5t55.5 -33.5z" />
    <glyph glyph-name="divide" unicode="&#xf7;" horiz-adv-x="516" 
d="M259 444q-43 0 -72.5 27.5t-29.5 68.5q0 21 8 38.5t21.5 31t32.5 21t40 7.5q42 0 71.5 -28t29.5 -70q0 -20 -8 -37.5t-22 -30.5t-32 -20.5t-39 -7.5zM10 422h497v-153h-497v153zM259 53q-43 0 -72.5 27.5t-29.5 68.5q0 21 8 38.5t21.5 31t32.5 21t40 7.5q42 0 71.5 -28
t29.5 -70q0 -20 -8 -37.5t-22 -30.5t-32 -20.5t-39 -7.5z" />
    <glyph glyph-name="oslash" unicode="&#xf8;" horiz-adv-x="609" 
d="M94 59q-42 35 -64.5 86t-22.5 116q0 63 22 114.5t61.5 87.5t94 55.5t119.5 19.5q45 0 84 -9.5t72 -26.5l40 48h85l-71 -86q41 -36 63.5 -87.5t22.5 -115.5q0 -63 -22 -113t-61.5 -85t-94 -53.5t-118.5 -18.5q-89 0 -155 33l-43 -53h-85zM304 118q35 0 57 34t22 108
q0 12 -0.5 22.5t-1.5 20.5l-131 -158q10 -14 23.5 -20.5t30.5 -6.5zM224 260v-22q0 -10 2 -20l130 157q-21 25 -52 25q-36 0 -58 -33.5t-22 -106.5z" />
    <glyph glyph-name="ugrave" unicode="&#xf9;" horiz-adv-x="645" 
d="M189 -9q-26 0 -51.5 6t-45 20.5t-31.5 39t-12 60.5v255q0 8 -8.5 16.5t-15.5 8.5h-21v131h264v-329q0 -31 16 -40.5t49 -9.5q6 0 16.5 1t22.5 3v244h-53v131h272v-380q0 -7 8 -16t16 -9h23v-123h-224q-15 0 -25 14.5t-15 57.5q-34 -35 -78 -58t-107 -23zM164 644v56h199
l24 -143h-123z" />
    <glyph glyph-name="uacute" unicode="&#xfa;" horiz-adv-x="645" 
d="M266 700h199v-56l-100 -87h-123zM189 -9q-26 0 -51.5 6t-45 20.5t-31.5 39t-12 60.5v255q0 8 -8.5 16.5t-15.5 8.5h-21v131h264v-329q0 -31 16 -40.5t49 -9.5q6 0 16.5 1t22.5 3v244h-53v131h272v-380q0 -7 8 -16t16 -9h23v-123h-224q-15 0 -25 14.5t-15 57.5
q-34 -35 -78 -58t-107 -23z" />
    <glyph glyph-name="ucircumflex" unicode="&#xfb;" horiz-adv-x="645" 
d="M164 597l72 103h159l70 -103v-40h-94l-62 44l-61 -44h-84v40zM189 -9q-26 0 -51.5 6t-45 20.5t-31.5 39t-12 60.5v255q0 8 -8.5 16.5t-15.5 8.5h-21v131h264v-329q0 -31 16 -40.5t49 -9.5q6 0 16.5 1t22.5 3v244h-53v131h272v-380q0 -7 8 -16t16 -9h23v-123h-224
q-15 0 -25 14.5t-15 57.5q-34 -35 -78 -58t-107 -23z" />
    <glyph glyph-name="udieresis" unicode="&#xfc;" horiz-adv-x="645" 
d="M418 553q-41 0 -66.5 23.5t-25.5 63.5q0 39 25.5 62.5t66.5 23.5t66.5 -23.5t25.5 -62.5q0 -40 -25.5 -63.5t-66.5 -23.5zM210 553q-41 0 -66.5 23.5t-25.5 63.5q0 39 25.5 62.5t66.5 23.5t66.5 -23.5t25.5 -62.5q0 -40 -25.5 -63.5t-66.5 -23.5zM189 -9q-26 0 -51.5 6
t-45 20.5t-31.5 39t-12 60.5v255q0 8 -8.5 16.5t-15.5 8.5h-21v131h264v-329q0 -31 16 -40.5t49 -9.5q6 0 16.5 1t22.5 3v244h-53v131h272v-380q0 -7 8 -16t16 -9h23v-123h-224q-15 0 -25 14.5t-15 57.5q-34 -35 -78 -58t-107 -23z" />
    <glyph glyph-name="yacute" unicode="&#xfd;" horiz-adv-x="615" 
d="M71 -53q37 9 72 24.5t65 39.5l-161 363q-4 8 -12.5 15.5t-16.5 7.5h-14v131h305v-131h-53l70 -175h4l52 130q8 17 2.5 31t-25.5 14h-9v131h252v-131h-15q-8 0 -19 -10t-16 -21l-136 -286q-24 -50 -46.5 -87t-44.5 -65.5t-44 -50t-45 -39.5h-165v109zM280 700h199v-56
l-100 -87h-123z" />
    <glyph glyph-name="thorn" unicode="&#xfe;" horiz-adv-x="602" 
d="M-22 -47h25q8 0 16 8t8 16v570q0 8 -8 16.5t-16 8.5h-28v128h240q14 0 22.5 -12t8.5 -32v-187q28 30 64.5 49.5t88.5 19.5q37 0 72.5 -12.5t63.5 -42.5t44.5 -79.5t16.5 -123.5t-19 -124.5t-50.5 -82.5t-72.5 -46t-86 -14q-42 0 -71.5 9t-50.5 26v-95h46v-115h-314v115z
M292 381q-11 0 -23 -2t-23 -5v-231q9 -5 20 -7.5t25 -2.5q16 0 31.5 5t26.5 19t18 39t7 65q0 37 -6.5 60t-17.5 36.5t-26 18.5t-32 5z" />
    <glyph glyph-name="ydieresis" unicode="&#xff;" horiz-adv-x="615" 
d="M71 -53q37 9 72 24.5t65 39.5l-161 363q-4 8 -12.5 15.5t-16.5 7.5h-14v131h305v-131h-53l70 -175h4l52 130q8 17 2.5 31t-25.5 14h-9v131h252v-131h-15q-8 0 -19 -10t-16 -21l-136 -286q-24 -50 -46.5 -87t-44.5 -65.5t-44 -50t-45 -39.5h-165v109zM432 553
q-41 0 -66.5 23.5t-25.5 63.5q0 39 25.5 62.5t66.5 23.5t66.5 -23.5t25.5 -62.5q0 -40 -25.5 -63.5t-66.5 -23.5zM224 553q-41 0 -66.5 23.5t-25.5 63.5q0 39 25.5 62.5t66.5 23.5t66.5 -23.5t25.5 -62.5q0 -40 -25.5 -63.5t-66.5 -23.5z" />
    <glyph glyph-name="Amacron" unicode="&#x100;" 
d="M8 123h13q12 0 22.5 8.5t15.5 22.5l138 391q3 8 -2.5 17.5t-15.5 9.5h-33v128h377l175 -554q3 -8 12.5 -15.5t17.5 -7.5h16v-123h-356v123h78l-26 91h-197q-14 -46 -7.5 -68.5t43.5 -22.5h26v-123h-297v123zM278 320h131l-59 206h-2zM211 864h286v-120h-286v120z" />
    <glyph glyph-name="amacron" unicode="&#x101;" horiz-adv-x="573" 
d="M170 -7q-33 0 -63 9t-52.5 28t-35.5 47.5t-13 66.5q0 86 56 125.5t149 39.5q29 0 51.5 -1.5t44.5 -5.5v32q0 28 -16.5 41t-54.5 13q-41 0 -64 -11.5t-39 -24.5h-91v149q42 15 104 26t143 11q125 0 181 -42.5t56 -136.5v-211q0 -8 8 -16.5t16 -8.5h17v-104
q-23 -13 -54.5 -20.5t-70.5 -7.5q-51 0 -79 16.5t-41 46.5q-29 -32 -66.5 -46.5t-85.5 -14.5zM259 116q14 0 25.5 4.5t22.5 12.5v79q-10 2 -21 3t-21 1q-26 0 -40 -11.5t-14 -40.5t14 -38.5t34 -9.5zM132 693h286v-120h-286v120z" />
    <glyph glyph-name="Abreve" unicode="&#x102;" 
d="M8 123h13q12 0 22.5 8.5t15.5 22.5l138 391q3 8 -2.5 17.5t-15.5 9.5h-33v128h377l175 -554q3 -8 12.5 -15.5t17.5 -7.5h16v-123h-356v123h78l-26 91h-197q-14 -46 -7.5 -68.5t43.5 -22.5h26v-123h-297v123zM278 320h131l-59 206h-2zM354 727q-32 0 -56.5 8t-42.5 20.5
t-30 28.5t-18 31v63h103q3 -14 13.5 -24t30.5 -10t30.5 10t13.5 24h103v-63q-6 -15 -18 -31t-30 -28.5t-42.5 -20.5t-56.5 -8z" />
    <glyph glyph-name="abreve" unicode="&#x103;" horiz-adv-x="573" 
d="M170 -7q-33 0 -63 9t-52.5 28t-35.5 47.5t-13 66.5q0 86 56 125.5t149 39.5q29 0 51.5 -1.5t44.5 -5.5v32q0 28 -16.5 41t-54.5 13q-41 0 -64 -11.5t-39 -24.5h-91v149q42 15 104 26t143 11q125 0 181 -42.5t56 -136.5v-211q0 -8 8 -16.5t16 -8.5h17v-104
q-23 -13 -54.5 -20.5t-70.5 -7.5q-51 0 -79 16.5t-41 46.5q-29 -32 -66.5 -46.5t-85.5 -14.5zM259 116q14 0 25.5 4.5t22.5 12.5v79q-10 2 -21 3t-21 1q-26 0 -40 -11.5t-14 -40.5t14 -38.5t34 -9.5zM275 556q-32 0 -56.5 8t-42.5 20.5t-30 28.5t-18 31v63h103
q3 -14 13.5 -24t30.5 -10t30.5 10t13.5 24h103v-63q-6 -15 -18 -31t-30 -28.5t-42.5 -20.5t-56.5 -8z" />
    <glyph glyph-name="Aogonek" unicode="&#x104;" 
d="M665 -169q-52 0 -81.5 21t-29.5 56t29 57.5t68 34.5h-263v123h78l-26 91h-197q-14 -46 -7.5 -68.5t43.5 -22.5h26v-123h-297v123h13q12 0 22.5 8.5t15.5 22.5l138 391q3 8 -2.5 17.5t-15.5 9.5h-33v128h377l175 -554q3 -8 12.5 -15.5t17.5 -7.5h16v-123h-24
q-28 -28 -28 -51q0 -12 8 -19.5t28 -7.5h16v-77q-13 -6 -32 -10t-47 -4zM278 320h131l-59 206h-2z" />
    <glyph glyph-name="aogonek" unicode="&#x105;" horiz-adv-x="573" 
d="M377 -92q0 29 20.5 49.5t50.5 33.5h-6q-51 0 -79 16.5t-41 46.5q-29 -32 -66.5 -46.5t-85.5 -14.5q-33 0 -63 9t-52.5 28t-35.5 47.5t-13 66.5q0 86 56 125.5t149 39.5q29 0 51.5 -1.5t44.5 -5.5v32q0 28 -16.5 41t-54.5 13q-41 0 -64 -11.5t-39 -24.5h-91v149
q42 15 104 26t143 11q125 0 181 -42.5t56 -136.5v-211q0 -8 8 -16.5t16 -8.5h17v-103q-24 -17 -38.5 -34.5t-14.5 -35.5q0 -14 8.5 -21t28.5 -7h16v-77q-13 -6 -32 -10t-47 -4q-52 0 -81.5 21t-29.5 56zM259 116q14 0 25.5 4.5t22.5 12.5v79q-10 2 -21 3t-21 1
q-26 0 -40 -11.5t-14 -40.5t14 -38.5t34 -9.5z" />
    <glyph glyph-name="Cacute" unicode="&#x106;" horiz-adv-x="643" 
d="M313 873h199v-56l-100 -87h-123zM371 -11q-177 0 -268 90t-91 264q0 89 23.5 158t68 115.5t108 70.5t144.5 24q35 0 65 -3t52 -8h159v-250h-149l-23 101q-11 3 -25 5t-30 2q-32 0 -58 -10.5t-45 -34.5t-29 -63.5t-10 -96.5q0 -107 30 -159t99 -52q42 0 73.5 21t53.5 49
h116v-151q-48 -32 -116.5 -52t-147.5 -20z" />
    <glyph glyph-name="cacute" unicode="&#x107;" horiz-adv-x="516" 
d="M235 700h199v-56l-100 -87h-123zM305 -9q-151 0 -224.5 70t-73.5 201q0 65 20.5 116.5t59 87t94.5 54t127 18.5q62 0 109.5 -7.5t78.5 -19.5v-159h-116q-11 23 -25 35t-43 12q-41 0 -61.5 -32t-20.5 -107t20 -107t65 -32q32 0 52.5 13t34.5 31h95v-124
q-32 -21 -80.5 -35.5t-111.5 -14.5z" />
    <glyph glyph-name="Ccircumflex" unicode="&#x108;" horiz-adv-x="643" 
d="M212 770l72 103h159l70 -103v-40h-94l-62 44l-61 -44h-84v40zM372 -11q-177 0 -268 90t-91 264q0 89 23.5 158t68 115.5t108 70.5t144.5 24q35 0 65 -3t52 -8h159v-250h-149l-23 101q-11 3 -25 5t-30 2q-32 0 -58 -10.5t-45 -34.5t-29 -63.5t-10 -96.5q0 -107 30 -159
t99 -52q42 0 73.5 21t53.5 49h116v-151q-48 -32 -116.5 -52t-147.5 -20z" />
    <glyph glyph-name="ccircumflex" unicode="&#x109;" horiz-adv-x="516" 
d="M139 597l72 103h159l70 -103v-40h-94l-62 44l-61 -44h-84v40zM305 -9q-151 0 -224.5 70t-73.5 201q0 65 20.5 116.5t59 87t94.5 54t127 18.5q62 0 109.5 -7.5t78.5 -19.5v-159h-116q-11 23 -25 35t-43 12q-41 0 -61.5 -32t-20.5 -107t20 -107t65 -32q32 0 52.5 13
t34.5 31h95v-124q-32 -21 -80.5 -35.5t-111.5 -14.5z" />
    <glyph glyph-name="Cdotaccent" unicode="&#x10a;" horiz-adv-x="646" 
d="M371 -11q-177 0 -268 90t-91 264q0 89 23.5 158t68 115.5t108 70.5t144.5 24q35 0 65 -3t52 -8h159v-250h-149l-23 101q-11 3 -25 5t-30 2q-32 0 -58 -10.5t-45 -34.5t-29 -63.5t-10 -96.5q0 -107 30 -159t99 -52q42 0 73.5 21t53.5 49h116v-151q-48 -32 -116.5 -52
t-147.5 -20zM364 725q-45 0 -73.5 25.5t-28.5 67.5q0 43 28.5 69t73.5 26t73.5 -26t28.5 -69q0 -42 -28.5 -67.5t-73.5 -25.5z" />
    <glyph glyph-name="cdotaccent" unicode="&#x10b;" horiz-adv-x="516" 
d="M305 -9q-151 0 -224.5 70t-73.5 201q0 65 20.5 116.5t59 87t94.5 54t127 18.5q62 0 109.5 -7.5t78.5 -19.5v-159h-116q-11 23 -25 35t-43 12q-41 0 -61.5 -32t-20.5 -107t20 -107t65 -32q32 0 52.5 13t34.5 31h95v-124q-32 -21 -80.5 -35.5t-111.5 -14.5zM292 550
q-45 0 -73.5 25.5t-28.5 67.5q0 43 28.5 69t73.5 26t73.5 -26t28.5 -69q0 -42 -28.5 -67.5t-73.5 -25.5z" />
    <glyph glyph-name="Ccaron" unicode="&#x10c;" horiz-adv-x="646" 
d="M211 833v40h94l62 -44l61 44h83v-40l-71 -103h-159zM371 -11q-177 0 -268 90t-91 264q0 89 23.5 158t68 115.5t108 70.5t144.5 24q35 0 65 -3t52 -8h159v-250h-149l-23 101q-11 3 -25 5t-30 2q-32 0 -58 -10.5t-45 -34.5t-29 -63.5t-10 -96.5q0 -107 30 -159t99 -52
q42 0 73.5 21t53.5 49h116v-151q-48 -32 -116.5 -52t-147.5 -20z" />
    <glyph glyph-name="ccaron" unicode="&#x10d;" horiz-adv-x="516" 
d="M140 660v40h94l62 -44l61 44h83v-40l-71 -103h-159zM305 -9q-151 0 -224.5 70t-73.5 201q0 65 20.5 116.5t59 87t94.5 54t127 18.5q62 0 109.5 -7.5t78.5 -19.5v-159h-116q-11 23 -25 35t-43 12q-41 0 -61.5 -32t-20.5 -107t20 -107t65 -32q32 0 52.5 13t34.5 31h95v-124
q-32 -21 -80.5 -35.5t-111.5 -14.5z" />
    <glyph glyph-name="Dcaron" unicode="&#x10e;" horiz-adv-x="732" 
d="M167 831v40h94l62 -44l61 44h83v-40l-71 -103h-159zM9 123h29q9 0 18.5 10.5t9.5 18.5v392q0 8 -9.5 18t-18.5 10h-29v128h327q199 0 292.5 -84.5t93.5 -260.5q0 -175 -95.5 -265t-297.5 -90h-320v123zM329 129q77 0 115 52.5t38 164.5t-37.5 164.5t-115.5 52.5h-29v-434
h29z" />
    <glyph glyph-name="dcaron" unicode="&#x10f;" horiz-adv-x="639" 
d="M225 -10q-48 0 -88 15t-68.5 47.5t-44.5 84.5t-16 127t18 127t47.5 85t68 47.5t80.5 14.5q50 0 82.5 -19t58.5 -49v102h-51v128h238q15 0 23.5 -12t8.5 -32v-508q0 -7 8 -16t16 -9h24v-123h-228q-11 0 -18.5 13t-12.5 36q-24 -26 -60 -42.5t-86 -16.5zM309 124
q31 0 54 17v233l-22 6q-12 3 -25 3q-18 0 -34 -5t-27.5 -18.5t-18.5 -38t-7 -62.5q0 -40 6.5 -66t17.5 -41.5t25.5 -21.5t30.5 -6zM611 700h164v-56l-55 -89h-115z" />
    <glyph glyph-name="Dcroat" unicode="&#x110;" horiz-adv-x="732" 
d="M9 410h57v134q0 8 -9.5 18t-18.5 10h-29v128h327q199 0 292.5 -84.5t93.5 -260.5q0 -175 -95.5 -265t-297.5 -90h-320v123h29q9 0 18.5 10.5t9.5 18.5v136h-57v122zM329 129q77 0 115 52.5t38 164.5t-37.5 164.5t-115.5 52.5h-29v-153h95v-122h-95v-159h29z" />
    <glyph glyph-name="dcroat" unicode="&#x111;" horiz-adv-x="639" 
d="M225 -10q-48 0 -88 15t-68.5 47.5t-44.5 84.5t-16 127t18 127t47.5 85t68 47.5t80.5 14.5q50 0 82.5 -19t58.5 -49l1 83h-83v94h83l-1 53h187q15 0 23.5 -11t8.5 -28l1 -14h48v-94h-48l-1 -405q0 -7 8 -16t16 -9h24v-123h-228q-11 0 -18.5 13t-12.5 36q-24 -26 -60 -42.5
t-86 -16.5zM309 124q31 0 54 17v233l-22 6q-12 3 -25 3q-18 0 -34 -5t-27.5 -18.5t-18.5 -38t-7 -62.5q0 -40 6.5 -66t17.5 -41.5t25.5 -21.5t30.5 -6z" />
    <glyph glyph-name="Emacron" unicode="&#x112;" horiz-adv-x="626" 
d="M9 123h29q9 0 18.5 10.5t9.5 18.5v392q0 8 -9.5 18t-18.5 10h-29v128h596v-227h-135l-20 89h-150v-134h161v-142h-161v-152h154l19 106h141v-240h-605v123zM173 864h286v-120h-286v120z" />
    <glyph glyph-name="emacron" unicode="&#x113;" horiz-adv-x="564" 
d="M226 217q5 -51 26.5 -73.5t66.5 -22.5q41 0 63.5 12.5t37.5 32.5h115v-127q-36 -20 -92 -34t-147 -14q-77 0 -132 18.5t-90 53.5t-51 85t-16 113t20 114.5t57 87.5t90 55.5t119 19.5q134 0 198.5 -65t64.5 -204q0 -19 -1 -33t-1 -19h-328zM293 413q-29 0 -45 -21t-21 -72
h126q-4 51 -17.5 72t-42.5 21zM149 693h286v-120h-286v120z" />
    <glyph glyph-name="Ebreve" unicode="&#x114;" horiz-adv-x="626" 
d="M9 123h29q9 0 18.5 10.5t9.5 18.5v392q0 8 -9.5 18t-18.5 10h-29v128h596v-227h-135l-20 89h-150v-134h161v-142h-161v-152h154l19 106h141v-240h-605v123zM318 729q-32 0 -56.5 8t-42.5 20.5t-30 28.5t-18 31v63h103q3 -14 13.5 -24t30.5 -10t30.5 10t13.5 24h103v-63
q-6 -15 -18 -31t-30 -28.5t-42.5 -20.5t-56.5 -8z" />
    <glyph glyph-name="ebreve" unicode="&#x115;" horiz-adv-x="564" 
d="M226 217q5 -51 26.5 -73.5t66.5 -22.5q41 0 63.5 12.5t37.5 32.5h115v-127q-36 -20 -92 -34t-147 -14q-77 0 -132 18.5t-90 53.5t-51 85t-16 113t20 114.5t57 87.5t90 55.5t119 19.5q134 0 198.5 -65t64.5 -204q0 -19 -1 -33t-1 -19h-328zM293 413q-29 0 -45 -21t-21 -72
h126q-4 51 -17.5 72t-42.5 21zM280 556q-32 0 -56.5 8t-42.5 20.5t-30 28.5t-18 31v63h103q3 -14 13.5 -24t30.5 -10t30.5 10t13.5 24h103v-63q-6 -15 -18 -31t-30 -28.5t-42.5 -20.5t-56.5 -8z" />
    <glyph glyph-name="Edotaccent" unicode="&#x116;" horiz-adv-x="626" 
d="M9 123h29q9 0 18.5 10.5t9.5 18.5v392q0 8 -9.5 18t-18.5 10h-29v128h596v-227h-135l-20 89h-150v-134h161v-142h-161v-152h154l19 106h141v-240h-605v123zM318 720q-45 0 -73.5 25.5t-28.5 67.5q0 43 28.5 69t73.5 26t73.5 -26t28.5 -69q0 -42 -28.5 -67.5t-73.5 -25.5z
" />
    <glyph glyph-name="edotaccent" unicode="&#x117;" horiz-adv-x="564" 
d="M226 217q5 -51 26.5 -73.5t66.5 -22.5q41 0 63.5 12.5t37.5 32.5h115v-127q-36 -20 -92 -34t-147 -14q-77 0 -132 18.5t-90 53.5t-51 85t-16 113t20 114.5t57 87.5t90 55.5t119 19.5q134 0 198.5 -65t64.5 -204q0 -19 -1 -33t-1 -19h-328zM293 413q-29 0 -45 -21t-21 -72
h126q-4 51 -17.5 72t-42.5 21zM294 549q-45 0 -73.5 25.5t-28.5 67.5q0 43 28.5 69t73.5 26t73.5 -26t28.5 -69q0 -42 -28.5 -67.5t-73.5 -25.5z" />
    <glyph glyph-name="Eogonek" unicode="&#x118;" horiz-adv-x="626" 
d="M9 123h29q9 0 18.5 10.5t9.5 18.5v392q0 8 -9.5 18t-18.5 10h-29v128h596v-227h-135l-20 89h-150v-134h161v-142h-161v-152h154l19 106h141v-240h-44q-28 -28 -28 -51q0 -12 8 -19.5t28 -7.5h16v-77q-13 -6 -32 -10t-47 -4q-52 0 -81.5 21t-29.5 56t29 57.5t68 34.5h-492
v123z" />
    <glyph glyph-name="eogonek" unicode="&#x119;" horiz-adv-x="564" 
d="M535 41q-40 -28 -58.5 -50.5t-18.5 -40.5q0 -13 8 -20.5t28 -7.5h16v-77q-13 -6 -31.5 -10t-46.5 -4q-53 0 -82.5 21t-29.5 56q0 33 27.5 55.5t72.5 37.5q-25 -5 -52 -7.5t-72 -2.5q-77 0 -132 18.5t-90 53.5t-51 85t-16 113t20 114.5t57 87.5t90 55.5t119 19.5
q134 0 198.5 -65t64.5 -204q0 -19 -1 -33t-1 -19h-328q5 -51 26.5 -73.5t66.5 -22.5q41 0 63.5 12.5t37.5 32.5h115v-125zM293 413q-29 0 -45 -21t-21 -72h126q-4 51 -17.5 72t-42.5 21z" />
    <glyph glyph-name="Ecaron" unicode="&#x11a;" horiz-adv-x="626" 
d="M165 831v40h94l62 -44l61 44h83v-40l-71 -103h-159zM9 123h29q9 0 18.5 10.5t9.5 18.5v392q0 8 -9.5 18t-18.5 10h-29v128h596v-227h-135l-20 89h-150v-134h161v-142h-161v-152h154l19 106h141v-240h-605v123z" />
    <glyph glyph-name="ecaron" unicode="&#x11b;" horiz-adv-x="564" 
d="M141 660v40h94l62 -44l61 44h83v-40l-71 -103h-159zM226 217q5 -51 26.5 -73.5t66.5 -22.5q41 0 63.5 12.5t37.5 32.5h115v-127q-36 -20 -92 -34t-147 -14q-77 0 -132 18.5t-90 53.5t-51 85t-16 113t20 114.5t57 87.5t90 55.5t119 19.5q134 0 198.5 -65t64.5 -204
q0 -19 -1 -33t-1 -19h-328zM293 413q-29 0 -45 -21t-21 -72h126q-4 51 -17.5 72t-42.5 21z" />
    <glyph glyph-name="Gcircumflex" unicode="&#x11c;" horiz-adv-x="697" 
d="M211 770l72 103h159l70 -103v-40h-94l-62 44l-61 -44h-84v40zM360 -11q-180 0 -265 90.5t-85 263.5q0 180 90.5 274t257.5 94q33 0 64.5 -3t52.5 -8h159v-243h-150l-23 94q-10 2 -25.5 4.5t-32.5 2.5q-33 0 -59 -10.5t-44.5 -34.5t-28.5 -63t-10 -96q0 -107 26 -163
t93 -56q29 0 48 4v97h-49v122h314v-125h-15q-9 0 -18.5 -10t-9.5 -18v-205h-116q-3 6 -7 10t-9 7t-12 3q-24 -14 -64 -22.5t-82 -8.5z" />
    <glyph glyph-name="gcircumflex" unicode="&#x11d;" horiz-adv-x="564" 
d="M127 597l72 103h159l70 -103v-40h-94l-62 44l-61 -44h-84v40zM257 -181q-74 0 -124 8t-81 24t-44 38t-13 51q0 22 9 40t22.5 31.5t30.5 23t34 15.5q-20 11 -33 29.5t-13 45.5q0 35 18 59.5t47 41.5q-78 43 -78 136q0 84 64 130t179 46q26 0 50 -2.5t46 -7.5h186v-131h-20
q-5 0 -11 -4.5t-9 -9.5q0 -5 0.5 -10.5t0.5 -10.5q0 -84 -63.5 -127.5t-179.5 -43.5q-53 0 -95 9v-7q0 -16 6 -25t26 -9h182q87 0 126 -33t39 -106q0 -45 -17 -82t-53.5 -63.5t-93.5 -41t-138 -14.5zM173 1q-1 -5 -1 -8v-6q0 -16 3.5 -26t13 -16t26 -8.5t43.5 -2.5
q22 0 42 2t35.5 6.5t24.5 12t9 19.5q0 14 -9.5 20.5t-33.5 6.5h-153zM277 290q23 0 36 16.5t13 54.5q0 39 -13 54t-36 15t-36.5 -15t-13.5 -54q0 -38 13.5 -54.5t36.5 -16.5z" />
    <glyph glyph-name="Gbreve" unicode="&#x11e;" horiz-adv-x="697" 
d="M360 -11q-180 0 -265 90.5t-85 263.5q0 180 90.5 274t257.5 94q33 0 64.5 -3t52.5 -8h159v-243h-150l-23 94q-10 2 -25.5 4.5t-32.5 2.5q-33 0 -59 -10.5t-44.5 -34.5t-28.5 -63t-10 -96q0 -107 26 -163t93 -56q29 0 48 4v97h-49v122h314v-125h-15q-9 0 -18.5 -10
t-9.5 -18v-205h-116q-3 6 -7 10t-9 7t-12 3q-24 -14 -64 -22.5t-82 -8.5zM362 729q-32 0 -56.5 8t-42.5 20.5t-30 28.5t-18 31v63h103q3 -14 13.5 -24t30.5 -10t30.5 10t13.5 24h103v-63q-6 -15 -18 -31t-30 -28.5t-42.5 -20.5t-56.5 -8z" />
    <glyph glyph-name="gbreve" unicode="&#x11f;" horiz-adv-x="564" 
d="M256 -181q-74 0 -124 8t-81 24t-44 38t-13 51q0 22 9 40t22.5 31.5t30.5 23t34 15.5q-20 11 -33 29.5t-13 45.5q0 35 18 59.5t47 41.5q-78 43 -78 136q0 84 64 130t179 46q26 0 50 -2.5t46 -7.5h186v-131h-20q-5 0 -11 -4.5t-9 -9.5q0 -5 0.5 -10.5t0.5 -10.5
q0 -84 -63.5 -127.5t-179.5 -43.5q-53 0 -95 9v-7q0 -16 6 -25t26 -9h182q87 0 126 -33t39 -106q0 -45 -17 -82t-53.5 -63.5t-93.5 -41t-138 -14.5zM172 1q-1 -5 -1 -8v-6q0 -16 3.5 -26t13 -16t26 -8.5t43.5 -2.5q22 0 42 2t35.5 6.5t24.5 12t9 19.5q0 14 -9.5 20.5
t-33.5 6.5h-153zM276 290q23 0 36 16.5t13 54.5q0 39 -13 54t-36 15t-36.5 -15t-13.5 -54q0 -38 13.5 -54.5t36.5 -16.5zM277 556q-32 0 -56.5 8t-42.5 20.5t-30 28.5t-18 31v63h103q3 -14 13.5 -24t30.5 -10t30.5 10t13.5 24h103v-63q-6 -15 -18 -31t-30 -28.5t-42.5 -20.5
t-56.5 -8z" />
    <glyph glyph-name="Gdotaccent" unicode="&#x120;" horiz-adv-x="697" 
d="M360 -11q-180 0 -265 90.5t-85 263.5q0 180 90.5 274t257.5 94q33 0 64.5 -3t52.5 -8h159v-243h-150l-23 94q-10 2 -25.5 4.5t-32.5 2.5q-33 0 -59 -10.5t-44.5 -34.5t-28.5 -63t-10 -96q0 -107 26 -163t93 -56q29 0 48 4v97h-49v122h314v-125h-15q-9 0 -18.5 -10
t-9.5 -18v-205h-116q-3 6 -7 10t-9 7t-12 3q-24 -14 -64 -22.5t-82 -8.5zM364 722q-45 0 -73.5 25.5t-28.5 67.5q0 43 28.5 69t73.5 26t73.5 -26t28.5 -69q0 -42 -28.5 -67.5t-73.5 -25.5z" />
    <glyph glyph-name="gdotaccent" unicode="&#x121;" horiz-adv-x="564" 
d="M256 -181q-74 0 -124 8t-81 24t-44 38t-13 51q0 22 9 40t22.5 31.5t30.5 23t34 15.5q-20 11 -33 29.5t-13 45.5q0 35 18 59.5t47 41.5q-78 43 -78 136q0 84 64 130t179 46q26 0 50 -2.5t46 -7.5h186v-131h-20q-5 0 -11 -4.5t-9 -9.5q0 -5 0.5 -10.5t0.5 -10.5
q0 -84 -63.5 -127.5t-179.5 -43.5q-53 0 -95 9v-7q0 -16 6 -25t26 -9h182q87 0 126 -33t39 -106q0 -45 -17 -82t-53.5 -63.5t-93.5 -41t-138 -14.5zM172 1q-1 -5 -1 -8v-6q0 -16 3.5 -26t13 -16t26 -8.5t43.5 -2.5q22 0 42 2t35.5 6.5t24.5 12t9 19.5q0 14 -9.5 20.5
t-33.5 6.5h-153zM276 290q23 0 36 16.5t13 54.5q0 39 -13 54t-36 15t-36.5 -15t-13.5 -54q0 -38 13.5 -54.5t36.5 -16.5zM279 549q-45 0 -73.5 25.5t-28.5 67.5q0 43 28.5 69t73.5 26t73.5 -26t28.5 -69q0 -42 -28.5 -67.5t-73.5 -25.5z" />
    <glyph glyph-name="Gcommaaccent" unicode="&#x122;" horiz-adv-x="697" 
d="M287 -178q49 6 49 28q0 9 -9 14l-19 11q-10 6 -16 16.5t-6 29.5q0 26 20.5 42t54.5 16q36 0 60 -20t24 -62q0 -65 -39.5 -97t-118.5 -37v59zM360 -11q-180 0 -265 90.5t-85 263.5q0 180 90.5 274t257.5 94q33 0 64.5 -3t52.5 -8h159v-243h-150l-23 94q-10 2 -25.5 4.5
t-32.5 2.5q-33 0 -59 -10.5t-44.5 -34.5t-28.5 -63t-10 -96q0 -107 26 -163t93 -56q29 0 48 4v97h-49v122h314v-125h-15q-9 0 -18.5 -10t-9.5 -18v-205h-116q-3 6 -7 10t-9 7t-12 3q-24 -14 -64 -22.5t-82 -8.5z" />
    <glyph glyph-name="gcommaaccent" unicode="&#x123;" horiz-adv-x="564" 
d="M352 706q-49 -6 -49 -28q0 -9 9 -14l19 -11q10 -6 16 -16.5t6 -29.5q0 -26 -20.5 -42t-54.5 -16q-36 0 -60 20t-24 62q0 65 39.5 97t118.5 37v-59zM257 -181q-74 0 -124 8t-81 24t-44 38t-13 51q0 22 9 40t22.5 31.5t30.5 23t34 15.5q-20 11 -33 29.5t-13 45.5
q0 35 18 59.5t47 41.5q-78 43 -78 136q0 84 64 130t179 46q26 0 50 -2.5t46 -7.5h186v-131h-20q-5 0 -11 -4.5t-9 -9.5q0 -5 0.5 -10.5t0.5 -10.5q0 -84 -63.5 -127.5t-179.5 -43.5q-53 0 -95 9v-7q0 -16 6 -25t26 -9h182q87 0 126 -33t39 -106q0 -45 -17 -82t-53.5 -63.5
t-93.5 -41t-138 -14.5zM173 1q-1 -5 -1 -8v-6q0 -16 3.5 -26t13 -16t26 -8.5t43.5 -2.5q22 0 42 2t35.5 6.5t24.5 12t9 19.5q0 14 -9.5 20.5t-33.5 6.5h-153zM277 290q23 0 36 16.5t13 54.5q0 39 -13 54t-36 15t-36.5 -15t-13.5 -54q0 -38 13.5 -54.5t36.5 -16.5z" />
    <glyph glyph-name="Hcircumflex" unicode="&#x124;" horiz-adv-x="765" 
d="M231 768l72 103h159l70 -103v-40h-94l-62 44l-61 -44h-84v40zM9 123h29q9 0 18.5 10.5t9.5 18.5v392q0 8 -9.5 18t-18.5 10h-29v128h351v-128h-60v-158h165v158h-60v128h351v-128h-29q-9 0 -18.5 -10t-9.5 -18v-392q0 -8 9.5 -18.5t18.5 -10.5h29v-123h-351v123h60v172
h-165v-172h60v-123h-351v123z" />
    <glyph glyph-name="hcircumflex" unicode="&#x125;" horiz-adv-x="646" 
d="M168 761l72 103h159l70 -103v-40h-94l-62 44l-61 -44h-84v40zM376 328q0 29 -14.5 38t-49.5 9q-7 0 -18 -0.5t-22 -2.5v-249h58v-123h-326v123h25q8 0 16 9t8 16v400q0 8 -8 16t-16 8h-28v128h239q15 0 23.5 -12t8.5 -32v-198q34 35 80 57.5t107 22.5q26 0 50.5 -6
t43.5 -20.5t30.5 -39t11.5 -60.5v-264q0 -8 8 -16.5t16 -8.5h16v-123h-259v328z" />
    <glyph glyph-name="Hbar" unicode="&#x126;" horiz-adv-x="765" 
d="M8 123h29q9 0 18.5 10.5t9.5 18.5v299h-58v75h58v18q0 8 -9.5 18t-18.5 10h-29v128h351v-128h-60v-46h165v46h-60v128h351v-128h-29q-9 0 -18.5 -10t-9.5 -18v-18h58v-75h-58v-299q0 -8 9.5 -18.5t18.5 -10.5h29v-123h-351v123h60v165h-165v-165h60v-123h-351v123z
M464 405v46h-165v-46h165z" />
    <glyph glyph-name="hbar" unicode="&#x127;" horiz-adv-x="646" 
d="M59 647v53h187q15 0 23.5 -12t8.5 -32v-9h83v-94h-83v-95q34 35 80 57.5t107 22.5q26 0 50.5 -6t43.5 -20.5t30.5 -39t11.5 -60.5v-264q0 -8 8 -16.5t16 -8.5h16v-123h-259v328q0 29 -14.5 38t-49.5 9q-7 0 -18 -0.5t-22 -2.5v-249h58v-123h-326v123h25q8 0 16 9t8 16
v405h-52v94h52z" />
    <glyph glyph-name="Imacron" unicode="&#x12a;" horiz-adv-x="375" 
d="M9 123h34q9 0 18.5 10.5t9.5 18.5v392q0 8 -9.5 18t-18.5 10h-34v128h358v-128h-35q-8 0 -17.5 -10t-9.5 -18v-392q0 -8 9.5 -18.5t17.5 -10.5h35v-123h-358v123zM46 864h286v-120h-286v120z" />
    <glyph glyph-name="imacron" unicode="&#x12b;" horiz-adv-x="333" 
d="M7 123h26q8 0 16 8.5t8 16.5v224q0 7 -8 16t-16 9h-29v131h241q31 0 31 -51v-329q0 -8 8.5 -16.5t16.5 -8.5h26v-123h-320v123zM15 693h286v-120h-286v120z" />
    <glyph glyph-name="Iogonek" unicode="&#x12e;" horiz-adv-x="375" 
d="M259 -169q-53 0 -82.5 21t-29.5 56t29 57.5t69 34.5h-236v123h34q9 0 18.5 10.5t9.5 18.5v392q0 8 -9.5 18t-18.5 10h-34v128h358v-128h-35q-8 0 -17.5 -10t-9.5 -18v-392q0 -8 9.5 -18.5t17.5 -10.5h35v-123h-53q-16 -15 -22.5 -26.5t-6.5 -24.5q0 -12 8 -19.5t28 -7.5
h16v-77q-13 -6 -31.5 -10t-46.5 -4z" />
    <glyph glyph-name="iogonek" unicode="&#x12f;" horiz-adv-x="333" 
d="M238 -169q-52 0 -81.5 21t-29.5 56t29 57.5t69 34.5h-218v123h26q8 0 16 8.5t8 16.5v224q0 7 -8 16t-16 9h-29v131h241q32 0 32 -51v-329q0 -8 8 -16.5t16 -8.5h26v-123h-34q-28 -27 -28 -51q0 -12 8 -19.5t28 -7.5h16v-77q-13 -6 -31.5 -10t-47.5 -4zM166 549
q-45 0 -73 25.5t-28 67.5q0 43 28 69t73 26t73.5 -26t28.5 -69q0 -42 -28.5 -67.5t-73.5 -25.5z" />
    <glyph glyph-name="Idotaccent" unicode="&#x130;" horiz-adv-x="375" 
d="M9 123h34q9 0 18.5 10.5t9.5 18.5v392q0 8 -9.5 18t-18.5 10h-34v128h358v-128h-35q-8 0 -17.5 -10t-9.5 -18v-392q0 -8 9.5 -18.5t17.5 -10.5h35v-123h-358v123zM191 720q-45 0 -73.5 25.5t-28.5 67.5q0 43 28.5 69t73.5 26t73.5 -26t28.5 -69q0 -42 -28.5 -67.5
t-73.5 -25.5z" />
    <glyph glyph-name="dotlessi" unicode="&#x131;" horiz-adv-x="333" 
d="M7 123h26q8 0 16 8.5t8 16.5v224q0 7 -8 16t-16 9h-29v131h241q31 0 31 -51v-329q0 -8 8.5 -16.5t16.5 -8.5h26v-123h-320v123z" />
    <glyph glyph-name="Jcircumflex" unicode="&#x134;" horiz-adv-x="545" 
d="M201 768l72 103h159l70 -103v-40h-94l-62 44l-61 -44h-84v40zM202 -8q-62 0 -109 9.5t-84 28.5v150h112q10 -17 25.5 -29.5t40.5 -12.5q26 0 39 15.5t13 44.5v346q0 8 -9.5 18t-17.5 10h-40v128h363v-128h-34q-9 0 -18 -10t-9 -18v-326q0 -119 -65 -172.5t-207 -53.5z
" />
    <glyph glyph-name="jcircumflex" unicode="&#x135;" horiz-adv-x="306" 
d="M3 597l72 103h159l70 -103v-40h-94l-62 44l-61 -44h-84v40zM80 -170q-35 0 -60.5 4.5t-45.5 9.5v111h26q34 0 45.5 10.5t11.5 37.5v369q0 7 -8 16t-16 9h-29v131h241q15 0 23.5 -14.5t8.5 -36.5v-484q0 -46 -13 -77t-37.5 -50t-61.5 -27.5t-85 -8.5z" />
    <glyph glyph-name="Kcommaaccent" unicode="&#x136;" horiz-adv-x="738" 
d="M319 -178q49 6 49 28q0 9 -9 14l-19 11q-10 6 -16 16.5t-6 29.5q0 26 20.5 42t54.5 16q36 0 60 -20t24 -62q0 -65 -39.5 -97t-118.5 -37v59zM9 123h29q9 0 18.5 10.5t9.5 18.5v392q0 8 -9.5 18t-18.5 10h-29v128h344v-128h-53v-178l130 126q22 20 17 36t-30 16h-16v128
h325v-128h-13q-23 0 -52 -32l-134 -135l158 -255l14 -18q8 -9 19 -9h11v-123h-282v108l-99 165l-48 -40v-110h56v-123h-347v123z" />
    <glyph glyph-name="kcommaaccent" unicode="&#x137;" horiz-adv-x="635" 
d="M264 -178q49 6 49 28q0 9 -9 14l-19 11q-10 6 -16 16.5t-6 29.5q0 26 20.5 42t54.5 16q36 0 60 -20t24 -62q0 -65 -39.5 -97t-118.5 -37v59zM364 120l-50 78l-40 -29v-46h44v-123h-312v123h25q8 0 16.5 8.5t8.5 16.5v399q0 8 -8.5 16.5t-16.5 8.5h-27v128h239
q14 0 22.5 -12t8.5 -32v-352l71 59q19 16 16 27.5t-21 11.5h-19v126h304v-131h-19q-8 0 -16.5 -4t-15.5 -10l-86 -74l97 -160q6 -10 14 -18t16 -8h12v-123h-263v120z" />
    <glyph glyph-name="Lacute" unicode="&#x139;" horiz-adv-x="608" 
d="M147 871h199v-56l-100 -87h-123zM9 123h29q9 0 18.5 10.5t9.5 18.5v392q0 8 -9.5 18t-18.5 10h-29v128h370v-128h-79v-438h138l19 124h143v-258h-591v123z" />
    <glyph glyph-name="lacute" unicode="&#x13a;" horiz-adv-x="340" 
d="M111 864h199v-56l-100 -87h-123zM6 123h29q8 0 16 8.5t8 16.5v399q0 8 -8 16.5t-16 8.5h-31v128h242q15 0 23.5 -12t8.5 -32v-508q0 -8 8 -16.5t16 -8.5h30v-123h-326v123z" />
    <glyph glyph-name="Lcommaaccent" unicode="&#x13b;" horiz-adv-x="608" 
d="M229 -178q49 6 49 28q0 9 -9 14l-19 11q-10 6 -16 16.5t-6 29.5q0 26 20.5 42t54.5 16q36 0 60 -20t24 -62q0 -65 -39.5 -97t-118.5 -37v59zM9 123h29q9 0 18.5 10.5t9.5 18.5v392q0 8 -9.5 18t-18.5 10h-29v128h370v-128h-79v-438h138l19 124h143v-258h-591v123z" />
    <glyph glyph-name="lcommaaccent" unicode="&#x13c;" horiz-adv-x="340" 
d="M97 -178q49 6 49 28q0 9 -9 14l-19 11q-10 6 -16 16.5t-6 29.5q0 26 20.5 42t54.5 16q36 0 60 -20t24 -62q0 -65 -39.5 -97t-118.5 -37v59zM6 123h29q8 0 16 8.5t8 16.5v399q0 8 -8 16.5t-16 8.5h-31v128h242q15 0 23.5 -12t8.5 -32v-508q0 -8 8 -16.5t16 -8.5h30v-123
h-326v123z" />
    <glyph glyph-name="Lcaron" unicode="&#x13d;" horiz-adv-x="608" 
d="M9 123h29q9 0 18.5 10.5t9.5 18.5v392q0 8 -9.5 18t-18.5 10h-29v128h370v-128h-79v-438h138l19 125h143v-259h-591v123zM416 700h164v-56l-55 -92h-115z" />
    <glyph glyph-name="lcaron" unicode="&#x13e;" horiz-adv-x="340" 
d="M6 123h29q8 0 16 8.5t8 16.5v399q0 8 -8 16.5t-16 8.5h-31v128h242q15 0 23.5 -12t8.5 -32v-508q0 -8 8 -16.5t16 -8.5h30v-123h-326v123zM307 700h164v-56l-55 -89h-115z" />
    <glyph glyph-name="Lslash" unicode="&#x141;" horiz-adv-x="608" 
d="M8 325l58 21v198q0 8 -9.5 18t-18.5 10h-29v128h370v-128h-79v-139l144 54v-123l-144 -54v-176h138l19 124h143v-258h-591v123h29q9 0 18.5 10.5t9.5 18.5v71l-58 -21v123z" />
    <glyph glyph-name="lslash" unicode="&#x142;" horiz-adv-x="339" 
d="M7 363l52 26v158q0 8 -8 16.5t-16 8.5h-31v128h242q15 0 23.5 -12t8.5 -32v-154l51 26v-116l-51 -27v-237q0 -8 8 -16.5t16 -8.5h30v-123h-326v123h29q8 0 16 8.5t8 16.5v125l-52 -27v117z" />
    <glyph glyph-name="Nacute" unicode="&#x143;" horiz-adv-x="732" 
d="M329 871h199v-56l-100 -87h-123zM9 123h29q9 0 18.5 10.5t9.5 18.5v392q0 8 -9.5 18t-18.5 10h-29v128h281l209 -361h3v233h-61v128h282v-128h-26q-8 0 -17.5 -10t-9.5 -18v-544h-203l-231 397h-3v-274h64v-123h-288v123z" />
    <glyph glyph-name="nacute" unicode="&#x144;" horiz-adv-x="646" 
d="M277 700h199v-56l-100 -87h-123zM7 123h25q8 0 16.5 9t8.5 16v224q0 8 -8.5 16.5t-16.5 8.5h-28v131h229q15 0 25 -14.5t14 -58.5q35 36 81 59.5t109 23.5q26 0 50.5 -6t43.5 -20.5t30.5 -39t11.5 -60.5v-264q0 -8 8.5 -16.5t16.5 -8.5h16v-123h-259v328q0 29 -15 38
t-49 9q-7 0 -18 -0.5t-23 -2.5v-249h59v-123h-327v123z" />
    <glyph glyph-name="Ncommaaccent" unicode="&#x145;" horiz-adv-x="732" 
d="M297 -178q49 6 49 28q0 9 -9 14l-19 11q-10 6 -16 16.5t-6 29.5q0 26 20.5 42t54.5 16q36 0 60 -20t24 -62q0 -65 -39.5 -97t-118.5 -37v59zM9 123h29q9 0 18.5 10.5t9.5 18.5v392q0 8 -9.5 18t-18.5 10h-29v128h281l209 -361h3v233h-61v128h282v-128h-26q-8 0 -17.5 -10
t-9.5 -18v-544h-203l-231 397h-3v-274h64v-123h-288v123z" />
    <glyph glyph-name="ncommaaccent" unicode="&#x146;" horiz-adv-x="646" 
d="M256 -178q49 6 49 28q0 9 -9 14l-19 11q-10 6 -16 16.5t-6 29.5q0 26 20.5 42t54.5 16q36 0 60 -20t24 -62q0 -65 -39.5 -97t-118.5 -37v59zM7 123h25q8 0 16.5 9t8.5 16v224q0 8 -8.5 16.5t-16.5 8.5h-28v131h229q15 0 25 -14.5t14 -58.5q35 36 81 59.5t109 23.5
q26 0 50.5 -6t43.5 -20.5t30.5 -39t11.5 -60.5v-264q0 -8 8.5 -16.5t16.5 -8.5h16v-123h-259v328q0 29 -15 38t-49 9q-7 0 -18 -0.5t-23 -2.5v-249h59v-123h-327v123z" />
    <glyph glyph-name="Ncaron" unicode="&#x147;" horiz-adv-x="732" 
d="M227 831v40h94l62 -44l61 44h83v-40l-71 -103h-159zM9 123h29q9 0 18.5 10.5t9.5 18.5v392q0 8 -9.5 18t-18.5 10h-29v128h281l209 -361h3v233h-61v128h282v-128h-26q-8 0 -17.5 -10t-9.5 -18v-544h-203l-231 397h-3v-274h64v-123h-288v123z" />
    <glyph glyph-name="ncaron" unicode="&#x148;" horiz-adv-x="646" 
d="M175 660v40h94l62 -44l61 44h83v-40l-71 -103h-159zM7 123h25q8 0 16.5 9t8.5 16v224q0 8 -8.5 16.5t-16.5 8.5h-28v131h229q15 0 25 -14.5t14 -58.5q35 36 81 59.5t109 23.5q26 0 50.5 -6t43.5 -20.5t30.5 -39t11.5 -60.5v-264q0 -8 8.5 -16.5t16.5 -8.5h16v-123h-259
v328q0 29 -15 38t-49 9q-7 0 -18 -0.5t-23 -2.5v-249h59v-123h-327v123z" />
    <glyph glyph-name="Omacron" unicode="&#x14c;" horiz-adv-x="745" 
d="M228 866h286v-120h-286v120zM372 -11q-77 0 -143 24t-115 69.5t-76.5 113t-27.5 154.5t28.5 154.5t77.5 113t115 69.5t141 24t141 -24t115 -69.5t77.5 -113t28.5 -154.5t-27.5 -154.5t-76.5 -113t-115 -69.5t-143 -24zM372 136q54 0 88 52t34 158t-34 156.5t-88 50.5
q-55 0 -88.5 -50.5t-33.5 -156.5t33.5 -158t88.5 -52z" />
    <glyph glyph-name="omacron" unicode="&#x14d;" horiz-adv-x="609" 
d="M160 693h286v-120h-286v120zM304 -9q-65 0 -119.5 18.5t-94 53.5t-61.5 85t-22 113t22 114.5t61.5 87.5t94 55.5t119.5 19.5q64 0 118.5 -19.5t94 -55.5t61.5 -87.5t22 -114.5t-22 -113t-61.5 -85t-94 -53.5t-118.5 -18.5zM304 121q34 0 54.5 33.5t20.5 105.5t-20.5 104
t-54.5 32q-35 0 -55.5 -32t-20.5 -104t20.5 -105.5t55.5 -33.5z" />
    <glyph glyph-name="Ohungarumlaut" unicode="&#x150;" horiz-adv-x="745" 
d="M426 873h167v-53l-72 -90h-111zM231 873h167v-53l-72 -90h-112zM372 -11q-77 0 -143 24t-115 69.5t-76.5 113t-27.5 154.5t28.5 154.5t77.5 113t115 69.5t141 24t141 -24t115 -69.5t77.5 -113t28.5 -154.5t-27.5 -154.5t-76.5 -113t-115 -69.5t-143 -24zM372 136
q54 0 88 52t34 158t-34 156.5t-88 50.5q-55 0 -88.5 -50.5t-33.5 -156.5t33.5 -158t88.5 -52z" />
    <glyph glyph-name="ohungarumlaut" unicode="&#x151;" horiz-adv-x="609" 
d="M358 700h167v-53l-72 -90h-111zM163 700h167v-53l-72 -90h-112zM304 -9q-65 0 -119.5 18.5t-94 53.5t-61.5 85t-22 113t22 114.5t61.5 87.5t94 55.5t119.5 19.5q64 0 118.5 -19.5t94 -55.5t61.5 -87.5t22 -114.5t-22 -113t-61.5 -85t-94 -53.5t-118.5 -18.5zM304 121
q34 0 54.5 33.5t20.5 105.5t-20.5 104t-54.5 32q-35 0 -55.5 -32t-20.5 -104t20.5 -105.5t55.5 -33.5z" />
    <glyph glyph-name="OE" unicode="&#x152;" horiz-adv-x="987" 
d="M395 0q-198 0 -291.5 84.5t-93.5 260.5q0 175 95.5 265t296.5 90h564v-227h-135l-20 89h-150v-134h160v-142h-160v-152h153l19 106h142v-240h-580zM427 133v432h-25q-76 0 -114 -50t-38 -162t37 -166t115 -54h25z" />
    <glyph glyph-name="oe" unicode="&#x153;" horiz-adv-x="931" 
d="M296 -9q-62 0 -115 18.5t-91.5 53.5t-60.5 85t-22 113t22 114.5t60.5 87.5t91.5 55.5t115 19.5q60 0 106.5 -18t80.5 -51q31 33 76 51t106 18q131 0 194.5 -65t63.5 -204q0 -37 -3 -52h-325q5 -51 26 -73.5t66 -22.5q41 0 63.5 12.5t37.5 32.5h115v-127
q-36 -20 -90.5 -34t-135.5 -14q-69 0 -117 16.5t-79 48.5q-34 -32 -80.5 -48.5t-104.5 -16.5zM302 121q35 0 54.5 33.5t19.5 105.5t-19.5 104t-54.5 32t-54.5 -32t-19.5 -104t19.5 -105.5t54.5 -33.5zM661 413q-29 0 -45 -21t-21 -72h125q-3 51 -16.5 72t-42.5 21z" />
    <glyph glyph-name="Racute" unicode="&#x154;" horiz-adv-x="708" 
d="M273 871h199v-56l-100 -87h-123zM9 123h29q9 0 18.5 10.5t9.5 18.5v392q0 8 -9.5 18t-18.5 10h-29v128h348q154 0 225 -49.5t71 -150.5q0 -63 -32 -101.5t-104 -57.5v-4q27 -6 47.5 -15t36 -25.5t26.5 -41.5t19 -62l11 -45q3 -14 10.5 -19.5t14.5 -5.5h17v-123h-256
l-23 190q-5 43 -22.5 60t-55.5 17h-42v-144h63v-123h-354v123zM294 388h40q50 0 68 22.5t18 64.5t-18 65t-68 23h-40v-175z" />
    <glyph glyph-name="racute" unicode="&#x155;" horiz-adv-x="454" 
d="M195 700h199v-56l-100 -87h-123zM7 123h25q8 0 16.5 8.5t8.5 16.5v224q0 7 -8.5 16t-16.5 9h-28v131h229q15 0 25 -14.5t14 -57.5q25 34 55.5 56t80.5 22q7 0 14 -1t18 -5v-162h-22q-51 0 -86 -5t-57 -11v-227h55v-123h-323v123z" />
    <glyph glyph-name="Rcommaaccent" unicode="&#x156;" horiz-adv-x="708" 
d="M291 -178q49 6 49 28q0 9 -9 14l-19 11q-10 6 -16 16.5t-6 29.5q0 26 20.5 42t54.5 16q36 0 60 -20t24 -62q0 -65 -39.5 -97t-118.5 -37v59zM9 123h29q9 0 18.5 10.5t9.5 18.5v392q0 8 -9.5 18t-18.5 10h-29v128h348q154 0 225 -49.5t71 -150.5q0 -63 -32 -101.5
t-104 -57.5v-4q27 -6 47.5 -15t36 -25.5t26.5 -41.5t19 -62l11 -45q3 -14 10.5 -19.5t14.5 -5.5h17v-123h-256l-23 190q-5 43 -22.5 60t-55.5 17h-42v-144h63v-123h-354v123zM294 388h40q50 0 68 22.5t18 64.5t-18 65t-68 23h-40v-175z" />
    <glyph glyph-name="rcommaaccent" unicode="&#x157;" horiz-adv-x="454" 
d="M92 -178q49 6 49 28q0 9 -9 14l-19 11q-10 6 -16 16.5t-6 29.5q0 26 20.5 42t54.5 16q36 0 60 -20t24 -62q0 -65 -39.5 -97t-118.5 -37v59zM7 123h25q8 0 16.5 8.5t8.5 16.5v224q0 7 -8.5 16t-16.5 9h-28v131h229q15 0 25 -14.5t14 -57.5q25 34 55.5 56t80.5 22
q7 0 14 -1t18 -5v-162h-22q-51 0 -86 -5t-57 -11v-227h55v-123h-323v123z" />
    <glyph glyph-name="Rcaron" unicode="&#x158;" horiz-adv-x="708" 
d="M171 831v40h94l62 -44l61 44h83v-40l-71 -103h-159zM9 123h29q9 0 18.5 10.5t9.5 18.5v392q0 8 -9.5 18t-18.5 10h-29v128h348q154 0 225 -49.5t71 -150.5q0 -63 -32 -101.5t-104 -57.5v-4q27 -6 47.5 -15t36 -25.5t26.5 -41.5t19 -62l11 -45q3 -14 10.5 -19.5t14.5 -5.5
h17v-123h-256l-23 190q-5 43 -22.5 60t-55.5 17h-42v-144h63v-123h-354v123zM294 388h40q50 0 68 22.5t18 64.5t-18 65t-68 23h-40v-175z" />
    <glyph glyph-name="rcaron" unicode="&#x159;" horiz-adv-x="454" 
d="M93 660v40h94l62 -44l61 44h83v-40l-71 -103h-159zM7 123h25q8 0 16.5 8.5t8.5 16.5v224q0 7 -8.5 16t-16.5 9h-28v131h229q15 0 25 -14.5t14 -57.5q25 34 55.5 56t80.5 22q7 0 14 -1t18 -5v-162h-22q-51 0 -86 -5t-57 -11v-227h55v-123h-323v123z" />
    <glyph glyph-name="Sacute" unicode="&#x15a;" horiz-adv-x="562" 
d="M233 873h199v-56l-100 -87h-123zM277 -11q-36 0 -64 3t-54 8h-149v221h152l20 -87q21 -7 60 -7q40 0 62.5 14.5t22.5 47.5q0 18 -8.5 29.5t-24 19.5t-37.5 14l-50 14q-38 10 -73 24.5t-62 39t-43 62t-16 94.5q0 60 19.5 102.5t54 69.5t82.5 40t104 13q48 0 77 -3t51 -8
h128v-203h-150l-20 75q-10 3 -22.5 5t-29.5 2q-42 0 -63.5 -14.5t-21.5 -46.5q0 -18 8 -29t21 -18t30 -12l37 -10q63 -17 107 -35.5t72 -44t40.5 -60.5t12.5 -85q0 -114 -66 -174.5t-207 -60.5z" />
    <glyph glyph-name="sacute" unicode="&#x15b;" horiz-adv-x="488" 
d="M194 700h199v-56l-100 -87h-123zM225 -9q-80 0 -132 9t-87 20v147h115q12 -22 37 -34.5t55 -12.5q26 0 42.5 7.5t16.5 24.5q0 16 -17 23t-68 12q-43 5 -77 16t-57 31t-35.5 50.5t-12.5 75.5q0 91 65.5 134.5t176.5 43.5q73 0 121.5 -7.5t86.5 -19.5v-138h-114
q-12 17 -32.5 27t-51.5 10q-33 0 -46 -7t-13 -21t16 -20t63 -12q49 -6 86 -16t62 -29t37.5 -49t12.5 -76q0 -92 -59 -140.5t-191 -48.5z" />
    <glyph glyph-name="Scircumflex" unicode="&#x15c;" horiz-adv-x="562" 
d="M132 770l72 103h159l70 -103v-40h-94l-62 44l-61 -44h-84v40zM277 -11q-36 0 -64 3t-54 8h-149v221h152l20 -87q21 -7 60 -7q40 0 62.5 14.5t22.5 47.5q0 18 -8.5 29.5t-24 19.5t-37.5 14l-50 14q-38 10 -73 24.5t-62 39t-43 62t-16 94.5q0 60 19.5 102.5t54 69.5
t82.5 40t104 13q48 0 77 -3t51 -8h128v-203h-150l-20 75q-10 3 -22.5 5t-29.5 2q-42 0 -63.5 -14.5t-21.5 -46.5q0 -18 8 -29t21 -18t30 -12l37 -10q63 -17 107 -35.5t72 -44t40.5 -60.5t12.5 -85q0 -114 -66 -174.5t-207 -60.5z" />
    <glyph glyph-name="scircumflex" unicode="&#x15d;" horiz-adv-x="488" 
d="M95 597l72 103h159l70 -103v-40h-94l-62 44l-61 -44h-84v40zM227 -9q-80 0 -132 9t-87 20v147h115q12 -22 37 -34.5t55 -12.5q26 0 42.5 7.5t16.5 24.5q0 16 -17 23t-68 12q-43 5 -77 16t-57 31t-35.5 50.5t-12.5 75.5q0 91 65.5 134.5t176.5 43.5q73 0 121.5 -7.5
t86.5 -19.5v-138h-114q-12 17 -32.5 27t-51.5 10q-33 0 -46 -7t-13 -21t16 -20t63 -12q49 -6 86 -16t62 -29t37.5 -49t12.5 -76q0 -92 -59 -140.5t-191 -48.5z" />
    <glyph glyph-name="Scedilla" unicode="&#x15e;" horiz-adv-x="562" 
d="M263 -175q-29 0 -52 5t-39 12v64h48q4 -5 9.5 -8.5t16.5 -3.5q20 0 20 16t-27 16h-25v66l-29 4l-26 4h-149v221h152l20 -87q21 -7 60 -7q40 0 62.5 14.5t22.5 47.5q0 18 -8.5 29.5t-24 19.5t-37.5 14l-50 14q-38 10 -73 24.5t-62 39t-43 62t-16 94.5q0 60 19.5 102.5
t54 69.5t82.5 40t104 13q48 0 77 -3t51 -8h128v-203h-150l-20 75q-10 3 -22.5 5t-29.5 2q-42 0 -63.5 -14.5t-21.5 -46.5q0 -18 8 -29t21 -18t30 -12l37 -10q63 -17 107 -35.5t72 -44t40.5 -60.5t12.5 -85q0 -111 -61 -170.5t-193 -64.5v-14q42 -2 62 -21t20 -52
q0 -36 -30 -56.5t-85 -20.5z" />
    <glyph glyph-name="scedilla" unicode="&#x15f;" horiz-adv-x="488" 
d="M230 -175q-29 0 -52 5t-39 12v64h48q4 -5 9.5 -8.5t16.5 -3.5q20 0 20 16t-27 16h-25v66q-60 3 -101.5 10.5t-71.5 17.5v147h115q12 -22 37 -34.5t55 -12.5q26 0 42.5 7.5t16.5 24.5q0 16 -17 23t-68 12q-43 5 -77 16t-57 31t-35.5 50.5t-12.5 75.5q0 91 65.5 134.5
t176.5 43.5q73 0 121.5 -7.5t86.5 -19.5v-138h-114q-12 17 -32.5 27t-51.5 10q-33 0 -46 -7t-13 -21t16 -20t63 -12q49 -6 86 -16t62 -29t37.5 -49t12.5 -76q0 -87 -50.5 -134.5t-163.5 -53.5v-17q42 -2 62 -21t20 -52q0 -36 -30 -56.5t-85 -20.5z" />
    <glyph glyph-name="Scaron" unicode="&#x160;" horiz-adv-x="562" 
d="M131 833v40h94l62 -44l61 44h83v-40l-71 -103h-159zM277 -11q-36 0 -64 3t-54 8h-149v221h152l20 -87q21 -7 60 -7q40 0 62.5 14.5t22.5 47.5q0 18 -8.5 29.5t-24 19.5t-37.5 14l-50 14q-38 10 -73 24.5t-62 39t-43 62t-16 94.5q0 60 19.5 102.5t54 69.5t82.5 40t104 13
q48 0 77 -3t51 -8h128v-203h-150l-20 75q-10 3 -22.5 5t-29.5 2q-42 0 -63.5 -14.5t-21.5 -46.5q0 -18 8 -29t21 -18t30 -12l37 -10q63 -17 107 -35.5t72 -44t40.5 -60.5t12.5 -85q0 -114 -66 -174.5t-207 -60.5z" />
    <glyph glyph-name="scaron" unicode="&#x161;" horiz-adv-x="488" 
d="M92 660v40h94l62 -44l61 44h83v-40l-71 -103h-159zM225 -9q-80 0 -132 9t-87 20v147h115q12 -22 37 -34.5t55 -12.5q26 0 42.5 7.5t16.5 24.5q0 16 -17 23t-68 12q-43 5 -77 16t-57 31t-35.5 50.5t-12.5 75.5q0 91 65.5 134.5t176.5 43.5q73 0 121.5 -7.5t86.5 -19.5
v-138h-114q-12 17 -32.5 27t-51.5 10q-33 0 -46 -7t-13 -21t16 -20t63 -12q49 -6 86 -16t62 -29t37.5 -49t12.5 -76q0 -92 -59 -140.5t-191 -48.5z" />
    <glyph glyph-name="Tcommaaccent" unicode="&#x162;" horiz-adv-x="676" 
d="M264 -178q49 6 49 28q0 9 -9 14l-19 11q-10 6 -16 16.5t-6 29.5q0 26 20.5 42t54.5 16q36 0 60 -20t24 -62q0 -65 -39.5 -97t-118.5 -37v59zM160 123h33q9 0 18.5 10.5t9.5 18.5v414h-56l-15 -129h-139v263h654v-263h-138l-16 129h-56v-414q0 -8 9.5 -18.5t18.5 -10.5h33
v-123h-356v123z" />
    <glyph glyph-name="tcommaaccent" unicode="&#x163;" horiz-adv-x="372" 
d="M136 -178q49 6 49 28q0 9 -9 14l-19 11q-10 6 -16 16.5t-6 29.5q0 26 20.5 42t54.5 16q36 0 60 -20t24 -62q0 -65 -39.5 -97t-118.5 -37v59zM4 528h52v137h219v-137h88v-131h-88v-215q0 -34 13.5 -46.5t49.5 -12.5h27v-119q-20 -5 -49 -10t-67 -5q-44 0 -79.5 7t-60.5 25
t-39 48t-14 76v252h-52v131z" />
    <glyph glyph-name="Tcaron" unicode="&#x164;" horiz-adv-x="676" 
d="M187 831v40h94l62 -44l61 44h83v-40l-71 -103h-159zM160 123h33q9 0 18.5 10.5t9.5 18.5v414h-56l-15 -129h-139v263h654v-263h-138l-16 129h-56v-414q0 -8 9.5 -18.5t18.5 -10.5h33v-123h-356v123z" />
    <glyph glyph-name="tcaron" unicode="&#x165;" horiz-adv-x="372" 
d="M249 -11q-44 0 -79.5 7t-60.5 25t-39 48t-14 76v252h-52v131h52v137h219v-137h88v-131h-88v-215q0 -34 13.5 -46.5t49.5 -12.5h27v-119q-20 -5 -49 -10t-67 -5zM306 700h164v-56l-55 -89h-115z" />
    <glyph glyph-name="Umacron" unicode="&#x16a;" horiz-adv-x="726" 
d="M366 -8q-304 0 -304 263v289q0 8 -9.5 18t-18.5 10h-25v128h356v-128h-69v-329q0 -56 23 -81t73 -25q51 0 74 25t23 81v329h-69v128h297v-128h-25q-8 0 -17.5 -10t-9.5 -18v-289q0 -263 -299 -263zM249 864h286v-120h-286v120z" />
    <glyph glyph-name="umacron" unicode="&#x16b;" horiz-adv-x="645" 
d="M189 -9q-26 0 -51.5 6t-45 20.5t-31.5 39t-12 60.5v255q0 8 -8.5 16.5t-15.5 8.5h-21v131h264v-329q0 -31 16 -40.5t49 -9.5q6 0 16.5 1t22.5 3v244h-53v131h272v-380q0 -7 8 -16t16 -9h23v-123h-224q-15 0 -25 14.5t-15 57.5q-34 -35 -78 -58t-107 -23zM172 693h286
v-120h-286v120z" />
    <glyph glyph-name="Ubreve" unicode="&#x16c;" horiz-adv-x="726" 
d="M366 -8q-304 0 -304 263v289q0 8 -9.5 18t-18.5 10h-25v128h356v-128h-69v-329q0 -56 23 -81t73 -25q51 0 74 25t23 81v329h-69v128h297v-128h-25q-8 0 -17.5 -10t-9.5 -18v-289q0 -263 -299 -263zM392 727q-32 0 -56.5 8t-42.5 20.5t-30 28.5t-18 31v63h103
q3 -14 13.5 -24t30.5 -10t30.5 10t13.5 24h103v-63q-6 -15 -18 -31t-30 -28.5t-42.5 -20.5t-56.5 -8z" />
    <glyph glyph-name="ubreve" unicode="&#x16d;" horiz-adv-x="645" 
d="M189 -9q-26 0 -51.5 6t-45 20.5t-31.5 39t-12 60.5v255q0 8 -8.5 16.5t-15.5 8.5h-21v131h264v-329q0 -31 16 -40.5t49 -9.5q6 0 16.5 1t22.5 3v244h-53v131h272v-380q0 -7 8 -16t16 -9h23v-123h-224q-15 0 -25 14.5t-15 57.5q-34 -35 -78 -58t-107 -23zM315 556
q-32 0 -56.5 8t-42.5 20.5t-30 28.5t-18 31v63h103q3 -14 13.5 -24t30.5 -10t30.5 10t13.5 24h103v-63q-6 -15 -18 -31t-30 -28.5t-42.5 -20.5t-56.5 -8z" />
    <glyph glyph-name="Uring" unicode="&#x16e;" horiz-adv-x="726" 
d="M392 715q-22 0 -41.5 7t-34.5 20.5t-24 32.5t-9 43t9 43t24 32.5t34.5 20.5t41.5 7t41.5 -7t34.5 -20.5t24 -32.5t9 -43t-9 -43t-24 -32.5t-34.5 -20.5t-41.5 -7zM392 772q20 0 32.5 12.5t12.5 33.5q0 22 -12.5 34t-32.5 12t-32 -12t-12 -34q0 -21 12 -33.5t32 -12.5z
M366 -8q-304 0 -304 263v289q0 8 -9.5 18t-18.5 10h-25v128h356v-128h-69v-329q0 -56 23 -81t73 -25q51 0 74 25t23 81v329h-69v128h297v-128h-25q-8 0 -17.5 -10t-9.5 -18v-289q0 -263 -299 -263z" />
    <glyph glyph-name="uring" unicode="&#x16f;" horiz-adv-x="645" 
d="M315 558q-22 0 -41.5 7t-34.5 20.5t-24 32.5t-9 43t9 43t24 32.5t34.5 20.5t41.5 7t41.5 -7t34.5 -20.5t24 -32.5t9 -43t-9 -43t-24 -32.5t-34.5 -20.5t-41.5 -7zM315 615q20 0 32.5 12.5t12.5 33.5q0 22 -12.5 34t-32.5 12t-32 -12t-12 -34q0 -21 12 -33.5t32 -12.5z
M189 -9q-26 0 -51.5 6t-45 20.5t-31.5 39t-12 60.5v255q0 8 -8.5 16.5t-15.5 8.5h-21v131h264v-329q0 -31 16 -40.5t49 -9.5q6 0 16.5 1t22.5 3v244h-53v131h272v-380q0 -7 8 -16t16 -9h23v-123h-224q-15 0 -25 14.5t-15 57.5q-34 -35 -78 -58t-107 -23z" />
    <glyph glyph-name="Uhungarumlaut" unicode="&#x170;" horiz-adv-x="726" 
d="M366 -8q-304 0 -304 263v289q0 8 -9.5 18t-18.5 10h-25v128h356v-128h-69v-329q0 -56 23 -81t73 -25q51 0 74 25t23 81v329h-69v128h297v-128h-25q-8 0 -17.5 -10t-9.5 -18v-289q0 -263 -299 -263zM447 871h167v-53l-72 -90h-111zM252 871h167v-53l-72 -90h-112z" />
    <glyph glyph-name="uhungarumlaut" unicode="&#x171;" horiz-adv-x="645" 
d="M189 -9q-26 0 -51.5 6t-45 20.5t-31.5 39t-12 60.5v255q0 8 -8.5 16.5t-15.5 8.5h-21v131h264v-329q0 -31 16 -40.5t49 -9.5q6 0 16.5 1t22.5 3v244h-53v131h272v-380q0 -7 8 -16t16 -9h23v-123h-224q-15 0 -25 14.5t-15 57.5q-34 -35 -78 -58t-107 -23zM370 700h167v-53
l-72 -90h-111zM175 700h167v-53l-72 -90h-112z" />
    <glyph glyph-name="Uogonek" unicode="&#x172;" horiz-adv-x="726" 
d="M405 -169q-52 0 -81.5 21t-29.5 56q0 29 21.5 50t53.5 34h-6q-301 1 -301 263v289q0 8 -9.5 18t-18.5 10h-25v128h356v-128h-69v-329q0 -56 23 -80.5t73 -24.5q51 0 74 24.5t23 80.5v329h-69v128h297v-128h-25q-8 0 -17.5 -10t-9.5 -18v-289q0 -55 -12 -96t-35 -71
t-57.5 -51t-80.5 -35q-24 -8 -36 -22t-12 -31q0 -12 8 -19.5t28 -7.5h16v-77q-13 -6 -31.5 -10t-47.5 -4z" />
    <glyph glyph-name="uogonek" unicode="&#x173;" horiz-adv-x="645" 
d="M559 -169q-52 0 -81.5 21t-29.5 56t29 57.5t68 34.5h-131q-15 0 -25 14.5t-15 57.5q-34 -35 -78 -58t-107 -23q-26 0 -51.5 6t-45 20.5t-31.5 39t-12 60.5v255q0 8 -8.5 16.5t-15.5 8.5h-21v131h264v-329q0 -31 16 -40.5t49 -9.5q6 0 16.5 1t22.5 3v244h-53v131h272v-380
q0 -7 8 -16t16 -9h23v-123h-24q-28 -28 -28 -51q0 -12 8 -19.5t28 -7.5h16v-77q-13 -6 -32 -10t-47 -4z" />
    <glyph glyph-name="Ydieresis" unicode="&#x178;" horiz-adv-x="693" 
d="M169 123h34q9 0 18 10.5t9 18.5v113l-176 286q-5 8 -13 14.5t-16 6.5h-16v128h336v-128h-61l94 -163h3l59 102q17 28 9 44.5t-41 16.5h-16v128h292v-128h-10q-11 0 -21.5 -9t-17.5 -20l-171 -273v-118q0 -8 9.5 -18.5t18.5 -10.5h34v-123h-357v123zM471 717
q-41 0 -66.5 23.5t-25.5 63.5q0 39 25.5 62.5t66.5 23.5t66.5 -23.5t25.5 -62.5q0 -40 -25.5 -63.5t-66.5 -23.5zM263 717q-41 0 -66.5 23.5t-25.5 63.5q0 39 25.5 62.5t66.5 23.5t66.5 -23.5t25.5 -62.5q0 -40 -25.5 -63.5t-66.5 -23.5z" />
    <glyph glyph-name="Zacute" unicode="&#x179;" horiz-adv-x="592" 
d="M250 871h199v-56l-100 -87h-123zM9 153l321 405v4h-148l-19 -84h-135v222h555v-157l-321 -405v-4h160l19 98h142v-232h-574v153z" />
    <glyph glyph-name="zacute" unicode="&#x17a;" horiz-adv-x="521" 
d="M217 700h199v-56l-100 -87h-123zM9 139l253 253h-105l-20 -63h-118v199h492v-143l-254 -253h113l16 62h124v-194h-501v139z" />
    <glyph glyph-name="Zdotaccent" unicode="&#x17b;" horiz-adv-x="592" 
d="M9 153l321 405v4h-148l-19 -84h-135v222h555v-157l-321 -405v-4h160l19 98h142v-232h-574v153zM301 720q-45 0 -73.5 25.5t-28.5 67.5q0 43 28.5 69t73.5 26t73.5 -26t28.5 -69q0 -42 -28.5 -67.5t-73.5 -25.5z" />
    <glyph glyph-name="zdotaccent" unicode="&#x17c;" horiz-adv-x="521" 
d="M9 139l253 253h-105l-20 -63h-118v199h492v-143l-254 -253h113l16 62h124v-194h-501v139zM268 549q-45 0 -73.5 25.5t-28.5 67.5q0 43 28.5 69t73.5 26t73.5 -26t28.5 -69q0 -42 -28.5 -67.5t-73.5 -25.5z" />
    <glyph glyph-name="Zcaron" unicode="&#x17d;" horiz-adv-x="592" 
d="M148 831v40h94l62 -44l61 44h83v-40l-71 -103h-159zM9 153l321 405v4h-148l-19 -84h-135v222h555v-157l-321 -405v-4h160l19 98h142v-232h-574v153z" />
    <glyph glyph-name="zcaron" unicode="&#x17e;" horiz-adv-x="521" 
d="M115 660v40h94l62 -44l61 44h83v-40l-71 -103h-159zM9 139l253 253h-105l-20 -63h-118v199h492v-143l-254 -253h113l16 62h124v-194h-501v139z" />
    <glyph glyph-name="florin" unicode="&#x192;" horiz-adv-x="419" 
d="M30 443h66l11 101q20 170 209 170q34 0 58.5 -5t40.5 -10v-114h-25q-29 0 -43.5 -10.5t-17.5 -39.5l-12 -92h77v-124h-92l-26 -218q-10 -80 -47 -126t-101 -75h-123v108q23 9 35 26.5t16 54.5l26 230h-52v124z" />
    <glyph glyph-name="Scommaaccent" unicode="&#x218;" horiz-adv-x="562" 
d="M199 -178q49 6 49 28q0 9 -9 14l-19 11q-10 6 -16 16.5t-6 29.5q0 26 20.5 42t54.5 16q36 0 60 -20t24 -62q0 -65 -39.5 -97t-118.5 -37v59zM277 -11q-36 0 -64 3t-54 8h-149v221h152l20 -87q21 -7 60 -7q40 0 62.5 14.5t22.5 47.5q0 18 -8.5 29.5t-24 19.5t-37.5 14
l-50 14q-38 10 -73 24.5t-62 39t-43 62t-16 94.5q0 60 19.5 102.5t54 69.5t82.5 40t104 13q48 0 77 -3t51 -8h128v-203h-150l-20 75q-10 3 -22.5 5t-29.5 2q-42 0 -63.5 -14.5t-21.5 -46.5q0 -18 8 -29t21 -18t30 -12l37 -10q63 -17 107 -35.5t72 -44t40.5 -60.5t12.5 -85
q0 -114 -66 -174.5t-207 -60.5z" />
    <glyph glyph-name="scommaaccent" unicode="&#x219;" horiz-adv-x="488" 
d="M167 -178q49 6 49 28q0 9 -9 14l-19 11q-10 6 -16 16.5t-6 29.5q0 26 20.5 42t54.5 16q36 0 60 -20t24 -62q0 -65 -39.5 -97t-118.5 -37v59zM227 -9q-80 0 -132 9t-87 20v147h115q12 -22 37 -34.5t55 -12.5q26 0 42.5 7.5t16.5 24.5q0 16 -17 23t-68 12q-43 5 -77 16
t-57 31t-35.5 50.5t-12.5 75.5q0 91 65.5 134.5t176.5 43.5q73 0 121.5 -7.5t86.5 -19.5v-138h-114q-12 17 -32.5 27t-51.5 10q-33 0 -46 -7t-13 -21t16 -20t63 -12q49 -6 86 -16t62 -29t37.5 -49t12.5 -76q0 -92 -59 -140.5t-191 -48.5z" />
    <glyph glyph-name="uni021A" unicode="&#x21a;" horiz-adv-x="676" 
d="M264 -178q49 6 49 28q0 9 -9 14l-19 11q-10 6 -16 16.5t-6 29.5q0 26 20.5 42t54.5 16q36 0 60 -20t24 -62q0 -65 -39.5 -97t-118.5 -37v59zM160 123h33q9 0 18.5 10.5t9.5 18.5v414h-56l-15 -129h-139v263h654v-263h-138l-16 129h-56v-414q0 -8 9.5 -18.5t18.5 -10.5h33
v-123h-356v123z" />
    <glyph glyph-name="uni021B" unicode="&#x21b;" horiz-adv-x="372" 
d="M136 -178q49 6 49 28q0 9 -9 14l-19 11q-10 6 -16 16.5t-6 29.5q0 26 20.5 42t54.5 16q36 0 60 -20t24 -62q0 -65 -39.5 -97t-118.5 -37v59zM4 528h52v137h219v-137h88v-131h-88v-215q0 -34 13.5 -46.5t49.5 -12.5h27v-119q-20 -5 -49 -10t-67 -5q-44 0 -79.5 7t-60.5 25
t-39 48t-14 76v252h-52v131z" />
    <glyph glyph-name="uni0237" unicode="&#x237;" horiz-adv-x="306" 
d="M80 -170q-35 0 -60.5 4.5t-45.5 9.5v111h26q34 0 45.5 10.5t11.5 37.5v369q0 7 -8 16t-16 9h-29v131h241q15 0 23.5 -14.5t8.5 -36.5v-484q0 -46 -13 -77t-37.5 -50t-61.5 -27.5t-85 -8.5z" />
    <glyph glyph-name="circumflex" unicode="&#x2c6;" horiz-adv-x="400" 
d="M49 597l72 103h159l70 -103v-40h-94l-62 44l-61 -44h-84v40z" />
    <glyph glyph-name="caron" unicode="&#x2c7;" horiz-adv-x="400" 
d="M49 660v40h94l62 -44l61 44h83v-40l-71 -103h-159z" />
    <glyph glyph-name="breve" unicode="&#x2d8;" horiz-adv-x="400" 
d="M200 556q-32 0 -56.5 8t-42.5 20.5t-30 28.5t-18 31v63h103q3 -14 13.5 -24t30.5 -10t30.5 10t13.5 24h103v-63q-6 -15 -18 -31t-30 -28.5t-42.5 -20.5t-56.5 -8z" />
    <glyph glyph-name="dotaccent" unicode="&#x2d9;" horiz-adv-x="400" 
d="M202 549q-45 0 -73.5 25.5t-28.5 67.5q0 43 28.5 69t73.5 26t73.5 -26t28.5 -69q0 -42 -28.5 -67.5t-73.5 -25.5z" />
    <glyph glyph-name="ring" unicode="&#x2da;" horiz-adv-x="400" 
d="M200 558q-22 0 -41.5 7t-34.5 20.5t-24 32.5t-9 43t9 43t24 32.5t34.5 20.5t41.5 7t41.5 -7t34.5 -20.5t24 -32.5t9 -43t-9 -43t-24 -32.5t-34.5 -20.5t-41.5 -7zM200 615q20 0 32.5 12.5t12.5 33.5q0 22 -12.5 34t-32.5 12t-32 -12t-12 -34q0 -21 12 -33.5t32 -12.5z
" />
    <glyph glyph-name="ogonek" unicode="&#x2db;" horiz-adv-x="400" 
d="M218 -169q-52 0 -81.5 21t-29.5 56t29 57.5t68 34.5h69q-28 -28 -28 -51q0 -12 8 -19.5t28 -7.5h16v-77q-13 -6 -32 -10t-47 -4z" />
    <glyph glyph-name="tilde" unicode="&#x2dc;" horiz-adv-x="400" 
d="M32 642q12 26 38.5 43.5t64.5 17.5q16 0 32 -3t31 -7t28 -7t23 -3q14 0 21.5 6.5t12.5 17.5h85v-86q-12 -26 -38.5 -43.5t-64.5 -17.5q-16 0 -32 3.5t-31 7.5l-28 7q-13 4 -23 4q-14 0 -21.5 -6.5t-11.5 -17.5h-86v84z" />
    <glyph glyph-name="hungarumlaut" unicode="&#x2dd;" horiz-adv-x="400" 
d="M255 700h167v-53l-72 -90h-111zM60 700h167v-53l-72 -90h-112z" />
    <glyph glyph-name="uni2009" unicode="&#x2009;" horiz-adv-x="82" 
 />
    <glyph glyph-name="endash" unicode="&#x2013;" horiz-adv-x="414" 
d="M16 357h380v-145h-380v145z" />
    <glyph glyph-name="emdash" unicode="&#x2014;" horiz-adv-x="687" 
d="M16 357h653v-145h-653v145z" />
    <glyph glyph-name="quoteleft" unicode="&#x2018;" horiz-adv-x="210" 
d="M110 413q-21 0 -39.5 7t-32.5 20.5t-22.5 34.5t-8.5 49q0 87 49 129t146 49v-73q-28 -5 -44.5 -14.5t-16.5 -24.5q0 -13 11 -18t24 -15q11 -9 19 -23.5t8 -39.5q0 -36 -26 -58.5t-67 -22.5z" />
    <glyph glyph-name="quoteright" unicode="&#x2019;" horiz-adv-x="210" 
d="M9 494q28 5 44.5 14.5t16.5 24.5q0 13 -11.5 18t-23.5 15q-11 9 -19.5 23.5t-8.5 39.5q0 36 26.5 58.5t67.5 22.5q21 0 39.5 -7t32.5 -20.5t22.5 -34.5t8.5 -49q0 -87 -49 -129t-146 -49v73z" />
    <glyph glyph-name="quotesinglbase" unicode="&#x201a;" horiz-adv-x="210" 
d="M9 -39q28 4 44.5 13.5t16.5 25.5q0 13 -11.5 18t-23.5 15q-11 9 -19.5 23.5t-8.5 38.5q0 37 26.5 59t67.5 22q21 0 39.5 -6.5t32.5 -20t22.5 -34.5t8.5 -49q0 -87 -49 -129.5t-146 -49.5v74z" />
    <glyph glyph-name="quotedblleft" unicode="&#x201c;" horiz-adv-x="422" 
d="M321 413q-21 0 -39.5 7t-32.5 20.5t-22.5 34.5t-8.5 49q0 87 49.5 129t145.5 49v-73q-28 -5 -44.5 -14.5t-16.5 -24.5q0 -13 11.5 -18t23.5 -15q11 -9 19.5 -23.5t8.5 -39.5q0 -36 -26.5 -58.5t-67.5 -22.5zM110 413q-21 0 -39.5 7t-32.5 20.5t-22.5 34.5t-8.5 49
q0 87 49 129t146 49v-73q-28 -5 -44.5 -14.5t-16.5 -24.5q0 -13 11 -18t24 -15q11 -9 19 -23.5t8 -39.5q0 -36 -26 -58.5t-67 -22.5z" />
    <glyph glyph-name="quotedblright" unicode="&#x201d;" horiz-adv-x="422" 
d="M220 494q28 5 44.5 14.5t16.5 24.5q0 13 -11 18t-24 15q-11 9 -19 23.5t-8 39.5q0 36 26 58.5t67 22.5q42 0 72.5 -27t30.5 -84q0 -87 -49 -129t-146 -49v73zM9 494q28 5 44.5 14.5t16.5 24.5q0 13 -11.5 18t-23.5 15q-11 9 -19.5 23.5t-8.5 39.5q0 36 26.5 58.5
t67.5 22.5q21 0 39.5 -7t32.5 -20.5t22.5 -34.5t8.5 -49q0 -87 -49 -129t-146 -49v73z" />
    <glyph glyph-name="quotedblbase" unicode="&#x201e;" horiz-adv-x="422" 
d="M220 -39q28 4 44.5 13.5t16.5 25.5q0 13 -11 18t-24 15q-11 9 -19 23.5t-8 38.5q0 37 26 59t67 22q42 0 72.5 -26.5t30.5 -83.5q0 -87 -49 -129.5t-146 -49.5v74zM9 -39q28 4 44.5 13.5t16.5 25.5q0 13 -11.5 18t-23.5 15q-11 9 -19.5 23.5t-8.5 38.5q0 37 26.5 59
t67.5 22q21 0 39.5 -6.5t32.5 -20t22.5 -34.5t8.5 -49q0 -87 -49 -129.5t-146 -49.5v74z" />
    <glyph glyph-name="dagger" unicode="&#x2020;" horiz-adv-x="472" 
d="M125 230v71l70 123l-131 -66l-55 26v149l55 26l131 -69l-61 116v50l31 44h141l31 -44v-50l-62 -114l131 67l56 -26v-149l-56 -26l-131 67l71 -122v-71l-69 -281h-83z" />
    <glyph glyph-name="daggerdbl" unicode="&#x2021;" horiz-adv-x="472" 
d="M134 -5v50l56 101l-126 -63l-55 26v146l55 27l124 -64l-59 90v34l59 89l-124 -62l-55 27v146l55 26l126 -64l-56 102v50l31 44h141l31 -44v-50l-56 -101l125 63l56 -26v-146l-56 -27l-124 63l60 -89v-34l-60 -90l124 63l56 -27v-146l-56 -26l-126 63l57 -101v-50l-31 -44
h-141z" />
    <glyph glyph-name="bullet" unicode="&#x2022;" horiz-adv-x="356" 
d="M177 122q-33 0 -62.5 10.5t-51.5 31t-34.5 49.5t-12.5 66t12.5 66.5t34.5 50t51.5 31.5t62.5 11q34 0 63 -11t51 -31.5t34.5 -50t12.5 -66.5t-12.5 -66t-34.5 -49.5t-51 -31t-63 -10.5z" />
    <glyph glyph-name="ellipsis" unicode="&#x2026;" horiz-adv-x="663" 
d="M552 -7q-43 0 -72.5 27.5t-29.5 68.5q0 21 8 38.5t21.5 31t32.5 21t40 7.5t39.5 -7.5t32 -21t21.5 -31t8 -38.5q0 -20 -8 -37.5t-21.5 -30.5t-32 -20.5t-39.5 -7.5zM332 -7q-43 0 -72.5 27.5t-29.5 68.5q0 21 8 38.5t21.5 31t32.5 21t40 7.5t39.5 -7.5t32 -21t21.5 -31
t8 -38.5q0 -20 -8 -37.5t-21.5 -30.5t-32 -20.5t-39.5 -7.5zM112 -7q-43 0 -72.5 27.5t-29.5 68.5q0 21 8 38.5t21.5 31t32.5 21t40 7.5t39.5 -7.5t32 -21t21.5 -31t8 -38.5q0 -20 -8 -37.5t-21.5 -30.5t-32 -20.5t-39.5 -7.5z" />
    <glyph glyph-name="perthousand" unicode="&#x2030;" horiz-adv-x="1242" 
d="M201 323q-38 0 -72.5 11.5t-61 35.5t-42.5 60.5t-16 85.5t16 85.5t42.5 60.5t61 35.5t72.5 11.5q37 0 71.5 -11.5t61 -35.5t42.5 -60.5t16 -85.5t-16 -85.5t-42.5 -60.5t-61 -35.5t-71.5 -11.5zM608 729h118l-493 -763h-118zM1042 -9q-38 0 -72.5 11.5t-60.5 35.5
t-42 60.5t-16 85.5t16 85.5t42 60.5t60.5 35.5t72.5 11.5q37 0 72 -11.5t61 -35.5t42 -60.5t16 -85.5t-16 -85.5t-42 -60.5t-61 -35.5t-72 -11.5zM644 -9q-38 0 -72.5 11.5t-60.5 35.5t-42 60.5t-16 85.5t16 85.5t42 60.5t60.5 35.5t72.5 11.5q37 0 71.5 -11.5t61 -35.5
t42.5 -60.5t16 -85.5t-16 -85.5t-42.5 -60.5t-61 -35.5t-71.5 -11.5zM201 417q21 0 32 21.5t11 75.5q0 55 -11 77t-32 22q-22 0 -33 -22t-11 -77q0 -54 11 -75.5t33 -21.5zM1042 85q22 0 32.5 21.5t10.5 75.5t-10.5 76.5t-32.5 22.5q-21 0 -32 -22.5t-11 -76.5t11 -75.5
t32 -21.5zM644 85q22 0 32.5 21.5t10.5 75.5t-10.5 76.5t-32.5 22.5t-33 -22.5t-11 -76.5t11 -75.5t33 -21.5z" />
    <glyph glyph-name="guilsinglleft" unicode="&#x2039;" horiz-adv-x="291" 
d="M17 221v77l142 182h115v-51l-87 -166v-3l87 -167v-53h-115z" />
    <glyph glyph-name="guilsinglright" unicode="&#x203a;" horiz-adv-x="291" 
d="M17 91l87 166v3l-87 167v53h115l142 -181v-77l-142 -182h-115v51z" />
    <glyph glyph-name="fraction" unicode="&#x2044;" horiz-adv-x="231" 
d="M298 729h118l-494 -763h-118z" />
    <glyph glyph-name="Euro" unicode="&#x20ac;" horiz-adv-x="623" 
d="M10 451h56q26 128 110.5 194t216.5 66q72 0 126 -9.5t90 -25.5v-181h-120q-10 29 -29.5 46t-56.5 17q-40 0 -64 -23.5t-33 -83.5h148l-14 -88h-140v-41h133l-14 -87h-111q10 -51 32 -72t61 -21q38 0 59 16t38 38h112v-147q-46 -27 -101 -43.5t-129 -16.5
q-133 0 -212.5 61.5t-102.5 184.5h-55v87h46v41h-46v88z" />
    <glyph glyph-name="trademark" unicode="&#x2122;" horiz-adv-x="719" 
d="M306 479h11q4 0 7.5 4t3.5 7v138q0 3 -3.5 7t-7.5 4h-11v61h170l30 -118h1l31 118h172v-61h-12q-3 0 -7 -4t-4 -7v-138q0 -3 4 -7t7 -4h12v-59h-154v59h22v137h-1l-54 -196h-62l-55 196h-1v-137h23v-59h-122v59zM72 479h12q4 0 7.5 4t3.5 7v147h-19l-6 -47h-60v110h283
v-110h-60l-7 47h-19v-147q0 -3 4 -7t8 -4h13v-59h-160v59z" />
    <glyph glyph-name="onethird" unicode="&#x2153;" horiz-adv-x="839" 
d="M643 -7q-50 0 -84 6.5t-57 15.5v101h79q7 -11 18.5 -20t31.5 -9q17 0 28.5 8.5t11.5 25.5q0 34 -47 34h-38v83h38q23 0 34.5 9t11.5 24t-10 23t-26 8q-17 0 -29 -7.5t-19 -17.5h-75v105q27 9 67 16t81 7q75 0 120 -25.5t45 -80.5q0 -42 -22.5 -64.5t-61.5 -30.5v-3
q92 -12 92 -91q0 -55 -47.5 -86t-141.5 -31zM11 386h39q5 0 10.5 5.5t5.5 9.5v177l-33 -23h-28v97l107 48h118v-299q0 -4 5.5 -9.5t10.5 -5.5h35v-83h-270v83zM583 729h118l-494 -763h-118z" />
    <glyph glyph-name="twothirds" unicode="&#x2154;" horiz-adv-x="868" 
d="M672 -7q-50 0 -84 6.5t-57 15.5v101h79q7 -11 18.5 -20t31.5 -9q17 0 28.5 8.5t11.5 25.5q0 34 -47 34h-38v83h38q23 0 34.5 9t11.5 24t-10 23t-26 8q-17 0 -29 -7.5t-19 -17.5h-75v105q27 9 67 16t81 7q75 0 120 -25.5t45 -80.5q0 -42 -22.5 -64.5t-61.5 -30.5v-3
q92 -12 92 -91q0 -55 -47.5 -86t-141.5 -31zM617 729h118l-494 -763h-118zM8 355q0 55 24.5 88t63.5 59l54 36q22 15 22 34q0 29 -35 29q-17 0 -29 -8.5t-19 -21.5h-78v115q27 9 63.5 15t90.5 6q76 0 123 -29.5t47 -89.5q0 -27 -7.5 -46t-20.5 -33.5t-29 -25.5t-33 -20
q-15 -8 -30.5 -15t-29 -14.5t-23.5 -14.5t-13 -15h78l7 24h93v-125h-319v52z" />
    <glyph glyph-name="oneeighth" unicode="&#x215b;" horiz-adv-x="851" 
d="M653 -7q-95 0 -142.5 32.5t-47.5 87.5q0 38 19.5 61.5t61.5 35.5v2q-66 21 -66 84q0 25 13 45t36 34.5t55 22t71 7.5q38 0 70 -7.5t55 -22t36 -34.5t13 -45q0 -32 -15.5 -52.5t-50.5 -31.5v-2q82 -23 82 -97q0 -55 -48 -87.5t-142 -32.5zM653 81q20 0 29.5 13.5t9.5 33.5
t-9.5 34t-29.5 14q-21 0 -30.5 -14t-9.5 -34t9.5 -33.5t30.5 -13.5zM653 240q17 0 25 11t8 27q0 17 -8 28t-25 11q-18 0 -26 -11t-8 -28q0 -16 8 -27t26 -11zM583 729h118l-494 -763h-118zM11 386h39q5 0 10.5 5.5t5.5 9.5v177l-33 -23h-28v97l107 48h118v-299
q0 -4 5.5 -9.5t10.5 -5.5h35v-83h-270v83z" />
    <glyph glyph-name="threeeighths" unicode="&#x215c;" horiz-adv-x="853" 
d="M656 -7q-95 0 -142.5 32.5t-47.5 87.5q0 38 19.5 61.5t61.5 35.5v2q-66 21 -66 84q0 25 13 45t36 34.5t55 22t71 7.5q38 0 70 -7.5t55 -22t36 -34.5t13 -45q0 -32 -15.5 -52.5t-50.5 -31.5v-2q82 -23 82 -97q0 -55 -48 -87.5t-142 -32.5zM656 81q20 0 29.5 13.5t9.5 33.5
t-9.5 34t-29.5 14q-21 0 -30.5 -14t-9.5 -34t9.5 -33.5t30.5 -13.5zM656 240q17 0 25 11t8 27q0 17 -8 28t-25 11q-18 0 -26 -11t-8 -28q0 -16 8 -27t26 -11zM584 729h118l-494 -763h-118zM146 295q-50 0 -84 7t-57 15v102h79q7 -11 18.5 -20.5t31.5 -9.5q17 0 28.5 8.5
t11.5 26.5q0 33 -47 33h-38v84h38q46 0 46 32q0 16 -10 24t-26 8q-17 0 -29 -7.5t-19 -17.5h-75v105q27 9 67 15.5t81 6.5q75 0 120 -25.5t45 -80.5q0 -41 -22.5 -64t-61.5 -31v-3q92 -11 92 -90q0 -55 -47.5 -86.5t-141.5 -31.5z" />
    <glyph glyph-name="fiveeighths" unicode="&#x215d;" horiz-adv-x="842" 
d="M645 -7q-95 0 -142.5 32.5t-47.5 87.5q0 38 19.5 61.5t61.5 35.5v2q-66 21 -66 84q0 25 13 45t36 34.5t55 22t71 7.5q38 0 70 -7.5t55 -22t36 -34.5t13 -45q0 -32 -15.5 -52.5t-50.5 -31.5v-2q82 -23 82 -97q0 -55 -48 -87.5t-142 -32.5zM645 81q20 0 29.5 13.5t9.5 33.5
t-9.5 34t-29.5 14q-21 0 -30.5 -14t-9.5 -34t9.5 -33.5t30.5 -13.5zM645 240q17 0 25 11t8 27q0 17 -8 28t-25 11q-18 0 -26 -11t-8 -28q0 -16 8 -27t26 -11zM574 729h118l-494 -763h-118zM146 295q-48 0 -82.5 7t-58.5 15v101h79q6 -12 16 -20t32 -8q19 0 30 11t11 30
q0 37 -37 37q-16 0 -25 -5t-14 -11h-85v248h296v-122h-93l-6 22h-89v-72h2q11 11 31 18.5t50 7.5q28 0 51.5 -7t41 -21.5t27.5 -37t10 -54.5q0 -66 -47 -102.5t-140 -36.5z" />
    <glyph glyph-name="seveneighths" unicode="&#x215e;" horiz-adv-x="824" 
d="M53 363l169 224v2h-116l-9 -37h-91v148h320v-117l-114 -280h-159v60zM627 -7q-95 0 -142.5 32.5t-47.5 87.5q0 38 19.5 61.5t61.5 35.5v2q-66 21 -66 84q0 25 13 45t36 34.5t55 22t71 7.5q38 0 70 -7.5t55 -22t36 -34.5t13 -45q0 -32 -15.5 -52.5t-50.5 -31.5v-2
q82 -23 82 -97q0 -55 -48 -87.5t-142 -32.5zM627 81q20 0 29.5 13.5t9.5 33.5t-9.5 34t-29.5 14q-21 0 -30.5 -14t-9.5 -34t9.5 -33.5t30.5 -13.5zM627 240q17 0 25 11t8 27q0 17 -8 28t-25 11q-18 0 -26 -11t-8 -28q0 -16 8 -27t26 -11zM548 729h118l-494 -763h-118z" />
    <glyph glyph-name="minus" unicode="&#x2212;" horiz-adv-x="516" 
d="M10 422h497v-153h-497v153z" />
    <glyph glyph-name="space_uni0326" horiz-adv-x="400" 
d="M125 -178q49 6 49 28q0 9 -9 14l-19 11q-10 6 -16 16.5t-6 29.5q0 26 20.5 42t54.5 16q36 0 60 -20t24 -62q0 -65 -39.5 -97t-118.5 -37v59z" />
    <glyph glyph-name="paragraph.cap" horiz-adv-x="563" 
d="M223 297q-47 4 -86 16.5t-67.5 36.5t-44.5 60.5t-16 87.5q0 57 19.5 96t53.5 62.5t80.5 33.5t100.5 10h292v-128h-29q-9 0 -18.5 -10t-9.5 -18v-544h-110v576h-55v-576h-110v297z" />
    <glyph glyph-name="bullet.cap" horiz-adv-x="356" 
d="M177 170q-33 0 -62.5 10.5t-51.5 31t-34.5 49.5t-12.5 66t12.5 66t34.5 49.5t51.5 31.5t62.5 11q34 0 63 -11t51 -31.5t34.5 -49.5t12.5 -66t-12.5 -66t-34.5 -49.5t-51 -31t-63 -10.5z" />
    <glyph glyph-name="at.cap" horiz-adv-x="784" 
d="M294 172q-51 0 -81.5 32t-30.5 92q0 51 17 95t45 76q24 27 56 42t72 15q32 0 55 -11.5t39 -31.5q14 14 29 25t27 11h90l-50 -220q-5 -25 -1.5 -38t21.5 -13q19 0 37 9.5t32 30t22.5 51.5t8.5 75q0 54 -21 96t-58 71t-87.5 44.5t-108.5 15.5q-56 0 -108.5 -19t-94 -57.5
t-66.5 -97.5t-25 -138q0 -71 22.5 -121t61 -82t91 -47t112.5 -15q66 0 118.5 14t91.5 39h46v-56q-44 -32 -112 -50t-146 -18q-71 0 -139 19.5t-121 60.5t-86 104.5t-33 152.5q0 93 35.5 165t91.5 120.5t124.5 73.5t135.5 25q69 0 134 -19.5t115 -57.5t80.5 -93t30.5 -127
q0 -63 -17.5 -109.5t-48 -77t-73 -45.5t-92.5 -15q-57 0 -86.5 16.5t-41.5 45.5q-19 -22 -46.5 -40t-66.5 -18zM367 264q18 0 32 10l35 152q-5 2 -10 3t-13 1q-18 0 -32 -11t-23 -29t-14 -41t-5 -47q0 -17 8 -27.5t22 -10.5z" />
    <glyph glyph-name="dagger.cap" horiz-adv-x="472" 
d="M125 251v70l70 117l-131 -67l-55 27v148l55 27l129 -68l-59 103v48l31 44h141l31 -44v-48l-60 -102l129 67l56 -27v-148l-56 -27l-131 68l71 -116v-70l-69 -253h-83z" />
    <glyph glyph-name="daggerdbl.cap" horiz-adv-x="472" 
d="M134 43v46l62 94l-132 -65l-55 25v142l55 25l130 -65l-66 90v29l67 91l-131 -65l-55 25v142l55 25l132 -66l-62 95v46l31 43h141l31 -43v-46l-62 -94l131 65l56 -25v-142l-56 -25l-132 66l69 -91v-29l-67 -90l130 64l56 -25v-142l-56 -25l-133 67l64 -96v-46l-31 -43
h-141z" />
    <glyph glyph-name="less.cap" horiz-adv-x="461" 
d="M11 282v136l331 282h107v-128l-210 -220v-3l210 -226v-123h-107z" />
    <glyph glyph-name="greater.cap" horiz-adv-x="461" 
d="M12 123l209 226v3l-209 220v128h106l331 -282v-136l-331 -282h-106v123z" />
    <glyph glyph-name="guillemotleft.cap" horiz-adv-x="725" 
d="M11 285v129l284 286h107v-128l-178 -219v-3l178 -227v-123h-107zM321 285v129l285 286h106v-128l-178 -219v-3l178 -227v-123h-106z" />
    <glyph glyph-name="guillemotright.cap" horiz-adv-x="725" 
d="M12 123l178 226v3l-178 220v128h106l285 -286v-128l-285 -286h-106v123zM322 123l178 226v3l-178 220v128h107l284 -286v-128l-284 -286h-107v123z" />
    <glyph glyph-name="quotedblleft.cap" horiz-adv-x="1022" 
d="M782 -10q-52 0 -99.5 17t-83.5 51.5t-57.5 87t-21.5 123.5q0 196 124 308t363 123v-128q-52 -6 -87.5 -18t-57 -28.5t-31 -37.5t-9.5 -43q0 -19 10 -30t26.5 -21t37.5 -20.5t43 -27.5q27 -20 49 -56t22 -98q0 -45 -17 -82.5t-47 -64t-72 -41t-92 -14.5zM272 -10
q-52 0 -99.5 17t-83.5 51.5t-57.5 87t-21.5 123.5q0 196 124 308t363 123v-128q-52 -6 -87.5 -18t-57 -28.5t-31 -37.5t-9.5 -43q0 -19 10 -30t26.5 -21t37.5 -20.5t43 -27.5q27 -20 49 -56t22 -98q0 -45 -17 -82.5t-47 -64t-72 -41t-92 -14.5z" />
    <glyph glyph-name="quotedblright.cap" horiz-adv-x="1022" 
d="M524 123q51 6 86.5 19t57.5 30.5t31.5 38.5t9.5 44q0 19 -10 30t-26.5 21t-38 20.5t-43.5 27.5q-27 20 -49 56t-22 98q0 45 17 82.5t47.5 64t72.5 41t92 14.5q52 0 99.5 -17t83.5 -51.5t57 -87t21 -123.5q0 -98 -31 -175.5t-92.5 -132.5t-152.5 -86t-210 -37v123zM14 123
q51 6 86.5 19t57.5 30.5t31.5 38.5t9.5 44q0 19 -10 30t-26.5 21t-38 20.5t-43.5 27.5q-27 20 -49 56t-22 98q0 45 17 82.5t47.5 64t72 41t91.5 14.5q52 0 99.5 -17t83.5 -51.5t57.5 -87t21.5 -123.5q0 -98 -31 -175.5t-92.5 -132.5t-152.5 -86t-210 -37v123z" />
    <glyph glyph-name="quoteleft.cap" horiz-adv-x="512" 
d="M272 -10q-52 0 -99.5 17t-83.5 51.5t-57.5 87t-21.5 123.5q0 196 124 308t363 123v-128q-52 -6 -87.5 -18t-57 -28.5t-31 -37.5t-9.5 -43q0 -19 10 -30t26.5 -21t37.5 -20.5t43 -27.5q27 -20 49 -56t22 -98q0 -45 -17 -82.5t-47 -64t-72 -41t-92 -14.5z" />
    <glyph glyph-name="quoteright.cap" horiz-adv-x="512" 
d="M14 123q51 6 86.5 19t57.5 30.5t31.5 38.5t9.5 44q0 19 -10 30t-26.5 21t-38 20.5t-43.5 27.5q-27 20 -49 56t-22 98q0 45 17 82.5t47.5 64t72 41t91.5 14.5q52 0 99.5 -17t83.5 -51.5t57.5 -87t21.5 -123.5q0 -98 -31 -175.5t-92.5 -132.5t-152.5 -86t-210 -37v123z" />
    <glyph glyph-name="hyphen.cap" horiz-adv-x="297" 
d="M16 405h263v-155h-263v155z" />
    <glyph glyph-name="endash.cap" horiz-adv-x="414" 
d="M16 400h380v-144h-380v144z" />
    <glyph glyph-name="emdash.cap" horiz-adv-x="687" 
d="M16 400h653v-144h-653v144z" />
    <glyph glyph-name="questiondown.cap" horiz-adv-x="472" 
d="M257 -11q-127 0 -187.5 52t-60.5 142q0 36 10.5 63t27.5 48t39 37.5t46 31.5q21 14 38 26.5t29 26t18 29t4 36.5h131q13 -64 -2 -107t-51 -81l-21 -21q-12 -12 -22 -25t-17 -27.5t-7 -29.5q0 -25 12 -39t35 -14q25 0 39 15t24 35h120v-163q-44 -17 -91.5 -26t-113.5 -9z
M280 513q-21 0 -39.5 7.5t-32 21t-21.5 31t-8 38.5q0 20 8 37.5t21.5 30.5t32 20.5t39.5 7.5q43 0 72.5 -27.5t29.5 -68.5q0 -21 -8 -38.5t-21.5 -31t-32.5 -21t-40 -7.5z" />
    <glyph glyph-name="exclamdown.cap" horiz-adv-x="248" 
d="M121 513q-42 0 -71 28t-29 70q0 41 29 68.5t71 27.5q44 0 73.5 -27.5t29.5 -68.5q0 -42 -29.5 -70t-73.5 -28zM12 127l58 354h104l59 -354v-127h-221v127z" />
    <glyph glyph-name="ampersand.alt" horiz-adv-x="755" 
d="M286 -8q-143 0 -210 55t-67 150q0 39 11.5 69t31.5 53.5t47 40t59 28.5q-17 28 -24.5 57t-7.5 64q0 43 14.5 80t43.5 64t72.5 42.5t102.5 15.5q10 0 24 -1l28 -3q13 -2 24 -4t15 -3h153v-196h-143l-16 58q-5 2 -10.5 3t-16.5 1q-32 0 -45.5 -13.5t-13.5 -39.5
q0 -25 12 -44t38 -45l134 -137q10 21 16 47h-30v113h208v-126h-8q-25 0 -32 -25q-19 -63 -51 -115l35 -35q23 -23 41 -23h15v-123h-210l-37 37q-43 -21 -93 -33t-110 -12zM318 128q32 0 69 13l-143 146q-8 -11 -13 -26.5t-5 -37.5q0 -43 24.5 -69t67.5 -26z" />
    <glyph glyph-name="zero.num" horiz-adv-x="429" 
d="M214 295q-44 0 -81.5 14t-65.5 40t-43.5 64.5t-15.5 88.5q0 49 16.5 87t44.5 64.5t65.5 40t79.5 13.5t79.5 -13.5t65.5 -40t44.5 -64.5t16.5 -87q0 -50 -15.5 -88.5t-43 -64.5t-65.5 -40t-82 -14zM214 394q21 0 32 22.5t11 82.5q0 59 -11 79.5t-32 20.5
q-20 0 -31.5 -20.5t-11.5 -79.5q0 -60 11.5 -82.5t31.5 -22.5z" />
    <glyph glyph-name="one.num" horiz-adv-x="291" 
d="M13 386h39q5 0 10.5 5.5t5.5 9.5v177l-33 -23h-28v97l107 48h118v-299q0 -4 5.5 -9.5t10.5 -5.5h35v-83h-270v83z" />
    <glyph glyph-name="two.num" horiz-adv-x="345" 
d="M9 355q0 55 24.5 88t63.5 59l54 36q22 15 22 34q0 29 -35 29q-17 0 -29 -8.5t-19 -21.5h-78v115q27 9 63.5 15t90.5 6q76 0 123 -29.5t47 -89.5q0 -27 -7.5 -46t-20.5 -33.5t-29 -25.5t-33 -20q-15 -8 -30.5 -15t-29 -14.5t-23.5 -14.5t-13 -15h78l7 24h93v-125h-319v52z
" />
    <glyph glyph-name="three.num" horiz-adv-x="346" 
d="M148 295q-50 0 -84 7t-57 15v102h79q7 -11 18.5 -20.5t31.5 -9.5q17 0 28.5 8.5t11.5 26.5q0 33 -47 33h-38v84h38q46 0 46 32q0 16 -10 24t-26 8q-17 0 -29 -7.5t-19 -17.5h-75v105q27 9 67 15.5t81 6.5q75 0 120 -25.5t45 -80.5q0 -41 -22.5 -64t-61.5 -31v-3
q92 -11 92 -90q0 -55 -47.5 -86.5t-141.5 -31.5z" />
    <glyph glyph-name="four.num" horiz-adv-x="378" 
d="M126 386h28q5 0 10.5 5.5t5.5 9.5v14h-163v94l168 191h155v-203h40v-82h-40v-14q0 -4 5.5 -9.5t9.5 -5.5h25v-83h-244v83zM101 497h77v88h-2l-75 -86v-2z" />
    <glyph glyph-name="five.num" horiz-adv-x="344" 
d="M148 295q-48 0 -82.5 7t-58.5 15v101h79q6 -12 16 -20t32 -8q19 0 30 11t11 30q0 37 -37 37q-16 0 -25 -5t-14 -11h-85v248h296v-122h-93l-6 22h-89v-72h2q11 11 31 18.5t50 7.5q28 0 51.5 -7t41 -21.5t27.5 -37t10 -54.5q0 -66 -47 -102.5t-140 -36.5z" />
    <glyph glyph-name="six.num" horiz-adv-x="398" 
d="M208 295q-46 0 -83 11t-63 34.5t-40 61t-14 91.5q0 102 57.5 158t174.5 56q44 0 76 -4t47 -9v-107h-71q-8 8 -19 14t-33 6q-65 0 -72 -84q16 14 41 24t59 10q53 0 87 -27t34 -89q0 -68 -48 -107t-133 -39zM198 475q-10 0 -18 -2t-13 -4q1 -50 9.5 -66.5t28.5 -16.5
q17 0 25.5 13.5t8.5 34.5q0 41 -41 41z" />
    <glyph glyph-name="seven.num" horiz-adv-x="336" 
d="M54 363l169 224v2h-116l-9 -37h-91v148h320v-117l-114 -280h-159v60z" />
    <glyph glyph-name="eight.num" horiz-adv-x="397" 
d="M198 295q-95 0 -142.5 32.5t-47.5 88.5q0 38 19.5 61.5t61.5 35.5v2q-66 21 -66 84q0 25 13 45t36 34t55 21.5t71 7.5q38 0 70 -7.5t55 -21.5t36 -34t13 -45q0 -32 -15.5 -52.5t-50.5 -31.5v-2q82 -23 82 -97q0 -56 -48 -88.5t-142 -32.5zM198 383q20 0 29.5 14t9.5 34
t-9.5 34t-29.5 14q-21 0 -30.5 -14t-9.5 -34t9.5 -34t30.5 -14zM198 542q17 0 25 11t8 28q0 16 -8 27.5t-25 11.5q-18 0 -26 -11.5t-8 -27.5q0 -17 8 -28t26 -11z" />
    <glyph glyph-name="nine.num" horiz-adv-x="398" 
d="M157 295q-43 0 -79.5 5t-52.5 10v105h76q9 -8 21.5 -13t35.5 -5q33 0 50.5 19t21.5 63q-17 -14 -42 -24t-58 -10q-53 0 -87.5 28t-34.5 90q0 67 48.5 105.5t133.5 38.5q46 0 83 -10.5t63 -34t40 -61t14 -91.5q0 -103 -57.5 -159t-175.5 -56zM200 527q18 0 31 5
q-2 50 -10.5 67t-28.5 17q-16 0 -25 -12.5t-9 -34.5q0 -42 42 -42z" />
    <glyph glyph-name="zero.den" horiz-adv-x="429" 
d="M214 -7q-44 0 -81.5 13.5t-65.5 40t-43.5 64.5t-15.5 88q0 49 16.5 87.5t44.5 64.5t65.5 40t79.5 14t79.5 -14t65.5 -40t44.5 -64.5t16.5 -87.5q0 -50 -15.5 -88t-43 -64.5t-65.5 -40t-82 -13.5zM214 91q21 0 32 22.5t11 82.5q0 59 -11 79.5t-32 20.5q-20 0 -31.5 -20.5
t-11.5 -79.5q0 -60 11.5 -82.5t31.5 -22.5z" />
    <glyph glyph-name="one.den" horiz-adv-x="291" 
d="M13 83h39q5 0 10.5 5.5t5.5 10.5v176l-33 -22h-28v97l107 47h118v-298q0 -5 5.5 -10.5t10.5 -5.5h35v-83h-270v83z" />
    <glyph glyph-name="two.den" horiz-adv-x="345" 
d="M9 52q0 56 24.5 88.5t63.5 58.5l54 36q22 15 22 34q0 29 -35 29q-17 0 -29 -8.5t-19 -20.5h-78v115q27 8 63.5 14.5t90.5 6.5q76 0 123 -30t47 -89q0 -27 -7.5 -46.5t-20.5 -34t-29 -25t-33 -20.5q-15 -8 -30.5 -15t-29 -14t-23.5 -14.5t-13 -15.5h78l7 25h93v-126h-319
v52z" />
    <glyph glyph-name="three.den" horiz-adv-x="346" 
d="M148 -7q-50 0 -84 6.5t-57 15.5v101h79q7 -11 18.5 -20t31.5 -9q17 0 28.5 8.5t11.5 25.5q0 34 -47 34h-38v83h38q23 0 34.5 9t11.5 24t-10 23t-26 8q-17 0 -29 -7.5t-19 -17.5h-75v105q27 9 67 16t81 7q75 0 120 -25.5t45 -80.5q0 -42 -22.5 -64.5t-61.5 -30.5v-3
q92 -12 92 -91q0 -55 -47.5 -86t-141.5 -31z" />
    <glyph glyph-name="four.den" horiz-adv-x="378" 
d="M126 83h28q5 0 10.5 5.5t5.5 10.5v14h-163v94l168 190h155v-203h40v-81h-40v-14q0 -5 5.5 -10.5t9.5 -5.5h25v-83h-244v83zM101 194h77v88h-2l-75 -86v-2z" />
    <glyph glyph-name="five.den" horiz-adv-x="344" 
d="M148 -7q-48 0 -82.5 6.5t-58.5 14.5v102h79q6 -13 16 -21t32 -8q19 0 30 11t11 31q0 37 -37 37q-16 0 -25 -5.5t-14 -11.5h-85v248h296v-122h-93l-6 23h-89v-72h2q11 10 31 17.5t50 7.5q56 0 93 -28t37 -91q0 -66 -47 -102.5t-140 -36.5z" />
    <glyph glyph-name="six.den" horiz-adv-x="398" 
d="M208 -7q-46 0 -83 11t-63 34.5t-40 61t-14 90.5q0 103 57.5 159t174.5 56q44 0 76 -4.5t47 -9.5v-106h-71q-8 8 -19 13.5t-33 5.5q-33 0 -50.5 -20t-21.5 -64q16 15 41 24.5t59 9.5q53 0 87 -27t34 -89q0 -68 -48 -106.5t-133 -38.5zM198 173q-19 0 -31 -7
q1 -50 9.5 -66.5t28.5 -16.5q17 0 25.5 13.5t8.5 35.5q0 41 -41 41z" />
    <glyph glyph-name="seven.den" horiz-adv-x="336" 
d="M54 60l169 224v2h-116l-9 -36h-91v147h320v-117l-114 -280h-159v60z" />
    <glyph glyph-name="eight.den" horiz-adv-x="397" 
d="M198 -7q-95 0 -142.5 32.5t-47.5 87.5q0 38 19.5 61.5t61.5 35.5v2q-66 21 -66 84q0 25 13 45t36 34.5t55 22t71 7.5q38 0 70 -7.5t55 -22t36 -34.5t13 -45q0 -32 -15.5 -52.5t-50.5 -31.5v-2q82 -23 82 -97q0 -55 -48 -87.5t-142 -32.5zM198 81q20 0 29.5 13.5t9.5 33.5
t-9.5 34t-29.5 14q-21 0 -30.5 -14t-9.5 -34t9.5 -33.5t30.5 -13.5zM198 240q17 0 25 11t8 27q0 17 -8 28t-25 11q-18 0 -26 -11t-8 -28q0 -16 8 -27t26 -11z" />
    <glyph glyph-name="nine.den" horiz-adv-x="398" 
d="M157 -7q-43 0 -79.5 4.5t-52.5 9.5v106h76q9 -9 21.5 -14t35.5 -5q33 0 50.5 19t21.5 63q-17 -14 -42 -23.5t-58 -9.5q-54 0 -88 27.5t-34 89.5q0 68 48.5 106.5t133.5 38.5q46 0 83 -10.5t63 -34t40 -61t14 -91.5q0 -103 -57.5 -159t-175.5 -56zM200 224q9 0 17 2t14 4
q-2 49 -10.5 66.5t-28.5 17.5q-16 0 -25 -13t-9 -34q0 -43 42 -43z" />
    <glyph glyph-name="idotaccent" horiz-adv-x="333" 
d="M7 123h26q8 0 16 8.5t8 16.5v224q0 7 -8 16t-16 9h-29v131h241q32 0 32 -51v-329q0 -8 8 -16.5t16 -8.5h26v-123h-320v123zM166 549q-45 0 -73 25.5t-28 67.5q0 43 28 69t73 26t73.5 -26t28.5 -69q0 -42 -28.5 -67.5t-73.5 -25.5z" />
    <glyph glyph-name="Scaron.titling" horiz-adv-x="562" 
d="M132 825v40h94l62 -44l61 44h83v-40l-71 -103h-159zM277 -11q-36 0 -64 3t-54 8h-149v221h152l20 -87q21 -7 60 -7q40 0 62.5 14.5t22.5 47.5q0 18 -8.5 29.5t-24 19.5t-37.5 14l-50 14q-38 10 -73 24.5t-62 39t-43 62t-16 94.5q0 60 19.5 102.5t54 69.5t82.5 40t104 13
q48 0 77 -3t51 -8h128v-203h-150l-20 75q-10 3 -22.5 5t-29.5 2q-42 0 -63.5 -14.5t-21.5 -46.5q0 -18 8 -29t21 -18t30 -12l37 -10q63 -17 107 -35.5t72 -44t40.5 -60.5t12.5 -85q0 -114 -66 -174.5t-207 -60.5z" />
    <glyph glyph-name="Yacute.titling" horiz-adv-x="693" 
d="M169 123h34q9 0 18 10.5t9 18.5v113l-176 286q-5 8 -13 14.5t-16 6.5h-16v128h336v-128h-61l94 -163h3l59 102q17 28 9 44.5t-41 16.5h-16v128h292v-128h-10q-11 0 -21.5 -9t-17.5 -20l-171 -273v-118q0 -8 9.5 -18.5t18.5 -10.5h34v-123h-357v123zM319 854h199v-56
l-100 -87h-123z" />
    <glyph glyph-name="Zcaron.titling" horiz-adv-x="592" 
d="M148 814v40h94l62 -44l61 44h83v-40l-71 -103h-159zM9 153l321 405v4h-148l-19 -84h-135v222h555v-157l-321 -405v-4h160l19 98h142v-232h-574v153z" />
    <glyph glyph-name="Adieresis.titling" 
d="M8 123h13q12 0 22.5 8.5t15.5 22.5l138 391q3 8 -2.5 17.5t-15.5 9.5h-33v128h377l175 -554q3 -8 12.5 -15.5t17.5 -7.5h16v-123h-356v123h78l-26 91h-197q-14 -46 -7.5 -68.5t43.5 -22.5h26v-123h-297v123zM278 320h131l-59 206h-2zM457 710q-41 0 -66.5 23.5
t-25.5 63.5q0 39 25.5 62.5t66.5 23.5t66.5 -23.5t25.5 -62.5q0 -40 -25.5 -63.5t-66.5 -23.5zM249 710q-41 0 -66.5 23.5t-25.5 63.5q0 39 25.5 62.5t66.5 23.5t66.5 -23.5t25.5 -62.5q0 -40 -25.5 -63.5t-66.5 -23.5z" />
    <glyph glyph-name="Aring.titling" 
d="M8 123h13q12 0 22.5 8.5t15.5 22.5l138 391q3 8 -2.5 17.5t-15.5 9.5h-33v128h377l175 -554q3 -8 12.5 -15.5t17.5 -7.5h16v-123h-356v123h78l-26 91h-197q-14 -46 -7.5 -68.5t43.5 -22.5h26v-123h-297v123zM278 320h131l-59 206h-2zM354 712q-22 0 -41.5 7t-34.5 20.5
t-24 32.5t-9 43t9 43t24 32.5t34.5 20.5t41.5 7t41.5 -7t34.5 -20.5t24 -32.5t9 -43t-9 -43t-24 -32.5t-34.5 -20.5t-41.5 -7zM354 769q20 0 32.5 12.5t12.5 33.5q0 22 -12.5 34t-32.5 12t-32 -12t-12 -34q0 -21 12 -33.5t32 -12.5z" />
    <glyph glyph-name="Eacute.titling" horiz-adv-x="626" 
d="M267 854h199v-56l-100 -87h-123zM9 123h29q9 0 18.5 10.5t9.5 18.5v392q0 8 -9.5 18t-18.5 10h-29v128h596v-227h-135l-20 89h-150v-134h161v-142h-161v-152h154l19 106h141v-240h-605v123z" />
    <glyph glyph-name="Ntilde.titling" horiz-adv-x="732" 
d="M9 123h29q9 0 18.5 10.5t9.5 18.5v392q0 8 -9.5 18t-18.5 10h-29v128h281l209 -361h3v233h-61v128h282v-128h-26q-8 0 -17.5 -10t-9.5 -18v-544h-203l-231 397h-3v-274h64v-123h-288v123zM210 796q12 26 38.5 43.5t64.5 17.5q16 0 32 -3t31 -7t28 -7t23 -3q14 0 21.5 6.5
t12.5 17.5h85v-86q-12 -26 -38.5 -43.5t-64.5 -17.5q-16 0 -32 3.5t-31 7.5l-28 7q-13 4 -23 4q-14 0 -21.5 -6.5t-11.5 -17.5h-86v84z" />
    <glyph glyph-name="Odieresis.titling" horiz-adv-x="745" 
d="M473 711q-41 0 -66.5 23.5t-25.5 63.5q0 39 25.5 62.5t66.5 23.5t66.5 -23.5t25.5 -62.5q0 -40 -25.5 -63.5t-66.5 -23.5zM265 711q-41 0 -66.5 23.5t-25.5 63.5q0 39 25.5 62.5t66.5 23.5t66.5 -23.5t25.5 -62.5q0 -40 -25.5 -63.5t-66.5 -23.5zM372 -11q-77 0 -143 24
t-115 69.5t-76.5 113t-27.5 154.5t28.5 154.5t77.5 113t115 69.5t141 24t141 -24t115 -69.5t77.5 -113t28.5 -154.5t-27.5 -154.5t-76.5 -113t-115 -69.5t-143 -24zM372 136q54 0 88 52t34 158t-34 156.5t-88 50.5q-55 0 -88.5 -50.5t-33.5 -156.5t33.5 -158t88.5 -52z" />
    <glyph glyph-name="Udieresis.titling" horiz-adv-x="726" 
d="M495 710q-41 0 -66.5 23.5t-25.5 63.5q0 39 25.5 62.5t66.5 23.5t66.5 -23.5t25.5 -62.5q0 -40 -25.5 -63.5t-66.5 -23.5zM287 710q-41 0 -66.5 23.5t-25.5 63.5q0 39 25.5 62.5t66.5 23.5t66.5 -23.5t25.5 -62.5q0 -40 -25.5 -63.5t-66.5 -23.5zM366 -8q-304 0 -304 263
v289q0 8 -9.5 18t-18.5 10h-25v128h356v-128h-69v-329q0 -56 23 -81t73 -25q51 0 74 25t23 81v329h-69v128h297v-128h-25q-8 0 -17.5 -10t-9.5 -18v-289q0 -263 -299 -263z" />
    <glyph glyph-name="Agrave.titling" 
d="M8 123h13q12 0 22.5 8.5t15.5 22.5l138 391q3 8 -2.5 17.5t-15.5 9.5h-33v128h377l175 -554q3 -8 12.5 -15.5t17.5 -7.5h16v-123h-356v123h78l-26 91h-197q-14 -46 -7.5 -68.5t43.5 -22.5h26v-123h-297v123zM278 320h131l-59 206h-2zM203 798v56h199l24 -143h-123z" />
    <glyph glyph-name="Atilde.titling" 
d="M8 123h13q12 0 22.5 8.5t15.5 22.5l138 391q3 8 -2.5 17.5t-15.5 9.5h-33v128h377l175 -554q3 -8 12.5 -15.5t17.5 -7.5h16v-123h-356v123h78l-26 91h-197q-14 -46 -7.5 -68.5t43.5 -22.5h26v-123h-297v123zM278 320h131l-59 206h-2zM186 796q12 26 38.5 43.5t64.5 17.5
q16 0 32 -3t31 -7t28 -7t23 -3q14 0 21.5 6.5t12.5 17.5h85v-86q-12 -26 -38.5 -43.5t-64.5 -17.5q-16 0 -32 3.5t-31 7.5l-28 7q-13 4 -23 4q-14 0 -21.5 -6.5t-11.5 -17.5h-86v84z" />
    <glyph glyph-name="Otilde.titling" horiz-adv-x="745" 
d="M372 -11q-77 0 -143 24t-115 69.5t-76.5 113t-27.5 154.5t28.5 154.5t77.5 113t115 69.5t141 24t141 -24t115 -69.5t77.5 -113t28.5 -154.5t-27.5 -154.5t-76.5 -113t-115 -69.5t-143 -24zM372 136q54 0 88 52t34 158t-34 156.5t-88 50.5q-55 0 -88.5 -50.5t-33.5 -156.5
t33.5 -158t88.5 -52zM203 801q12 26 38.5 43.5t64.5 17.5q16 0 32 -3t31 -7t28 -7t23 -3q14 0 21.5 6.5t12.5 17.5h85v-86q-12 -26 -38.5 -43.5t-64.5 -17.5q-16 0 -32 3.5t-31 7.5l-28 7q-13 4 -23 4q-14 0 -21.5 -6.5t-11.5 -17.5h-86v84z" />
    <glyph glyph-name="Acircumflex.titling" 
d="M8 123h13q12 0 22.5 8.5t15.5 22.5l138 391q3 8 -2.5 17.5t-15.5 9.5h-33v128h377l175 -554q3 -8 12.5 -15.5t17.5 -7.5h16v-123h-356v123h78l-26 91h-197q-14 -46 -7.5 -68.5t43.5 -22.5h26v-123h-297v123zM278 320h131l-59 206h-2zM203 751l72 103h159l70 -103v-40h-94
l-62 44l-61 -44h-84v40z" />
    <glyph glyph-name="Ecircumflex.titling" horiz-adv-x="626" 
d="M165 751l72 103h159l70 -103v-40h-94l-62 44l-61 -44h-84v40zM9 123h29q9 0 18.5 10.5t9.5 18.5v392q0 8 -9.5 18t-18.5 10h-29v128h596v-227h-135l-20 89h-150v-134h161v-142h-161v-152h154l19 106h141v-240h-605v123z" />
    <glyph glyph-name="Aacute.titling" 
d="M8 123h13q12 0 22.5 8.5t15.5 22.5l138 391q3 8 -2.5 17.5t-15.5 9.5h-33v128h377l175 -554q3 -8 12.5 -15.5t17.5 -7.5h16v-123h-356v123h78l-26 91h-197q-14 -46 -7.5 -68.5t43.5 -22.5h26v-123h-297v123zM278 320h131l-59 206h-2zM305 854h199v-56l-100 -87h-123z" />
    <glyph glyph-name="Edieresis.titling" horiz-adv-x="626" 
d="M419 710q-41 0 -66.5 23.5t-25.5 63.5q0 39 25.5 62.5t66.5 23.5t66.5 -23.5t25.5 -62.5q0 -40 -25.5 -63.5t-66.5 -23.5zM211 710q-41 0 -66.5 23.5t-25.5 63.5q0 39 25.5 62.5t66.5 23.5t66.5 -23.5t25.5 -62.5q0 -40 -25.5 -63.5t-66.5 -23.5zM9 123h29q9 0 18.5 10.5
t9.5 18.5v392q0 8 -9.5 18t-18.5 10h-29v128h596v-227h-135l-20 89h-150v-134h161v-142h-161v-152h154l19 106h141v-240h-605v123z" />
    <glyph glyph-name="Egrave.titling" horiz-adv-x="626" 
d="M9 123h29q9 0 18.5 10.5t9.5 18.5v392q0 8 -9.5 18t-18.5 10h-29v128h596v-227h-135l-20 89h-150v-134h161v-142h-161v-152h154l19 106h141v-240h-605v123zM165 798v56h199l24 -143h-123z" />
    <glyph glyph-name="Iacute.titling" horiz-adv-x="375" 
d="M9 123h34q9 0 18.5 10.5t9.5 18.5v392q0 8 -9.5 18t-18.5 10h-34v128h358v-128h-35q-8 0 -17.5 -10t-9.5 -18v-392q0 -8 9.5 -18.5t17.5 -10.5h35v-123h-358v123zM140 854h199v-56l-100 -87h-123z" />
    <glyph glyph-name="Icircumflex.titling" horiz-adv-x="375" 
d="M9 123h34q9 0 18.5 10.5t9.5 18.5v392q0 8 -9.5 18t-18.5 10h-34v128h358v-128h-35q-8 0 -17.5 -10t-9.5 -18v-392q0 -8 9.5 -18.5t17.5 -10.5h35v-123h-358v123zM38 751l72 103h159l70 -103v-40h-94l-62 44l-61 -44h-84v40z" />
    <glyph glyph-name="Idieresis.titling" horiz-adv-x="375" 
d="M9 123h34q9 0 18.5 10.5t9.5 18.5v392q0 8 -9.5 18t-18.5 10h-34v128h358v-128h-35q-8 0 -17.5 -10t-9.5 -18v-392q0 -8 9.5 -18.5t17.5 -10.5h35v-123h-358v123zM292 707q-41 0 -66.5 23.5t-25.5 63.5q0 39 25.5 62.5t66.5 23.5t66.5 -23.5t25.5 -62.5
q0 -40 -25.5 -63.5t-66.5 -23.5zM84 707q-41 0 -66.5 23.5t-25.5 63.5q0 39 25.5 62.5t66.5 23.5t66.5 -23.5t25.5 -62.5q0 -40 -25.5 -63.5t-66.5 -23.5z" />
    <glyph glyph-name="Igrave.titling" horiz-adv-x="375" 
d="M9 123h34q9 0 18.5 10.5t9.5 18.5v392q0 8 -9.5 18t-18.5 10h-34v128h358v-128h-35q-8 0 -17.5 -10t-9.5 -18v-392q0 -8 9.5 -18.5t17.5 -10.5h35v-123h-358v123zM38 798v56h199l24 -143h-123z" />
    <glyph glyph-name="Oacute.titling" horiz-adv-x="745" 
d="M321 865h199v-56l-100 -87h-123zM372 -11q-77 0 -143 24t-115 69.5t-76.5 113t-27.5 154.5t28.5 154.5t77.5 113t115 69.5t141 24t141 -24t115 -69.5t77.5 -113t28.5 -154.5t-27.5 -154.5t-76.5 -113t-115 -69.5t-143 -24zM372 136q54 0 88 52t34 158t-34 156.5t-88 50.5
q-55 0 -88.5 -50.5t-33.5 -156.5t33.5 -158t88.5 -52z" />
    <glyph glyph-name="Ocircumflex.titling" horiz-adv-x="745" 
d="M219 762l72 103h159l70 -103v-40h-94l-62 44l-61 -44h-84v40zM372 -11q-77 0 -143 24t-115 69.5t-76.5 113t-27.5 154.5t28.5 154.5t77.5 113t115 69.5t141 24t141 -24t115 -69.5t77.5 -113t28.5 -154.5t-27.5 -154.5t-76.5 -113t-115 -69.5t-143 -24zM372 136
q54 0 88 52t34 158t-34 156.5t-88 50.5q-55 0 -88.5 -50.5t-33.5 -156.5t33.5 -158t88.5 -52z" />
    <glyph glyph-name="Ograve.titling" horiz-adv-x="745" 
d="M372 -11q-77 0 -143 24t-115 69.5t-76.5 113t-27.5 154.5t28.5 154.5t77.5 113t115 69.5t141 24t141 -24t115 -69.5t77.5 -113t28.5 -154.5t-27.5 -154.5t-76.5 -113t-115 -69.5t-143 -24zM372 136q54 0 88 52t34 158t-34 156.5t-88 50.5q-55 0 -88.5 -50.5t-33.5 -156.5
t33.5 -158t88.5 -52zM219 809v56h199l24 -143h-123z" />
    <glyph glyph-name="Uacute.titling" horiz-adv-x="726" 
d="M343 854h199v-56l-100 -87h-123zM366 -8q-304 0 -304 263v289q0 8 -9.5 18t-18.5 10h-25v128h356v-128h-69v-329q0 -56 23 -81t73 -25q51 0 74 25t23 81v329h-69v128h297v-128h-25q-8 0 -17.5 -10t-9.5 -18v-289q0 -263 -299 -263z" />
    <glyph glyph-name="Ucircumflex.titling" horiz-adv-x="726" 
d="M241 751l72 103h159l70 -103v-40h-94l-62 44l-61 -44h-84v40zM366 -8q-304 0 -304 263v289q0 8 -9.5 18t-18.5 10h-25v128h356v-128h-69v-329q0 -56 23 -81t73 -25q51 0 74 25t23 81v329h-69v128h297v-128h-25q-8 0 -17.5 -10t-9.5 -18v-289q0 -263 -299 -263z" />
    <glyph glyph-name="Ugrave.titling" horiz-adv-x="726" 
d="M366 -8q-304 0 -304 263v289q0 8 -9.5 18t-18.5 10h-25v128h356v-128h-69v-329q0 -56 23 -81t73 -25q51 0 74 25t23 81v329h-69v128h297v-128h-25q-8 0 -17.5 -10t-9.5 -18v-289q0 -263 -299 -263zM241 798v56h199l24 -143h-123z" />
    <glyph glyph-name="Ydieresis.titling" horiz-adv-x="693" 
d="M169 123h34q9 0 18 10.5t9 18.5v113l-176 286q-5 8 -13 14.5t-16 6.5h-16v128h336v-128h-61l94 -163h3l59 102q17 28 9 44.5t-41 16.5h-16v128h292v-128h-10q-11 0 -21.5 -9t-17.5 -20l-171 -273v-118q0 -8 9.5 -18.5t18.5 -10.5h34v-123h-357v123zM471 710
q-41 0 -66.5 23.5t-25.5 63.5q0 39 25.5 62.5t66.5 23.5t66.5 -23.5t25.5 -62.5q0 -40 -25.5 -63.5t-66.5 -23.5zM263 710q-41 0 -66.5 23.5t-25.5 63.5q0 39 25.5 62.5t66.5 23.5t66.5 -23.5t25.5 -62.5q0 -40 -25.5 -63.5t-66.5 -23.5z" />
    <glyph glyph-name="Amacron.titling" 
d="M8 123h13q12 0 22.5 8.5t15.5 22.5l138 391q3 8 -2.5 17.5t-15.5 9.5h-33v128h377l175 -554q3 -8 12.5 -15.5t17.5 -7.5h16v-123h-356v123h78l-26 91h-197q-14 -46 -7.5 -68.5t43.5 -22.5h26v-123h-297v123zM278 320h131l-59 206h-2zM211 837h286v-120h-286v120z" />
    <glyph glyph-name="Abreve.titling" 
d="M8 123h13q12 0 22.5 8.5t15.5 22.5l138 391q3 8 -2.5 17.5t-15.5 9.5h-33v128h377l175 -554q3 -8 12.5 -15.5t17.5 -7.5h16v-123h-356v123h78l-26 91h-197q-14 -46 -7.5 -68.5t43.5 -22.5h26v-123h-297v123zM278 320h131l-59 206h-2zM354 710q-32 0 -56.5 8t-42.5 20.5
t-30 28.5t-18 31v63h103q3 -14 13.5 -24t30.5 -10t30.5 10t13.5 24h103v-63q-6 -15 -18 -31t-30 -28.5t-42.5 -20.5t-56.5 -8z" />
    <glyph glyph-name="Cacute.titling" horiz-adv-x="646" 
d="M313 865h199v-56l-100 -87h-123zM371 -11q-177 0 -268 90t-91 264q0 89 23.5 158t68 115.5t108 70.5t144.5 24q35 0 65 -3t52 -8h159v-250h-149l-23 101q-11 3 -25 5t-30 2q-32 0 -58 -10.5t-45 -34.5t-29 -63.5t-10 -96.5q0 -107 30 -159t99 -52q42 0 73.5 21t53.5 49
h116v-151q-48 -32 -116.5 -52t-147.5 -20z" />
    <glyph glyph-name="Ccircumflex.titling" horiz-adv-x="646" 
d="M212 757l72 103h159l70 -103v-40h-94l-62 44l-61 -44h-84v40zM372 -11q-177 0 -268 90t-91 264q0 89 23.5 158t68 115.5t108 70.5t144.5 24q35 0 65 -3t52 -8h159v-250h-149l-23 101q-11 3 -25 5t-30 2q-32 0 -58 -10.5t-45 -34.5t-29 -63.5t-10 -96.5q0 -107 30 -159
t99 -52q42 0 73.5 21t53.5 49h116v-151q-48 -32 -116.5 -52t-147.5 -20z" />
    <glyph glyph-name="Cdotaccent.titling" horiz-adv-x="646" 
d="M371 -11q-177 0 -268 90t-91 264q0 89 23.5 158t68 115.5t108 70.5t144.5 24q35 0 65 -3t52 -8h159v-250h-149l-23 101q-11 3 -25 5t-30 2q-32 0 -58 -10.5t-45 -34.5t-29 -63.5t-10 -96.5q0 -107 30 -159t99 -52q42 0 73.5 21t53.5 49h116v-151q-48 -32 -116.5 -52
t-147.5 -20zM364 717q-45 0 -73.5 25.5t-28.5 67.5q0 43 28.5 69t73.5 26t73.5 -26t28.5 -69q0 -42 -28.5 -67.5t-73.5 -25.5z" />
    <glyph glyph-name="Ccaron.titling" horiz-adv-x="646" 
d="M211 825v40h94l62 -44l61 44h83v-40l-71 -103h-159zM371 -11q-177 0 -268 90t-91 264q0 89 23.5 158t68 115.5t108 70.5t144.5 24q35 0 65 -3t52 -8h159v-250h-149l-23 101q-11 3 -25 5t-30 2q-32 0 -58 -10.5t-45 -34.5t-29 -63.5t-10 -96.5q0 -107 30 -159t99 -52
q42 0 73.5 21t53.5 49h116v-151q-48 -32 -116.5 -52t-147.5 -20z" />
    <glyph glyph-name="Dcaron.titling" horiz-adv-x="732" 
d="M167 814v40h94l62 -44l61 44h83v-40l-71 -103h-159zM9 123h29q9 0 18.5 10.5t9.5 18.5v392q0 8 -9.5 18t-18.5 10h-29v128h327q199 0 292.5 -84.5t93.5 -260.5q0 -175 -95.5 -265t-297.5 -90h-320v123zM329 129q77 0 115 52.5t38 164.5t-37.5 164.5t-115.5 52.5h-29v-434
h29z" />
    <glyph glyph-name="Emacron.titling" horiz-adv-x="626" 
d="M9 123h29q9 0 18.5 10.5t9.5 18.5v392q0 8 -9.5 18t-18.5 10h-29v128h596v-227h-135l-20 89h-150v-134h161v-142h-161v-152h154l19 106h141v-240h-605v123zM173 837h286v-120h-286v120z" />
    <glyph glyph-name="Edotaccent.titling" horiz-adv-x="626" 
d="M9 123h29q9 0 18.5 10.5t9.5 18.5v392q0 8 -9.5 18t-18.5 10h-29v128h596v-227h-135l-20 89h-150v-134h161v-142h-161v-152h154l19 106h141v-240h-605v123zM318 713q-45 0 -73.5 25.5t-28.5 67.5q0 43 28.5 69t73.5 26t73.5 -26t28.5 -69q0 -42 -28.5 -67.5t-73.5 -25.5z
" />
    <glyph glyph-name="Ecaron.titling" horiz-adv-x="626" 
d="M165 814v40h94l62 -44l61 44h83v-40l-71 -103h-159zM9 123h29q9 0 18.5 10.5t9.5 18.5v392q0 8 -9.5 18t-18.5 10h-29v128h596v-227h-135l-20 89h-150v-134h161v-142h-161v-152h154l19 106h141v-240h-605v123z" />
    <glyph glyph-name="Ebreve.titling" horiz-adv-x="626" 
d="M9 123h29q9 0 18.5 10.5t9.5 18.5v392q0 8 -9.5 18t-18.5 10h-29v128h596v-227h-135l-20 89h-150v-134h161v-142h-161v-152h154l19 106h141v-240h-605v123zM318 721q-32 0 -56.5 8t-42.5 20.5t-30 28.5t-18 31v63h103q3 -14 13.5 -24t30.5 -10t30.5 10t13.5 24h103v-63
q-6 -15 -18 -31t-30 -28.5t-42.5 -20.5t-56.5 -8z" />
    <glyph glyph-name="Gcircumflex.titling" horiz-adv-x="697" 
d="M211 758l72 103h159l70 -103v-40h-94l-62 44l-61 -44h-84v40zM360 -11q-180 0 -265 90.5t-85 263.5q0 180 90.5 274t257.5 94q33 0 64.5 -3t52.5 -8h159v-243h-150l-23 94q-10 2 -25.5 4.5t-32.5 2.5q-33 0 -59 -10.5t-44.5 -34.5t-28.5 -63t-10 -96q0 -107 26 -163
t93 -56q29 0 48 4v97h-49v122h314v-125h-15q-9 0 -18.5 -10t-9.5 -18v-205h-116q-3 6 -7 10t-9 7t-12 3q-24 -14 -64 -22.5t-82 -8.5z" />
    <glyph glyph-name="Gbreve.titling" horiz-adv-x="697" 
d="M360 -11q-180 0 -265 90.5t-85 263.5q0 180 90.5 274t257.5 94q33 0 64.5 -3t52.5 -8h159v-243h-150l-23 94q-10 2 -25.5 4.5t-32.5 2.5q-33 0 -59 -10.5t-44.5 -34.5t-28.5 -63t-10 -96q0 -107 26 -163t93 -56q29 0 48 4v97h-49v122h314v-125h-15q-9 0 -18.5 -10
t-9.5 -18v-205h-116q-3 6 -7 10t-9 7t-12 3q-24 -14 -64 -22.5t-82 -8.5zM362 721q-32 0 -56.5 8t-42.5 20.5t-30 28.5t-18 31v63h103q3 -14 13.5 -24t30.5 -10t30.5 10t13.5 24h103v-63q-6 -15 -18 -31t-30 -28.5t-42.5 -20.5t-56.5 -8z" />
    <glyph glyph-name="Gdotaccent.titling" horiz-adv-x="697" 
d="M360 -11q-180 0 -265 90.5t-85 263.5q0 180 90.5 274t257.5 94q33 0 64.5 -3t52.5 -8h159v-243h-150l-23 94q-10 2 -25.5 4.5t-32.5 2.5q-33 0 -59 -10.5t-44.5 -34.5t-28.5 -63t-10 -96q0 -107 26 -163t93 -56q29 0 48 4v97h-49v122h314v-125h-15q-9 0 -18.5 -10
t-9.5 -18v-205h-116q-3 6 -7 10t-9 7t-12 3q-24 -14 -64 -22.5t-82 -8.5zM364 714q-45 0 -73.5 25.5t-28.5 67.5q0 43 28.5 69t73.5 26t73.5 -26t28.5 -69q0 -42 -28.5 -67.5t-73.5 -25.5z" />
    <glyph glyph-name="Hcircumflex.titling" horiz-adv-x="765" 
d="M231 751l72 103h159l70 -103v-40h-94l-62 44l-61 -44h-84v40zM9 123h29q9 0 18.5 10.5t9.5 18.5v392q0 8 -9.5 18t-18.5 10h-29v128h351v-128h-60v-158h165v158h-60v128h351v-128h-29q-9 0 -18.5 -10t-9.5 -18v-392q0 -8 9.5 -18.5t18.5 -10.5h29v-123h-351v123h60v172
h-165v-172h60v-123h-351v123z" />
    <glyph glyph-name="Imacron.titling" horiz-adv-x="375" 
d="M9 123h34q9 0 18.5 10.5t9.5 18.5v392q0 8 -9.5 18t-18.5 10h-34v128h358v-128h-35q-8 0 -17.5 -10t-9.5 -18v-392q0 -8 9.5 -18.5t17.5 -10.5h35v-123h-358v123zM46 837h286v-120h-286v120z" />
    <glyph glyph-name="Idotaccent.titling" horiz-adv-x="375" 
d="M9 123h34q9 0 18.5 10.5t9.5 18.5v392q0 8 -9.5 18t-18.5 10h-34v128h358v-128h-35q-8 0 -17.5 -10t-9.5 -18v-392q0 -8 9.5 -18.5t17.5 -10.5h35v-123h-358v123zM191 713q-45 0 -73.5 25.5t-28.5 67.5q0 43 28.5 69t73.5 26t73.5 -26t28.5 -69q0 -42 -28.5 -67.5
t-73.5 -25.5z" />
    <glyph glyph-name="Jcircumflex.titling" horiz-adv-x="545" 
d="M202 751l72 103h159l70 -103v-40h-94l-62 44l-61 -44h-84v40zM202 -8q-62 0 -109 9.5t-84 28.5v150h112q10 -17 25.5 -29.5t40.5 -12.5q26 0 39 15.5t13 44.5v346q0 8 -9.5 18t-17.5 10h-40v128h363v-128h-34q-9 0 -18 -10t-9 -18v-326q0 -119 -65 -172.5t-207 -53.5z
" />
    <glyph glyph-name="Lacute.titling" horiz-adv-x="608" 
d="M147 854h199v-56l-100 -87h-123zM9 123h29q9 0 18.5 10.5t9.5 18.5v392q0 8 -9.5 18t-18.5 10h-29v128h370v-128h-79v-438h138l19 124h143v-258h-591v123z" />
    <glyph glyph-name="Nacute.titling" horiz-adv-x="732" 
d="M329 854h199v-56l-100 -87h-123zM9 123h29q9 0 18.5 10.5t9.5 18.5v392q0 8 -9.5 18t-18.5 10h-29v128h281l209 -361h3v233h-61v128h282v-128h-26q-8 0 -17.5 -10t-9.5 -18v-544h-203l-231 397h-3v-274h64v-123h-288v123z" />
    <glyph glyph-name="Ncaron.titling" horiz-adv-x="732" 
d="M227 814v40h94l62 -44l61 44h83v-40l-71 -103h-159zM9 123h29q9 0 18.5 10.5t9.5 18.5v392q0 8 -9.5 18t-18.5 10h-29v128h281l209 -361h3v233h-61v128h282v-128h-26q-8 0 -17.5 -10t-9.5 -18v-544h-203l-231 397h-3v-274h64v-123h-288v123z" />
    <glyph glyph-name="Omacron.titling" horiz-adv-x="745" 
d="M227 848h286v-120h-286v120zM372 -11q-77 0 -143 24t-115 69.5t-76.5 113t-27.5 154.5t28.5 154.5t77.5 113t115 69.5t141 24t141 -24t115 -69.5t77.5 -113t28.5 -154.5t-27.5 -154.5t-76.5 -113t-115 -69.5t-143 -24zM372 136q54 0 88 52t34 158t-34 156.5t-88 50.5
q-55 0 -88.5 -50.5t-33.5 -156.5t33.5 -158t88.5 -52z" />
    <glyph glyph-name="Ohungarumlaut.titling" horiz-adv-x="745" 
d="M425 865h167v-53l-72 -90h-111zM230 865h167v-53l-72 -90h-112zM372 -11q-77 0 -143 24t-115 69.5t-76.5 113t-27.5 154.5t28.5 154.5t77.5 113t115 69.5t141 24t141 -24t115 -69.5t77.5 -113t28.5 -154.5t-27.5 -154.5t-76.5 -113t-115 -69.5t-143 -24zM372 136
q54 0 88 52t34 158t-34 156.5t-88 50.5q-55 0 -88.5 -50.5t-33.5 -156.5t33.5 -158t88.5 -52z" />
    <glyph glyph-name="Racute.titling" horiz-adv-x="708" 
d="M273 854h199v-56l-100 -87h-123zM9 123h29q9 0 18.5 10.5t9.5 18.5v392q0 8 -9.5 18t-18.5 10h-29v128h348q154 0 225 -49.5t71 -150.5q0 -63 -32 -101.5t-104 -57.5v-4q27 -6 47.5 -15t36 -25.5t26.5 -41.5t19 -62l11 -45q3 -14 10.5 -19.5t14.5 -5.5h17v-123h-256
l-23 190q-5 43 -22.5 60t-55.5 17h-42v-144h63v-123h-354v123zM294 388h40q50 0 68 22.5t18 64.5t-18 65t-68 23h-40v-175z" />
    <glyph glyph-name="Rcaron.titling" horiz-adv-x="708" 
d="M171 814v40h94l62 -44l61 44h83v-40l-71 -103h-159zM9 123h29q9 0 18.5 10.5t9.5 18.5v392q0 8 -9.5 18t-18.5 10h-29v128h348q154 0 225 -49.5t71 -150.5q0 -63 -32 -101.5t-104 -57.5v-4q27 -6 47.5 -15t36 -25.5t26.5 -41.5t19 -62l11 -45q3 -14 10.5 -19.5t14.5 -5.5
h17v-123h-256l-23 190q-5 43 -22.5 60t-55.5 17h-42v-144h63v-123h-354v123zM294 388h40q50 0 68 22.5t18 64.5t-18 65t-68 23h-40v-175z" />
    <glyph glyph-name="Sacute.titling" horiz-adv-x="562" 
d="M233 865h199v-56l-100 -87h-123zM277 -11q-36 0 -64 3t-54 8h-149v221h152l20 -87q21 -7 60 -7q40 0 62.5 14.5t22.5 47.5q0 18 -8.5 29.5t-24 19.5t-37.5 14l-50 14q-38 10 -73 24.5t-62 39t-43 62t-16 94.5q0 60 19.5 102.5t54 69.5t82.5 40t104 13q48 0 77 -3t51 -8
h128v-203h-150l-20 75q-10 3 -22.5 5t-29.5 2q-42 0 -63.5 -14.5t-21.5 -46.5q0 -18 8 -29t21 -18t30 -12l37 -10q63 -17 107 -35.5t72 -44t40.5 -60.5t12.5 -85q0 -114 -66 -174.5t-207 -60.5z" />
    <glyph glyph-name="Scircumflex.titling" horiz-adv-x="562" 
d="M131 759l72 103h159l70 -103v-40h-94l-62 44l-61 -44h-84v40zM277 -11q-36 0 -64 3t-54 8h-149v221h152l20 -87q21 -7 60 -7q40 0 62.5 14.5t22.5 47.5q0 18 -8.5 29.5t-24 19.5t-37.5 14l-50 14q-38 10 -73 24.5t-62 39t-43 62t-16 94.5q0 60 19.5 102.5t54 69.5
t82.5 40t104 13q48 0 77 -3t51 -8h128v-203h-150l-20 75q-10 3 -22.5 5t-29.5 2q-42 0 -63.5 -14.5t-21.5 -46.5q0 -18 8 -29t21 -18t30 -12l37 -10q63 -17 107 -35.5t72 -44t40.5 -60.5t12.5 -85q0 -114 -66 -174.5t-207 -60.5z" />
    <glyph glyph-name="Tcaron.titling" horiz-adv-x="676" 
d="M187 814v40h94l62 -44l61 44h83v-40l-71 -103h-159zM160 123h33q9 0 18.5 10.5t9.5 18.5v414h-56l-15 -129h-139v263h654v-263h-138l-16 129h-56v-414q0 -8 9.5 -18.5t18.5 -10.5h33v-123h-356v123z" />
    <glyph glyph-name="Umacron.titling" horiz-adv-x="726" 
d="M366 -8q-304 0 -304 263v289q0 8 -9.5 18t-18.5 10h-25v128h356v-128h-69v-329q0 -56 23 -81t73 -25q51 0 74 25t23 81v329h-69v128h297v-128h-25q-8 0 -17.5 -10t-9.5 -18v-289q0 -263 -299 -263zM249 837h286v-120h-286v120z" />
    <glyph glyph-name="Ubreve.titling" horiz-adv-x="726" 
d="M366 -8q-304 0 -304 263v289q0 8 -9.5 18t-18.5 10h-25v128h356v-128h-69v-329q0 -56 23 -81t73 -25q51 0 74 25t23 81v329h-69v128h297v-128h-25q-8 0 -17.5 -10t-9.5 -18v-289q0 -263 -299 -263zM392 710q-32 0 -56.5 8t-42.5 20.5t-30 28.5t-18 31v63h103
q3 -14 13.5 -24t30.5 -10t30.5 10t13.5 24h103v-63q-6 -15 -18 -31t-30 -28.5t-42.5 -20.5t-56.5 -8z" />
    <glyph glyph-name="Uring.titling" horiz-adv-x="726" 
d="M391 706q-22 0 -41.5 7t-34.5 20.5t-24 32.5t-9 43t9 43t24 32.5t34.5 20.5t41.5 7t41.5 -7t34.5 -20.5t24 -32.5t9 -43t-9 -43t-24 -32.5t-34.5 -20.5t-41.5 -7zM391 763q20 0 32.5 12.5t12.5 33.5q0 22 -12.5 34t-32.5 12t-32 -12t-12 -34q0 -21 12 -33.5t32 -12.5z
M366 -8q-304 0 -304 263v289q0 8 -9.5 18t-18.5 10h-25v128h356v-128h-69v-329q0 -56 23 -81t73 -25q51 0 74 25t23 81v329h-69v128h297v-128h-25q-8 0 -17.5 -10t-9.5 -18v-289q0 -263 -299 -263z" />
    <glyph glyph-name="Uhungarumlaut.titling" horiz-adv-x="726" 
d="M366 -8q-304 0 -304 263v289q0 8 -9.5 18t-18.5 10h-25v128h356v-128h-69v-329q0 -56 23 -81t73 -25q51 0 74 25t23 81v329h-69v128h297v-128h-25q-8 0 -17.5 -10t-9.5 -18v-289q0 -263 -299 -263zM447 854h167v-53l-72 -90h-111zM252 854h167v-53l-72 -90h-112z" />
    <glyph glyph-name="Zacute.titling" horiz-adv-x="592" 
d="M250 854h199v-56l-100 -87h-123zM9 153l321 405v4h-148l-19 -84h-135v222h555v-157l-321 -405v-4h160l19 98h142v-232h-574v153z" />
    <glyph glyph-name="Zdotaccent.titling" horiz-adv-x="592" 
d="M9 153l321 405v4h-148l-19 -84h-135v222h555v-157l-321 -405v-4h160l19 98h142v-232h-574v153zM301 708q-45 0 -73.5 25.5t-28.5 67.5q0 43 28.5 69t73.5 26t73.5 -26t28.5 -69q0 -42 -28.5 -67.5t-73.5 -25.5z" />
    </font>
</defs>
</svg>
